<?xml version="1.0" encoding="utf-8"?>
<!-- Generator: Adobe Illustrator 27.5.0, SVG Export Plug-In . SVG Version: 6.00 Build 0)  -->
<svg version="1.1" xmlns="http://www.w3.org/2000/svg" xmlns:xlink="http://www.w3.org/1999/xlink" x="0px" y="0px"
	 viewBox="0 0 500 500" style="enable-background:new 0 0 500 500;" xml:space="preserve">
<g id="BACKGROUND">
	<g>
		<rect style="fill:#FFFFFF;" width="500" height="500"/>
	</g>
</g>
<g id="OBJECTS">
	<path style="fill:#DFE6EE;" d="M106.992,393.762c-47.884-35.706-74.238-97.584-68.938-157.079
		c5.3-59.495,41.259-114.971,92.301-145.995S246.116,53.1,303.063,71.125c56.946,18.025,105.527,59.817,133.884,112.389
		c16.9,31.331,26.938,66.819,25.543,102.389c-1.395,35.57-14.77,71.117-39.627,96.599c-15.099,15.477-33.99,26.765-54.205,34.215
		c-21.612,7.964-41.824,13.344-63.873,18.09c-41.5,8.933-87.884,1.521-129.246-9.173
		C150.981,419.283,127.386,408.969,106.992,393.762z"/>
	<g>
		<path style="fill:#FFBB39;" d="M299.659,117.207c-1.378-2.541-4.121-4.941-7.012-4.95c-81.11-0.234-157.185,1.307-243.699,0.49
			c-3.609-0.034-7.379,0.134-10.207,2.377c-2.828,2.243-4.203,5.025-4.337,8.632c-0.029,0.787-0.057,1.574-0.085,2.361
			c-1.793,51.218-0.739,102.456-0.163,153.686c0.027,2.392-0.291,4.934,1.34,6.683c1.631,1.749,4.183,1.714,6.573,1.804
			c48.523,1.825,94.631,2.024,139.886,2.052c2.39,8.297,10.917,18.866,13.914,22.871c8.007,10.698,17.708,20.136,28.672,27.779
			c11.758,8.196,25.939,14.515,40.098,12.288c-23.239-10.277-39.552-34.62-40.222-60.021c-0.025-0.948-0.039-1.923-0.087-2.895
			c20.783,0.029,41.49,0.119,62.272,0.415c4.352,0.062,10.726-2.074,10.723-6.426c-0.036-53.414,1.747-115.622,2.249-158.841
			C299.607,122.621,301.037,119.748,299.659,117.207z"/>
		<g>
			<path style="fill:#FFFFFF;" d="M63.357,203.363c-2.831,7.215-1.402,15.374,0.843,22.792c2.185,7.215,5.107,14.207,8.708,20.831
				c1.545,2.842,3.347,5.749,6.189,7.295c4.216,2.294,9.4,0.976,14.001-0.392c3.777-1.123,7.99-2.611,9.617-6.2
				c1.207-2.663,0.62-5.757-0.023-8.609c-2.298-10.188-5.04-20.276-8.218-30.225c-2.025-6.339-5.349-15.202-12.864-16.165
				C73.927,191.705,66.189,196.148,63.357,203.363z"/>
			<path style="fill:#7991D1;" d="M94.475,208.855c-2.025-6.339-5.349-15.202-12.864-16.165c-1.478-0.189-2.957-0.174-4.403,0.019
				c-1.399,4.624-1.116,11.041-1.071,14.59c0.194,15.391,5.315,30.374,11.571,44.271c0.504,1.119,1.024,2.24,1.579,3.34
				c1.293-0.292,2.574-0.654,3.812-1.022c3.777-1.123,7.99-2.611,9.617-6.2c1.207-2.663,0.62-5.757-0.023-8.609
				C100.395,228.891,97.652,218.803,94.475,208.855z"/>
			<path style="fill:#FFFFFF;" d="M246.785,170.536c5.46,5.5,7.385,13.557,8.266,21.257c0.857,7.49,0.947,15.068,0.269,22.576
				c-0.291,3.222-0.792,6.605-2.788,9.152c-2.96,3.778-8.242,4.625-13.008,5.194c-3.913,0.467-8.37,0.773-11.287-1.877
				c-2.164-1.966-2.853-5.039-3.394-7.912c-1.932-10.264-3.415-20.612-4.445-31.005c-0.656-6.622-1.12-16.076,5.397-19.941
				C232.459,164.027,241.324,165.036,246.785,170.536z"/>
			<path style="fill:#7991D1;" d="M220.399,187.92c-0.656-6.622-1.12-16.076,5.397-19.941c1.281-0.76,2.645-1.332,4.049-1.729
				c3.118,3.69,5.404,9.692,6.77,12.969c5.927,14.206,7.169,29.99,6.939,45.229c-0.018,1.228-0.052,2.462-0.125,3.693
				c-1.302,0.245-2.622,0.421-3.905,0.574c-3.913,0.467-8.37,0.772-11.287-1.877c-2.164-1.966-2.853-5.039-3.394-7.912
				C222.911,208.661,221.428,198.313,220.399,187.92z"/>
			<path style="fill:#313B59;" d="M106.288,139.027c6.966,3.509,12.252,10.194,14.06,17.781c0.243,1.021-4.091,1.642-4.503,0.677
				c-0.412-0.965-1.027-3.708-1.275-4.728c-0.98-4.022-3.671-7.597-7.264-9.652c-0.618-0.354-1.27-0.67-1.792-1.154
				c-0.522-0.485-0.905-1.186-0.803-1.891C104.813,139.354,105.652,138.706,106.288,139.027z"/>
			<path style="fill:#FFFFFF;" d="M107.472,137.249c-0.796-2.438-2.814-4.47-5.283-5.163c-2.469-0.693-5.312,0.03-7.064,1.902
				c-1.751,1.873-2.584,5.065-1.464,7.371c0.954,1.965,2.741,4.174,4.885,4.591C103.421,146.899,109.286,142.807,107.472,137.249z"
				/>
			<path style="fill:#313B59;" d="M191.103,130.67c-6.139,4.811-10.006,12.406-10.285,20.201c-0.038,1.049,4.335,0.805,4.549-0.223
				s0.277-3.838,0.32-4.887c0.169-4.136,2.104-8.171,5.223-10.893c0.537-0.468,1.113-0.907,1.53-1.485
				c0.416-0.578,0.654-1.341,0.415-2.012C192.614,130.701,191.663,130.231,191.103,130.67z"/>
			<path style="fill:#FFFFFF;" d="M189.592,129.16c0.3-2.547,1.88-4.937,4.163-6.102c2.284-1.166,5.214-1.016,7.3,0.475
				c2.086,1.491,3.53,4.457,2.886,6.939c-0.549,2.115-1.865,4.632-3.886,5.463C195.463,137.824,188.907,134.966,189.592,129.16z"/>
			<path style="fill:#FFFFFF;" d="M95.284,253.747c-3.716-7.081-8.942-19.27-10.454-24.938c-4.232-15.871-6.444-29.495-0.085-44.64
				c4.781-11.385,14.713-20.07,25.886-25.328c11.173-5.258,23.562-7.388,35.863-8.466c15.981-1.401,34.557-2.058,50.558-0.915
				c26.45,1.889,33.469,21.912,36.368,30.486c2.898,8.574,3.858,17.662,4.799,26.664c1.005,9.609,1.931,19.747-2.041,28.555
				c-3.261,7.23-9.495,12.711-16.157,17.015c-14.543,9.394-31.721,14.14-48.95,15.848c-14.297,1.418-34.493,1.456-48.833,1.337
				C110.25,269.266,100.887,264.423,95.284,253.747z"/>
			<path style="fill:#313B59;" d="M116.007,253.842c-5.356-4.777-8.45-11.48-11.087-18.095c-3.89-9.759-7.14-19.979-7.115-30.458
				c0.025-10.479,3.716-21.344,11.789-28.201c9.429-8.009,22.801-9.277,35.236-10.178c15.046-1.091,30.092-2.182,45.137-3.273
				c5.94-0.431,12.165-0.816,17.602,1.572c8.003,3.514,12.292,12.125,14.673,20.408c2.885,10.034,6.272,20.673,5.402,31.064
				c-0.593,7.081-1.056,14.617-5.753,20.022c-5.063,5.827-13.259,8.865-20.658,11.295c-11.482,3.771-26.118,6.885-38.008,9.228
				c-10.504,2.069-20.408,1.619-30.945,1.922C126.117,259.323,120.703,258.029,116.007,253.842z"/>
			<path style="fill:#FFD075;" d="M192.536,197.323c-5.436-1.16-10.873-2.321-16.309-3.481l10.234-13.334
				c0.482-0.628,0.097-1.639-0.525-2.003c-0.755-0.441-1.52-0.104-2.003,0.525c-3.712,4.837-7.425,9.674-11.137,14.51
				c-0.123,0.16-0.188,0.345-0.209,0.538c-0.473,0.766-0.329,1.906,0.796,2.147c6.125,1.307,12.251,2.615,18.376,3.922
				C193.595,200.539,194.381,197.717,192.536,197.323z"/>
			<path style="fill:#FFD075;" d="M123.351,197.43c1.261-5.432,6.333-9.824,11.906-10.025c5.573-0.201,12.062,3.799,13.052,9.286
				c0.832,4.613-0.648,11.358-4.534,13.98c-3.284,2.216-10.769,3.401-15.526,0.315C124.124,208.312,122.37,201.656,123.351,197.43z"
				/>
			<path style="fill:#FFD075;" d="M177.484,219.602c-0.739-1.732-3.315-0.336-2.579,1.389c1.191,2.789,0.682,6.06-0.915,8.58
				c-1.735,2.739-4.787,4.315-7.988,4.526c-6.883,0.452-12.249-4.933-13.674-11.344c-0.408-1.838-3.259-1.165-2.849,0.679
				c1.35,6.074,5.797,11.655,12.017,13.163c6.305,1.529,13.127-1.078,15.863-7.151C178.775,226.3,178.836,222.77,177.484,219.602z"
				/>
		</g>
		<g>
			<path style="fill:#FFD075;" d="M240.496,242.673c-4.943,5.197-10.143,9.85-16.178,13.764c-6.035,3.914-12.646,7.035-19.384,9.529
				c-15.055,5.572-31.181,7.817-47.152,8.601c-9.578,0.47-19.211,0.091-28.767,0.852c-0.412,0.033-0.412,0.607,0,0.641
				c8.678,0.709,17.483,0.409,26.177,0.082c8.605-0.324,17.239-0.891,25.752-2.221c14.756-2.306,29.372-6.638,42.194-14.446
				c6.855-4.175,13.578-9.221,18.684-15.475C242.571,243.084,241.345,241.781,240.496,242.673z"/>
			<path style="fill:#FFD075;" d="M225.273,264.258c-1.245-0.355-2.322,0.667-3.36,1.227c-1.348,0.727-2.697,1.472-4.07,2.151
				c-2.723,1.347-5.539,2.638-8.38,3.714c-2.736,1.036-5.477,2.059-8.272,2.925c-1.467,0.455-2.924,0.94-4.396,1.378
				c-1.195,0.356-2.646,0.564-3.625,1.375c-0.163,0.135-0.064,0.408,0.121,0.459c1.216,0.331,2.7-0.141,3.902-0.39
				c1.508-0.312,3.003-0.638,4.484-1.061c2.952-0.844,5.876-1.777,8.723-2.93c2.733-1.107,5.441-2.193,8.071-3.529
				c1.371-0.696,2.759-1.343,4.105-2.088c1.087-0.602,2.814-1.121,3.136-2.457C225.793,264.699,225.609,264.354,225.273,264.258z"/>
			<path style="fill:#FFD075;" d="M96.121,158.94c-4.533,2.643-8.6,6.084-11.984,10.093c-3.248,3.847-6.296,8.528-7.336,13.526
				c-0.062,0.296,0.338,0.491,0.502,0.212c1.258-2.15,2.324-4.392,3.684-6.486c1.386-2.134,2.828-4.235,4.478-6.175
				c3.278-3.854,7.189-7.083,11.557-9.629C98.013,159.903,97.116,158.36,96.121,158.94z"/>
			<path style="fill:#FFD075;" d="M229.393,157.337c-5.831-7.549-15.386-13.287-25.16-12.851c-0.401,0.018-0.542,0.673-0.1,0.741
				c4.571,0.704,9.046,1.859,13.174,4.001c4.162,2.16,7.855,5.192,10.724,8.906c0.201,0.26,0.539,0.493,0.891,0.363
				c0.234-0.087,0.326-0.164,0.472-0.363C229.54,157.932,229.548,157.536,229.393,157.337z"/>
			<path style="fill:#FFD075;" d="M167.824,141.413c-2.962-0.454-6.073-0.433-9.064-0.405c-3.113,0.03-6.223,0.187-9.321,0.49
				c-2.939,0.287-5.845,0.725-8.739,1.314c-1.523,0.31-3.039,0.653-4.547,1.031c-1.389,0.348-3.071,0.634-4.229,1.52
				c-0.148,0.114-0.094,0.319,0.092,0.341c1.304,0.157,2.736-0.309,4.005-0.58c1.447-0.31,2.902-0.589,4.361-0.834
				c3.076-0.517,6.183-0.913,9.288-1.204c2.943-0.276,5.899-0.431,8.855-0.446c3.036-0.015,6.064,0.268,9.094,0.279
				C168.455,142.921,168.7,141.547,167.824,141.413z"/>
			<path style="fill:#FFD075;" d="M83.477,262.776c-3.438,0.197-6.59,0.117-9.841-1.179c-3.294-1.313-6.276-3.389-8.74-5.93
				c-5.401-5.57-7.884-12.863-9.49-20.295c-0.946-4.377-1.285-8.902-2.369-13.241c-0.048-0.192-0.331-0.145-0.337,0.046
				c-0.134,4.15,0.48,8.431,1.135,12.522c0.659,4.111,1.778,8.194,3.402,12.029c2.897,6.839,8.012,12.997,14.922,16.043
				c3.475,1.531,7.765,2.535,11.528,1.555C84.531,264.107,84.381,262.725,83.477,262.776z"/>
			<path style="fill:#FFD075;" d="M262.917,192.43c-0.075-4.075-0.415-8.16-1.259-12.153c-1.338-6.333-4.139-12.468-8.656-17.172
				c-1.196-1.246-2.52-2.357-3.953-3.321c-1.326-0.892-2.897-1.961-4.548-1.999c-0.179-0.004-0.271,0.228-0.146,0.352
				c1.322,1.298,3.189,2.012,4.654,3.156c1.502,1.173,2.879,2.531,4.102,3.992c2.571,3.07,4.474,6.701,5.753,10.485
				c1.537,4.547,2.189,9.329,2.416,14.109c0.117,2.477,0.118,4.959,0.063,7.438c-0.028,1.242-0.07,2.483-0.119,3.724
				c-0.044,1.116-0.264,2.333,0.056,3.415c0.184,0.623,0.978,0.547,1.191,0c0.334-0.856,0.263-1.808,0.298-2.717
				c0.042-1.086,0.08-2.171,0.109-3.257C262.93,196.464,262.953,194.447,262.917,192.43z"/>
		</g>
	</g>
	<g>
		<path style="fill:#D66EC0;" d="M393.155,56.641c-0.009-1.791-0.043-3.675-0.939-5.225c-0.896-1.55-2.775-1.817-4.566-1.827
			c-44-0.248-78.854,1.077-132.286,0.504c-2.833-0.03-6.385,1.298-6.43,4.131c-0.413,25.732-0.826,51.464-1.238,77.195
			c-0.266,0.446-0.522,0.898-0.769,1.346c-2.019,3.65-4.039,7.299-6.058,10.949c-1.228,2.219-4.182,5.744-4.476,8.338
			c-0.357,3.15,2.248,1.415,4.42,0.322c3.065-1.543,5.776-3.713,8.446-5.842c3.777-3.012,7.555-6.023,11.332-9.035
			c40.806-0.511,82.44,1.027,123.135,0.229c2.779,0.704,7.264-0.758,7.536-3.275C391.793,108.651,393.289,82.444,393.155,56.641z"/>
		<g>
			<g>
				<path style="fill:#FFFFFF;" d="M365.818,81.674c0,0-0.004,0-0.005,0c0.271-0.637,0.102-1.289,0.119-1.927
					c0.017-0.667,0.012-1.334,0.023-2.002c0.022-1.334,0.064-2.669,0.088-4.003c0.013-0.751,0.029-1.501,0.022-2.252
					c0-0.043-0.167-0.066-0.347-0.071c-0.069-0.009-0.15-0.016-0.257-0.016c-11.636-0.056-58.079-0.107-69.66-0.089
					c-6.56,0.01-13.125,0.009-19.682,0.051c-0.221,0.001-0.36,0.025-0.418,0.054c-0.165,0.006-0.309,0.027-0.31,0.067
					c-0.079,2.669-0.006,5.338-0.033,8.008c-0.004,0.365,0.004,0.73,0.007,1.095c0.004,0.384-0.078,0.774,0.098,1.158
					c0.02,0.043,0.285,0.05,0.396,0.022c0.027,0.002,0.052,0.004,0.083,0.005c2.881,0.065,29.215,0.159,35.025,0.167
					c11.678,0.016,23.357,0.013,35.033-0.026c6.606-0.022,12.143-0.069,18.749-0.082C365.309,81.832,365.745,81.82,365.818,81.674z"
					/>
			</g>
			<g>
				<path style="fill:#FFFFFF;" d="M365.818,99.77c0,0-0.004,0-0.005,0c0.271-0.637,0.102-1.289,0.119-1.927
					c0.017-0.667,0.012-1.334,0.023-2.002c0.022-1.334,0.064-2.669,0.088-4.003c0.013-0.751,0.029-1.501,0.022-2.252
					c0-0.043-0.167-0.066-0.347-0.071c-0.069-0.009-0.15-0.016-0.257-0.016c-11.636-0.056-58.079-0.107-69.66-0.089
					c-6.56,0.01-13.125,0.009-19.682,0.051c-0.221,0.001-0.36,0.025-0.418,0.055c-0.165,0.006-0.309,0.027-0.31,0.067
					c-0.079,2.669-0.006,5.339-0.033,8.008c-0.004,0.365,0.004,0.73,0.007,1.095c0.004,0.384-0.078,0.774,0.098,1.158
					c0.02,0.043,0.285,0.051,0.396,0.022c0.027,0.002,0.052,0.004,0.083,0.005c2.881,0.065,14.634,0.106,17.595,0.117
					c5.809,0.022,11.619,0.042,17.429,0.05c11.678,0.016,23.357,0.013,35.033-0.026c6.606-0.022,12.143-0.068,18.749-0.082
					C365.309,99.928,365.745,99.916,365.818,99.77z"/>
			</g>
			<g>
				<path style="fill:#FFFFFF;" d="M338.573,117.866c0,0-0.003,0-0.004,0c0.189-0.637,0.072-1.289,0.083-1.927
					c0.012-0.667,0.009-1.334,0.016-2.002c0.015-1.334,0.045-2.669,0.061-4.003c0.009-0.751,0.021-1.501,0.016-2.252
					c0-0.043-0.117-0.066-0.243-0.071c-0.049-0.009-0.105-0.016-0.179-0.016c-8.132-0.056-40.589-0.107-48.682-0.089
					c-4.584,0.01-9.173,0.009-13.755,0.051c-0.154,0.001-0.251,0.025-0.292,0.055c-0.115,0.006-0.216,0.027-0.217,0.067
					c-0.055,2.669-0.004,5.339-0.023,8.007c-0.003,0.365,0.003,0.73,0.005,1.095c0.003,0.385-0.055,0.774,0.069,1.158
					c0.014,0.043,0.199,0.051,0.277,0.022c0.019,0.002,0.036,0.004,0.058,0.005c2.014,0.065,10.227,0.106,12.297,0.117
					c4.06,0.022,8.12,0.042,12.181,0.05c8.161,0.016,16.323,0.013,24.483-0.026c4.616-0.022,8.486-0.068,13.103-0.082
					C338.217,118.024,338.523,118.012,338.573,117.866z"/>
			</g>
		</g>
	</g>
	<g>
		<path style="fill:#D66EC0;" d="M201.511,318.015c0.055-3.131-1.61-6.435-4.737-6.526c-10.973-0.32-21.454-0.515-31.805-0.649
			c0.167-0.605,0.304-1.219,0.428-1.82c2.48-11.986,4.961-23.971,7.441-35.957c-3.711,0.612-6.179,4.118-8.201,7.314
			c-3.783,5.981-7.566,11.961-11.35,17.942c-2.426,3.835-5.82,8.056-8.335,12.323c-26.182-0.203-53.01-0.268-86.323-1.209
			c-1.816-0.051-3.701-0.436-5.206,0.61c-1.505,1.046-2.506,3.651-2.519,5.469c-0.114,15.174-0.269,30.349-0.415,45.523
			c-0.047,4.945-0.094,9.889-0.138,14.834c-0.021,2.409-0.042,4.818-0.062,7.227c-0.015,1.797-0.205,3.598-0.074,5.394
			c0.111,1.517,1.095,1.37,2.421,1.521c1.918,0.219,3.84,0.408,5.763,0.578c4.508,0.398,9.025,0.694,13.544,0.942
			c11.035,0.606,22.085,0.929,33.133,1.157c12.441,0.257,24.885,0.374,37.328,0.424c12.296,0.049,24.591,0.029,36.887-0.025
			c4.312-0.019,8.624-0.042,12.937-0.068c3.46,0.368,7.669-1.565,7.768-5.052C200.659,364.672,201.146,338.89,201.511,318.015z"/>
		<path style="fill:#FFFFFF;" d="M182.259,348.895c-1.325,3.252-2.65,6.504-3.975,9.756c-1.172-3.916-2.343-7.831-3.514-11.747
			c-0.24-0.803-1.615-1.079-1.921,0c-1.289,4.54-2.923,8.98-4.857,13.335c-0.963-4.284-1.928-8.568-2.883-12.854
			c-0.193-0.865-1.528-0.969-1.861,0c-3.113,9.058-5.779,18.209-8.018,27.431c-0.342-2.322-0.707-4.64-1.129-6.941
			c-0.188-1.023-0.398-2.003-0.714-2.969c-0.27-0.828-0.207-1.847-0.523-2.642c-0.48-3.047-0.74-6.255-1.419-9.226
			c-0.732-3.203-1.497-6.396-2.244-9.595c-1.479-6.332-2.954-12.666-4.42-19.003c-0.218-0.943-1.714-0.63-1.937,0.214
			c-3.063,11.552-6.102,23.107-9.135,34.663c-2.374-4.377-4.301-8.915-5.752-13.62c-0.208-0.676-1.644-0.853-1.887,0
			c-1.413,4.946-3.275,9.804-5.583,14.566c-0.654-3.548-1.307-7.097-1.961-10.645c-0.16-0.867-1.495-0.673-1.908,0
			c-2.361,3.85-4.36,7.8-5.998,11.84c-0.832-6.453-1.665-12.905-2.497-19.358c-0.125-0.968-1.781-0.634-1.968,0.217
			c-2.119,9.633-4.238,19.266-6.357,28.899c-2.256-14.228-4.602-28.44-6.821-42.674c-0.132-0.848-1.507-0.53-1.696,0.187
			c-2.611,9.869-5.217,19.738-7.804,29.61c-1.826-4.644-2.921-9.475-3.297-14.455c-0.053-0.698-1.414-0.649-1.654,0
			c-1.516,4.108-2.753,8.255-3.732,12.431c-0.665-3.226-1.33-6.452-1.995-9.679c-0.173-0.837-1.515-0.55-1.707,0.188
			c-1.206,4.638-2.412,9.276-3.597,13.916c-0.23,0.9,1.478,0.887,1.711,0c0.888-3.389,1.76-6.78,2.635-10.171
			c0.695,3.349,1.39,6.698,2.083,10.048c0.166,0.802,1.543,0.574,1.692-0.187c0.83-4.232,1.944-8.429,3.304-12.596
			c0.708,4.625,2.03,9.114,3.957,13.441c0.319,0.716,1.46,0.237,1.616-0.353c2.488-9.358,4.949-18.719,7.411-28.079
			c2.282,14.622,4.451,29.264,6.744,43.884c0.151,0.962,1.782,0.642,1.971-0.217c2.087-9.491,4.174-18.982,6.261-28.473
			c0.759,5.879,1.518,11.757,2.276,17.636c0.101,0.781,1.642,0.775,1.909,0c1.549-4.495,3.543-8.88,5.966-13.15
			c0.672,3.649,1.345,7.299,2.017,10.948c0.153,0.831,1.53,0.716,1.907,0c2.479-4.712,4.507-9.526,6.076-14.43
			c1.624,4.552,3.639,8.972,6.102,13.221c0.446,0.768,1.672,0.323,1.865-0.407c2.928-11.066,5.842-22.133,8.744-33.201
			c2.035,8.68,4.053,17.364,6.07,26.048c0.959,8.606,2.994,16.977,4.215,25.532c0.163,1.14,1.695,0.751,1.922-0.257
			c2.172-9.665,4.845-19.254,7.987-28.744c0.912,4.111,1.821,8.222,2.729,12.334c0.215,0.973,1.47,0.899,1.905,0
			c2.049-4.232,3.76-8.558,5.175-12.971c1.127,3.767,2.254,7.533,3.381,11.3c0.263,0.878,1.51,1.008,1.921,0
			c1.694-4.158,3.388-8.317,5.083-12.475C184.626,348.195,182.758,347.67,182.259,348.895z"/>
	</g>
	<g>
		<path style="fill:#FFBB39;" d="M466.453,195.509c-0.065-2.268-0.367-5.441-2.624-5.663c-23.877-2.353-47.96-2.609-71.881-0.763
			c-1.204,0.093-2.447,0.203-3.507,0.78c-1.06,0.578-1.649,1.969-1.658,3.176c-0.102,14.862-0.204,29.724-0.305,44.586
			c0.059,2.76,6.859,2.44,11.436,2.397c-0.707,0.71-1.366,1.554-2.122,2.417c-1.053,1.201-10.243,14.673-10.236,14.675
			c2.342,0.488,4.6-0.977,6.541-2.376c4.746-3.421,9.466-6.879,14.159-10.373c1.641-1.222,3.327-2.524,4.534-4.142
			c17.203,0.303,34.407,0.606,51.61,0.909c1.178,0.021,2.444,0.016,3.408-0.66C466.773,239.797,466.856,209.548,466.453,195.509z"/>
		<g>
			<g>
				<g>
					<path style="fill:#FFFFFF;" d="M406.202,211.116c-0.279,3.518-0.317,7.054-0.113,10.577c1.323,0.019,2.621,0.035,3.944,0.055
						c0.214-2.054,0.681-4.155,0.895-6.209c4.283-1.044,7.514-5.943,6.858-10.302c-0.656-4.359-4.962-7.847-9.362-7.585
						c-4.401,0.263-8.26,4.238-8.393,8.645c1.604-0.087,3.389-0.006,4.993-0.093c0.126-1.514,0.809-3.041,2.159-3.738
						c1.35-0.697,3.08-0.614,4.336,0.241c1.256,0.856,1.967,2.461,1.719,3.96c-0.239,1.439-1.291,2.655-2.568,3.36
						C409.392,210.731,407.659,211.056,406.202,211.116z"/>
				</g>
				<g>
					<path style="fill:#FFFFFF;" d="M406.56,224.298c-0.385,0.301-0.636,0.753-0.749,1.229c-0.254,1.067,0.215,2.273,1.134,2.872
						c0.919,0.598,2.226,0.533,3.067-0.171c0.841-0.703,1.135-1.994,0.662-2.984c-0.336-0.703-1.042-1.204-1.804-1.338
						C408.201,223.79,407.104,223.873,406.56,224.298z"/>
				</g>
			</g>
			<g>
				<path style="fill:#FFFFFF;" d="M452.056,203.705c0,0-0.001,0-0.002,0c0.085-0.29,0.032-0.587,0.038-0.878
					c0.005-0.304,0.004-0.608,0.007-0.912c0.007-0.608,0.02-1.216,0.028-1.824c0.004-0.342,0.009-0.684,0.007-1.026
					c0-0.02-0.053-0.03-0.109-0.032c-0.022-0.004-0.048-0.007-0.081-0.007c-3.67-0.026-18.315-0.049-21.967-0.04
					c-2.069,0.005-4.139,0.004-6.207,0.023c-0.07,0.001-0.113,0.011-0.132,0.025c-0.052,0.003-0.097,0.012-0.098,0.031
					c-0.025,1.216-0.002,2.433-0.011,3.649c-0.001,0.166,0.001,0.333,0.002,0.499c0.001,0.175-0.025,0.353,0.031,0.528
					c0.006,0.02,0.09,0.023,0.125,0.01c0.008,0.001,0.016,0.002,0.026,0.002c0.909,0.03,9.213,0.072,11.045,0.076
					c3.682,0.007,7.365,0.006,11.048-0.012c2.083-0.01,3.829-0.031,5.912-0.038C451.895,203.777,452.033,203.771,452.056,203.705z"
					/>
			</g>
			<g>
				<path style="fill:#FFFFFF;" d="M445.751,212.458c0,0-0.001,0-0.001,0c0.066-0.29,0.025-0.587,0.029-0.878
					c0.004-0.304,0.003-0.608,0.006-0.912c0.005-0.608,0.016-1.216,0.022-1.824c0.003-0.342,0.007-0.684,0.005-1.026
					c0-0.02-0.041-0.03-0.085-0.032c-0.017-0.004-0.037-0.007-0.063-0.008c-2.858-0.026-14.268-0.049-17.113-0.04
					c-1.611,0.005-3.224,0.004-4.835,0.023c-0.054,0.001-0.088,0.012-0.103,0.025c-0.041,0.003-0.076,0.012-0.076,0.031
					c-0.02,1.216-0.001,2.433-0.008,3.649c-0.001,0.166,0.001,0.333,0.002,0.499c0.001,0.175-0.019,0.353,0.024,0.528
					c0.005,0.02,0.07,0.023,0.097,0.01c0.007,0.001,0.013,0.002,0.02,0.002c0.708,0.03,7.177,0.072,8.604,0.076
					c2.869,0.007,5.738,0.006,8.606-0.012c1.623-0.01,2.983-0.031,4.606-0.038C445.626,212.53,445.734,212.525,445.751,212.458z"/>
			</g>
			<g>
				<path style="fill:#FFFFFF;" d="M452.056,221.212c0,0-0.001,0-0.002,0c0.085-0.29,0.032-0.587,0.038-0.878
					c0.005-0.304,0.004-0.608,0.007-0.912c0.007-0.608,0.02-1.216,0.028-1.824c0.004-0.342,0.009-0.684,0.007-1.026
					c0-0.02-0.053-0.03-0.109-0.032c-0.022-0.004-0.048-0.007-0.081-0.007c-3.67-0.026-18.315-0.049-21.967-0.04
					c-2.069,0.005-4.139,0.004-6.207,0.023c-0.07,0.001-0.113,0.012-0.132,0.025c-0.052,0.003-0.097,0.012-0.098,0.03
					c-0.025,1.216-0.002,2.433-0.011,3.649c-0.001,0.166,0.001,0.332,0.002,0.499c0.001,0.175-0.025,0.353,0.031,0.527
					c0.006,0.02,0.09,0.023,0.125,0.01c0.008,0.001,0.016,0.002,0.026,0.002c0.909,0.03,9.213,0.072,11.045,0.076
					c3.682,0.007,7.365,0.006,11.048-0.012c2.083-0.01,3.829-0.031,5.912-0.038C451.895,221.284,452.033,221.279,452.056,221.212z"
					/>
			</g>
			<g>
				<path style="fill:#FFFFFF;" d="M442.68,229.965c0,0-0.001,0-0.001,0c0.057-0.29,0.022-0.587,0.025-0.878
					c0.004-0.304,0.003-0.608,0.005-0.912c0.005-0.608,0.014-1.216,0.019-1.824c0.003-0.342,0.006-0.684,0.005-1.026
					c0-0.02-0.035-0.03-0.074-0.032c-0.015-0.004-0.032-0.007-0.054-0.007c-2.464-0.026-12.296-0.049-14.748-0.04
					c-1.389,0.005-2.779,0.004-4.167,0.023c-0.047,0.001-0.076,0.012-0.089,0.025c-0.035,0.003-0.065,0.012-0.066,0.03
					c-0.017,1.216-0.001,2.433-0.007,3.649c-0.001,0.166,0.001,0.333,0.002,0.499c0.001,0.175-0.017,0.353,0.021,0.528
					c0.004,0.02,0.06,0.023,0.084,0.01c0.006,0.001,0.011,0.002,0.018,0.002c0.61,0.03,6.185,0.072,7.415,0.076
					c2.472,0.007,4.945,0.006,7.417-0.012c1.398-0.01,2.571-0.031,3.969-0.038C442.572,230.037,442.665,230.032,442.68,229.965z"/>
			</g>
		</g>
	</g>
	<path style="fill:#7991D1;" d="M351.421,160.17c-3.435-7.401-11.648-11.622-19.697-10.542c-6.174,0.828-11.418,5.084-14.1,10.604
		c-0.043,0.061-0.077,0.127-0.095,0.199c-0.727,1.539-1.266,3.168-1.559,4.852c-0.985,5.673,1.006,11.946,4.965,16.232
		c-0.09,0.116,2.01,2.041,3.098,2.673c1.387,0.918,4.866,2.035,4.971,1.943c5.774,1.333,12.22,0.007,16.931-3.611
		C352.626,177.381,354.989,167.858,351.421,160.17z M348.246,158.395c0.215,0.318,0.415,0.646,0.606,0.979
		c-0.631-0.131-1.276-0.22-1.876-0.346c-0.993-0.209-2.008-0.382-3.02-0.533c-0.374-1.761-0.871-3.497-1.501-5.187
		C344.76,154.514,346.782,156.231,348.246,158.395z M333.821,176.892c-2.536-0.016-5.065-0.132-7.593-0.326
		c-0.691-2.293-1.135-4.654-1.265-7.124c3.028,0.036,6.06,0.004,9.074,0.02c0,2.477-0.039,4.953-0.129,7.43
		C333.88,176.891,333.85,176.892,333.821,176.892z M335.347,168.074c0.063-2.965,0.085-5.951-0.017-8.914
		c2.381,0.021,4.78,0.143,7.132,0.473c0.151,0.021,0.301,0.044,0.452,0.065c0.52,2.741,0.729,5.538,0.609,8.344
		C340.799,168.088,338.072,168.061,335.347,168.074z M343.449,169.383c-0.007,0.083-0.007,0.167-0.014,0.25
		c-0.204,2.36-0.647,4.692-1.298,6.967c-2.346,0.17-4.698,0.257-7.053,0.273c0.092-2.47,0.163-4.942,0.222-7.413
		C338.019,169.471,340.737,169.405,343.449,169.383z M340.762,152.532c0.792,1.877,1.412,3.81,1.867,5.779
		c-2.434-0.302-4.882-0.473-7.333-0.521c-0.027-1.141-0.048-2.281-0.096-3.422c-0.038-0.897,0.07-2.064-0.09-3.069
		C337.041,151.401,338.962,151.821,340.762,152.532z M334.044,168.071c-3.043,0.008-6.09-0.073-9.136-0.126
		c0-0.013-0.001-0.026-0.001-0.04c-0.001-2.809,0.46-5.561,1.245-8.253c2.586-0.314,5.175-0.476,7.779-0.497
		C333.993,162.127,334.025,165.098,334.044,168.071z M333.602,151.285c-0.067,0.945,0.125,1.987,0.152,2.861
		c0.036,1.211,0.093,2.42,0.135,3.63c-2.421,0.005-4.854,0.159-7.258,0.447c0.77-2.144,1.793-4.181,2.763-6.242
		C330.756,151.56,332.172,151.335,333.602,151.285z M327.957,152.496c-1.267,1.767-2.207,3.796-2.902,5.922
		c-1.727,0.233-3.447,0.509-5.123,0.963C321.839,156.354,324.633,153.885,327.957,152.496z M319.107,160.813
		c1.838-0.288,3.664-0.65,5.502-0.939c-0.696,2.601-1.039,5.3-1.114,7.837c-0.002,0.071,0.004,0.144,0.002,0.215
		c-2.091-0.027-4.181-0.038-6.267,0.023C317.318,165.454,317.984,163.018,319.107,160.813z M323.511,169.421
		c0.069,2.324,0.426,4.696,1.04,6.998c-0.875-0.08-1.749-0.156-2.622-0.252c-0.938-0.103-1.97-0.322-2.947-0.282
		c-1.032-2.065-1.664-4.335-1.755-6.763C319.313,169.291,321.41,169.378,323.511,169.421z M324.945,182.917
		c-2.141-1.625-3.981-3.611-5.33-5.877c0.603,0.123,1.227,0.183,1.805,0.26c1.165,0.155,2.334,0.278,3.504,0.388
		c0.679,2.16,1.587,4.238,2.744,6.119C326.749,183.551,325.84,183.254,324.945,182.917z M333.591,184.696
		c-1.359-0.009-2.706-0.17-4.035-0.437c-0.004-0.008-0.004-0.016-0.008-0.025c-1.18-2.098-2.155-4.227-2.91-6.412
		c2.39,0.181,4.789,0.293,7.184,0.309c0.013,0,0.027-0.001,0.04-0.001c-0.051,1.252-0.107,2.505-0.159,3.757
		C333.667,182.756,333.524,183.762,333.591,184.696z M339.129,183.876c-1.204,0.368-2.445,0.629-3.712,0.751
		c-0.259,0.025-0.518,0.031-0.776,0.044c0.151-0.852,0.135-1.785,0.19-2.562c0.093-1.329,0.154-2.661,0.208-3.993
		c2.236-0.01,4.473-0.076,6.704-0.229c-0.051,0.156-0.091,0.314-0.144,0.469c-0.471,1.389-1.028,2.747-1.672,4.064
		C339.741,182.8,339.39,183.331,339.129,183.876z M346.971,179.076c-1.764,1.856-3.894,3.266-6.218,4.219
		c0.081-0.175,0.158-0.34,0.223-0.471c0.669-1.346,1.252-2.738,1.75-4.156c0.103-0.292,0.184-0.591,0.279-0.885
		c1.831-0.149,3.656-0.358,5.475-0.617C348.032,177.838,347.536,178.481,346.971,179.076z M349.244,175.887
		c-1.941,0.242-3.885,0.442-5.833,0.603c0.628-2.24,1.04-4.543,1.242-6.856c0.008-0.09,0.008-0.181,0.015-0.271
		c1.095-0.017,2.191-0.036,3.286-0.058c0.928-0.018,2.126,0.15,3.124-0.04C350.925,171.578,350.319,173.85,349.244,175.887z
		 M348.179,167.977c-1.145,0.023-2.29,0.033-3.435,0.049c0.121-2.724-0.062-5.456-0.526-8.139c0.806,0.12,1.61,0.247,2.413,0.396
		c0.976,0.181,1.999,0.539,3.008,0.669c0.95,2.172,1.454,4.56,1.477,6.954C350.171,167.759,349.072,167.959,348.179,167.977z"/>
	<g>
		<path style="fill:#4C5980;" d="M207.451,65.095c-0.423-0.839-0.928-1.624-1.478-2.374c0.514-1.84,1.216-4.367,1.273-4.636
			c0.09-0.428,1.225-2.578,1.051-2.924c-0.174-0.346-6.945-4.926-7.445-4.885c-0.391,0.032-4.365,3.725-6.079,5.334
			c-2.292-0.466-4.634-0.495-6.917-0.14c-1.321-1.565-5.179-6.11-5.561-6.255c-0.462-0.174-7.47,3.556-7.953,4.005
			c-0.483,0.448,0.862,3.796,1.11,5.048c0.127,0.64,0.415,2.037,0.688,3.332c-0.356,0.38-0.698,0.774-1.024,1.184
			c-1.011,1.27-1.825,2.672-2.462,4.152c-2.405,0.48-8.286,1.666-8.509,1.824c-0.28,0.199-0.054,0.504-0.022,0.871
			c0.032,0.366-0.29,5.346-0.35,5.987c-0.059,0.642-0.118,1.589-0.137,2.032c-0.014,0.329,5.372,1.978,8.152,2.807
			c0.469,1.691,1.146,3.325,2.057,4.839c0.244,0.406,0.511,0.803,0.794,1.193c-0.902,2.558-2.581,7.407-2.445,7.675
			c0.184,0.366,0.949,0.669,0.949,0.669s5.906,4.137,6.181,4.075c0.275-0.062,0.336,0.06,0.61-0.154
			c0.246-0.193,4.413-3.836,5.35-4.844c2.407,0.717,4.907,0.946,7.302,0.542c1.768,1.993,5.214,5.836,5.411,5.746
			c0.266-0.121,0.998-0.49,0.998-0.49s6.957-3.222,6.955-3.515c-0.003-0.292-0.096-1.086-0.096-1.086l-1.619-6.738
			c1.62-1.737,2.761-3.769,3.543-5.986c1.463-0.312,3.233-0.676,3.903-0.761c1.018-0.13,4.266-0.58,4.468-0.968
			c0.201-0.389,0.231-0.785,0.231-0.785l0.278-8.104l-0.179-0.356c0,0-5.418-1.658-7.663-2.295
			C208.529,67.735,208.102,66.385,207.451,65.095z M197.404,80.276c-1.619,2.075-4.376,3.406-7.066,3.415
			c-1.794,0.25-3.872-0.566-5.261-1.536c-1.923-1.342-3.227-3.423-3.652-5.726c-0.757-4.091,1.435-8.162,5.203-9.893
			c3.737-1.717,8.269-0.519,10.799,2.702C199.908,72.398,199.875,77.109,197.404,80.276z"/>
		<path style="fill:#7991D1;" d="M157.202,52.174c-0.367-0.535-0.786-1.025-1.232-1.488c0.181-1.307,0.427-3.102,0.441-3.291
			c0.022-0.301,0.599-1.878,0.448-2.099c-0.151-0.221-5.21-2.728-5.548-2.653c-0.265,0.058-2.642,2.954-3.666,4.214
			c-1.612-0.106-3.218,0.091-4.747,0.545c-1.049-0.949-4.111-3.702-4.386-3.765c-0.332-0.076-4.783,3.127-5.072,3.478
			c-0.289,0.352,0.942,2.518,1.228,3.352c0.146,0.426,0.473,1.356,0.78,2.217c-0.209,0.293-0.406,0.595-0.591,0.906
			c-0.574,0.963-1.001,1.998-1.3,3.07c-1.602,0.552-5.517,1.909-5.655,2.037c-0.173,0.162,0.01,0.35,0.066,0.598
			c0.055,0.248,0.297,3.686,0.316,4.13c0.019,0.445,0.067,1.098,0.095,1.403c0.021,0.227,3.86,0.856,5.839,1.166
			c0.478,1.114,1.092,2.17,1.857,3.121c0.205,0.255,0.424,0.502,0.654,0.743c-0.38,1.835-1.079,5.309-0.962,5.48
			c0.16,0.233,0.711,0.37,0.711,0.37s4.426,2.284,4.608,2.216c0.182-0.068,0.236,0.01,0.404-0.162
			c0.151-0.155,2.665-3.035,3.213-3.812c1.714,0.267,3.446,0.192,5.048-0.306c1.395,1.2,4.11,3.511,4.236,3.432
			c0.171-0.108,0.638-0.428,0.638-0.428s4.463-2.851,4.435-3.05c-0.029-0.2-0.167-0.735-0.167-0.735l-1.733-4.462
			c0.948-1.339,1.54-2.836,1.87-4.426c0.973-0.349,2.15-0.762,2.6-0.883c0.685-0.183,2.866-0.793,2.968-1.077
			c0.102-0.285,0.085-0.559,0.085-0.559l-0.561-5.573l-0.156-0.227c0,0-3.862-0.632-5.457-0.86
			C158.185,53.881,157.768,52.997,157.202,52.174z M151.734,63.496c-0.916,1.57-2.679,2.737-4.52,2.993
			c-1.205,0.337-2.703-0.029-3.743-0.563c-1.441-0.74-2.526-2.044-3.031-3.581c-0.897-2.73,0.225-5.719,2.644-7.253
			c2.398-1.521,5.611-1.122,7.642,0.848C152.717,57.871,153.132,61.099,151.734,63.496z"/>
	</g>
	<g>
		<g>
			<path style="fill:#7991D1;" d="M448.375,273.416c-0.03-0.294-0.058-0.587-0.091-0.881c-0.004-0.031-0.073-0.056-0.165-0.078
				c-0.087-0.048-0.316-0.09-0.69-0.103c-1.693-0.061-3.517-0.053-5.238-0.068c-1.655-0.014-3.311-0.028-4.966-0.04
				c-3.501-0.027-7.003-0.053-10.505-0.076c-3.438-0.023-6.876-0.045-10.314-0.065c-3.492-0.02-7.029-0.059-10.504-0.03
				c-0.114,0.001-0.207,0.006-0.299,0.01c-0.01,0-0.021,0-0.032,0c0.069,1.978,0.113,3.958,0.122,5.937
				c0.103,0.026,0.264,0.047,0.503,0.053c3.354,0.089,6.83,0.079,10.21,0.097c3.516,0.019,7.033,0.032,10.548,0.048
				c3.452,0.016,6.905,0.032,10.357,0.047c1.726,0.007,3.452,0.015,5.178,0.022c1.732,0.007,3.578,0.041,5.282,0.006
				c0.051-0.001,0.088-0.005,0.133-0.007c0.146-0.003,0.281-0.012,0.387-0.026c0.057-0.919,0.08-1.839,0.027-2.749
				C448.279,274.81,448.321,274.112,448.375,273.416z"/>
			<path style="fill:#7991D1;" d="M429.241,284.958c-0.016-0.293-0.031-0.587-0.048-0.88c-0.002-0.031-0.04-0.056-0.091-0.077
				c-0.048-0.048-0.174-0.089-0.382-0.102c-0.936-0.057-1.945-0.045-2.897-0.056c-0.915-0.011-1.831-0.02-2.746-0.029
				c-1.936-0.019-3.873-0.037-5.809-0.053c-1.901-0.016-3.803-0.03-5.704-0.042c-1.932-0.012-3.887-0.044-5.81-0.007
				c-0.063,0.001-0.114,0.006-0.166,0.011c-0.006,0-0.012,0-0.017,0c0.034,1.978,0.054,3.957,0.054,5.936
				c0.057,0.026,0.146,0.046,0.278,0.052c1.855,0.082,3.777,0.064,5.647,0.074c1.945,0.011,3.889,0.016,5.834,0.024
				c1.909,0.008,3.819,0.016,5.728,0.023c0.955,0.004,1.909,0.007,2.864,0.011c0.958,0.004,1.979,0.033,2.921-0.006
				c0.028-0.001,0.048-0.005,0.074-0.007c0.081-0.004,0.156-0.013,0.214-0.027c0.033-0.919,0.048-1.839,0.021-2.749
				C429.184,286.352,429.209,285.654,429.241,284.958z"/>
			<path style="fill:#7991D1;" d="M440.615,296.656c-0.024-0.293-0.047-0.587-0.073-0.881c-0.003-0.031-0.059-0.056-0.135-0.077
				c-0.071-0.047-0.259-0.09-0.565-0.103c-1.386-0.059-2.879-0.05-4.289-0.063c-1.355-0.013-2.711-0.025-4.066-0.036
				c-2.867-0.024-5.734-0.046-8.6-0.067c-2.815-0.02-5.63-0.039-8.444-0.056c-2.859-0.017-5.755-0.053-8.6-0.021
				c-0.093,0.001-0.169,0.006-0.245,0.01c-0.009,0-0.017,0-0.026,0c0.055,1.978,0.089,3.958,0.094,5.937
				c0.084,0.026,0.216,0.047,0.412,0.053c2.746,0.086,5.592,0.073,8.359,0.088c2.879,0.015,5.758,0.026,8.636,0.038
				c2.827,0.013,5.653,0.025,8.479,0.037c1.413,0.006,2.826,0.012,4.24,0.018c1.418,0.006,2.93,0.038,4.324,0.001
				c0.042-0.001,0.072-0.005,0.109-0.007c0.12-0.003,0.23-0.012,0.317-0.026c0.047-0.919,0.067-1.839,0.025-2.749
				C440.535,298.05,440.57,297.352,440.615,296.656z"/>
		</g>
		<g>
			<path style="fill:#7991D1;" d="M186.912,412.419c0.016-0.293,0.031-0.587,0.048-0.88c0.002-0.031,0.04-0.056,0.091-0.077
				c0.048-0.048,0.174-0.089,0.382-0.102c0.936-0.057,1.945-0.045,2.897-0.056c0.915-0.011,1.831-0.02,2.746-0.029
				c1.936-0.019,3.873-0.037,5.809-0.053c1.901-0.016,3.803-0.03,5.704-0.042c1.932-0.012,3.887-0.043,5.809-0.007
				c0.063,0.001,0.114,0.006,0.166,0.011c0.006,0,0.012,0,0.018,0c-0.034,1.978-0.054,3.958-0.054,5.937
				c-0.057,0.026-0.146,0.046-0.278,0.052c-1.855,0.082-3.777,0.064-5.647,0.074c-1.945,0.011-3.889,0.016-5.834,0.024
				c-1.909,0.008-3.818,0.016-5.728,0.023c-0.955,0.004-1.909,0.007-2.864,0.011c-0.958,0.004-1.979,0.033-2.921-0.006
				c-0.028-0.001-0.048-0.005-0.074-0.007c-0.081-0.004-0.156-0.013-0.214-0.027c-0.033-0.919-0.048-1.839-0.021-2.749
				C186.968,413.814,186.943,413.116,186.912,412.419z"/>
			<path style="fill:#7991D1;" d="M175.537,424.117c0.024-0.294,0.047-0.587,0.073-0.881c0.003-0.031,0.059-0.056,0.135-0.077
				c0.071-0.048,0.258-0.09,0.565-0.103c1.386-0.059,2.88-0.05,4.289-0.063c1.355-0.013,2.711-0.025,4.066-0.036
				c2.867-0.024,5.734-0.046,8.601-0.067c2.815-0.02,5.63-0.039,8.444-0.056c2.859-0.017,5.755-0.053,8.6-0.021
				c0.093,0.001,0.169,0.006,0.245,0.01c0.009,0,0.017,0,0.026,0c-0.055,1.978-0.089,3.958-0.094,5.937
				c-0.084,0.026-0.216,0.047-0.412,0.053c-2.746,0.086-5.592,0.073-8.359,0.088c-2.879,0.015-5.758,0.026-8.636,0.038
				c-2.827,0.013-5.653,0.025-8.48,0.037c-1.413,0.006-2.826,0.012-4.24,0.018c-1.418,0.006-2.93,0.038-4.325,0.001
				c-0.042-0.001-0.072-0.005-0.109-0.007c-0.12-0.003-0.23-0.012-0.317-0.026c-0.047-0.919-0.067-1.839-0.025-2.749
				C175.618,425.511,175.583,424.814,175.537,424.117z"/>
		</g>
	</g>
	<g>
		<g>
			<path style="fill:#FFFFFF;" d="M270.085,349.362c-0.205,1.399-0.407,2.844-0.044,4.21c0.577,2.172,2.519,3.769,4.633,4.531
				c2.114,0.763,4.405,0.826,6.652,0.881c2.793,0.068,6.159-0.175,7.491-2.63c0.658-1.213,0.613-2.671,0.55-4.05
				c-0.338-7.422-0.676-14.844-1.013-22.267c-0.115-2.519-0.257-5.141-1.476-7.349c-1.677-3.037-4.954-4.556-8.118-5.567
				c-1.274-0.407-2.921-1.261-3.905-0.146c-0.908,1.03-0.753,4.943-0.959,6.351C272.625,332.005,271.355,340.684,270.085,349.362z"
				/>
			<path style="fill:#B345B5;" d="M304.617,273.178c-3.563-0.523-7.201,0.902-10.031,3.13c-2.83,2.228-4.97,5.2-6.968,8.197
				c-6.415,9.622-11.784,19.942-15.982,30.718c3.368,4.015,8.109,6.933,13.254,7.929c1.574,0.305,3.321,0.414,4.666-0.458
				c1.399-0.906,1.998-2.621,2.474-4.217C296.532,303.375,298.308,287.619,304.617,273.178z"/>
			<path style="fill:#313B59;" d="M302.315,420.921c10.06,4.422,20.572,8.934,31.55,8.442c8.223-0.368,16.045-3.536,23.517-6.99
				c9.668-4.47,19.069-9.491,28.463-14.509c7.931-4.237,16.004-8.578,22.247-15.049c1.625-1.684,3.206-3.782,2.969-6.111
				c-0.272-2.679-2.823-4.509-5.286-5.596c-9.096-4.016-19.532-2.801-29.406-1.628c-20.675,2.455-43.802,14.821-62.549,5.766
				c-18.651-9.008-39.433-12.924-60.119-13.988c-4.309-0.222-8.831-0.281-12.686,1.658c-3.67,1.846-6.305,5.337-7.901,9.122
				c-1.476,3.501-2.163,7.332-1.995,11.128c5.663,1.508,11.428,3.809,17.09,5.317c7.795,2.076,15.601,4.156,23.185,6.906
				C282.054,409.255,291.934,416.358,302.315,420.921z"/>
			<path style="fill:#B345B5;" d="M366.179,282.472c-0.543,22.83-1.229,45.923-1.131,68.759c0.024,5.625,0.044,11.298-1.084,16.808
				c-1.128,5.511-3.504,10.919-7.619,14.754c-3.992,3.72-9.349,5.708-14.745,6.524c-5.395,0.815-10.888,0.544-16.338,0.272
				c-4.852-0.243-9.738-0.491-14.458-1.638c-4.72-1.147-9.318-3.264-12.69-6.761c-3.793-3.935-5.32-9.635-6.904-14.866
				c-3.62-11.953-6.293-23.749-8.931-35.957c-1.321-6.114,0.634-12.408,2.568-18.357c3.572-10.992,6.03-22.553,11.37-32.803
				c1.288-2.471,2.847-5.175,5.523-5.953c1.92-0.558,3.962,0.028,5.892,0.548c6.208,1.672,12.595,2.674,19.017,2.983
				c11.778,0.568,23.706-0.353,35.071,2.791C363.509,280.071,366.223,280.617,366.179,282.472z"/>
			<path style="fill:#B345B5;" d="M386.567,328.267c-2.875-10.052-5.749-20.104-8.624-30.156c-1.05-3.671-2.124-7.398-4.149-10.635
				c-2.025-3.237-5.166-5.977-8.929-6.624c-2.877,0.827-5.169,3.297-6.383,6.033c-1.215,2.736-1.572,5.767-1.808,8.751
				c-0.844,10.671-0.319,21.44,1.396,32.007c0.244,1.501,0.557,3.092,1.605,4.194c1.199,1.26,3.064,1.577,4.795,1.751
				c3.871,0.388,7.779,0.405,11.654,0.048c2.125-0.195,4.274-0.512,6.215-1.399C384.279,331.351,385.852,330.278,386.567,328.267z"
				/>
			<path style="fill:#FFFFFF;" d="M326.649,276.785c-3.556-0.171-7.099-0.563-10.609-1.155c-1.413,2.676-2.736,5.434-3.156,8.418
				c-0.477,3.388,0.441,7.184,3.152,9.271c2.218,1.708,5.217,2.001,8.01,1.809c5.755-0.395,11.371-2.611,15.845-6.253
				c3.706-3.017,6.596-7.009,8.368-11.446C341.108,276.926,333.851,277.132,326.649,276.785z"/>
			<path style="fill:#EBA7DC;" d="M297.934,275.634c-3.467,6.831-6.517,13.872-9.098,21.085c-1.311,3.662-2.519,7.365-3.57,11.109
				c-0.526,1.873-1.021,3.754-1.485,5.643c-0.422,1.718-0.983,3.551-1.05,5.325c-0.005,0.14,0.179,0.14,0.225,0.03
				c0.736-1.765,1.053-3.777,1.532-5.626c0.45-1.738,0.927-3.469,1.429-5.193c1.068-3.664,2.218-7.301,3.497-10.897
				c2.574-7.235,5.618-14.294,9.093-21.142C298.699,275.589,298.127,275.253,297.934,275.634z"/>
			<path style="fill:#FFFFFF;" d="M270.885,348.949c-1.319,2.205-1.344,4.994-0.647,7.467c0.697,2.473,2.046,4.703,3.38,6.898
				c2.121,3.491,4.242,6.982,6.363,10.472c2.631,4.331,5.276,8.68,8.534,12.561c3.258,3.881,7.179,7.307,11.815,9.353
				c2.051,0.906,4.547-1.308,5.349-3.402c0.802-2.094,0.436-4.486-0.46-6.542c-0.897-2.055-2.283-3.851-3.593-5.67
				c-3.044-4.226-5.746-8.697-8.073-13.356c-1.573-3.149-2.979-6.392-4.84-9.38c-1.861-2.988-4.231-5.749-7.296-7.48
				C278.352,348.14,274.14,347.608,270.885,348.949z"/>
			<path style="fill:#EBA7DC;" d="M356.328,305.262c0.023-1.957,0.089-3.915,0.22-5.868c0.131-1.944,0.484-3.899,0.543-5.842
				c0.01-0.333-0.506-0.407-0.584-0.079c-0.454,1.905-0.522,3.971-0.658,5.921c-0.136,1.954-0.208,3.91-0.194,5.868
				c0.029,3.813-0.008,8.032,1.033,11.729c0.018,0.062,0.111,0.049,0.112-0.015c0.036-1.94-0.24-3.906-0.346-5.844
				C356.347,309.177,356.305,307.219,356.328,305.262z"/>
		</g>
		<g>
			<path style="fill:#FFFFFF;" d="M421.092,365.686c0.077,0.264,0.145,0.556,0.03,0.806c-0.101,0.22-0.326,0.358-0.555,0.435
				c-0.851,0.282-1.83-0.184-2.314-0.938c-0.484-0.754-0.537-1.722-0.34-2.596c0.098-0.433,0.322-1.503,0.686-1.794
				c0.572-0.459,0.584-0.125,0.996,0.575C420.239,363.27,420.738,364.464,421.092,365.686z"/>
			<path style="fill:#A1B0BA;" d="M408.645,398.087c8.332-24.674,13.824-50.001,22.262-74.638c0.335-0.979-0.438-2.214-1.473-2.194
				c-36.333,0.694-71.041,2.017-109.014,0.878c-0.934-0.028-1.767,0.31-2.021,1.209c-7.548,26.714-15.52,53.309-23.911,79.771
				C333.455,403.187,370.107,401.108,408.645,398.087z"/>
			<path style="fill:#BFCAD4;" d="M319.533,325.23c0.254-0.899,1.087-1.237,2.021-1.209c37.973,1.139,72.681-0.185,109.014-0.878
				c0.135-0.002,0.265,0.018,0.389,0.055c0.144-0.927-0.574-1.962-1.523-1.944c-36.333,0.694-71.041,2.017-109.014,0.878
				c-0.934-0.028-1.767,0.31-2.021,1.209c-7.548,26.714-15.52,53.309-23.911,79.77c0.58,0.001,1.148-0.009,1.727-0.008
				C304.387,377.267,312.165,351.307,319.533,325.23z"/>
			<path style="fill:#FFFFFF;" d="M360.99,357.962c-1.398,2.666-1.404,6.215,0.589,8.471c1.738,1.967,4.712,2.586,7.226,1.83
				s4.551-2.721,5.777-5.042c1.348-2.553,1.754-5.768,0.377-8.306C371.487,348.514,363.419,353.328,360.99,357.962z"/>
			<path style="fill:#FFFFFF;" d="M411.293,374.873c0.044-2.418,0.325-4.832,0.837-7.196c0.24-1.107,1.091-2.198,2.018-2.849
				c0.927-0.651,2.04-0.995,3.161-1.162c1.027-0.153,2.173-0.134,2.976,0.525c0.609,0.499,0.914,1.295,0.984,2.079
				c0.07,0.784-0.068,1.571-0.205,2.346c-0.241,1.357-0.502,2.765-1.308,3.882c-0.878,1.217-2.29,1.93-3.704,2.432
				c-1.414,0.502-2.894,0.845-4.222,1.544C411.448,375.845,411.28,375.61,411.293,374.873z"/>
		</g>
		<g>
			<path style="fill:#EB9921;" d="M323.507,422.676c3.07-0.162,6.093-1.153,8.662-2.841c2.712-1.782,6.531-0.326,8.599,2.175
				c5.65,6.833,12.346,12.428,19.553,17.593c2.112,1.514,4.311,2.974,5.972,4.972c1.661,1.998,2.734,4.672,2.157,7.206
				c-1.408,6.181-11.071,6.624-16.942,4.233c-4.521-1.841-7.846-5.712-11.781-8.601c-5.123-3.76-11.295-5.846-17.516-7.145
				C322.042,434.538,322.837,428.368,323.507,422.676z"/>
			<path style="fill:#FFD075;" d="M360.321,439.603c-7.206-5.166-13.903-10.76-19.553-17.593c-2.046-2.474-5.803-3.92-8.509-2.226
				c2.431,0.812,4.503,2.006,6.392,4.073c2.472,2.705,4.272,5.965,6.718,8.694c2.813,3.138,6.387,5.474,9.882,7.828
				c1.42,0.956,2.84,1.933,4.204,2.973c-3.692,2.223-6.473,5.963-7.425,10.175c-0.189,0.836-0.29,1.722-0.255,2.585
				c5.892,2.274,15.287,1.76,16.674-4.33c0.577-2.533-0.496-5.208-2.157-7.206C364.632,442.578,362.432,441.117,360.321,439.603z"/>
			<path style="fill:#313B59;" d="M322.492,440.384c3.435-4.125,4.418-12.045,3.217-17.361
				c-10.592-9.277-21.048-14.57-32.495-23.049c-13.445-9.958-27.45-20.42-43.457-25.292c-2.796-0.851-5.772-1.594-8.611-0.9
				c-3.18,0.777-5.7,3.273-7.375,6.085c-2.766,4.641-3.597,10.395-2.257,15.629c3.754,14.661,22.709,20.854,36.384,27.339
				c13.674,6.485,26.815,11.059,41.293,15.466c3.049,0.928,6.125,1.862,9.3,2.143C319.817,440.561,321.167,440.547,322.492,440.384z
				"/>
			<path style="fill:#FFFFFF;" d="M345.935,443.815c-1.003,0.79-1.796,1.959-2.325,3.113c-0.267,0.582-0.49,1.184-0.654,1.802
				c-0.083,0.315-0.152,0.634-0.206,0.955c-0.057,0.344-0.182,0.725,0.092,1c0.114,0.114,0.318,0.149,0.457,0.059
				c0.304-0.196,0.28-0.494,0.333-0.816c0.048-0.288,0.108-0.573,0.18-0.856c0.151-0.593,0.352-1.175,0.61-1.73
				c0.523-1.127,1.224-2.081,1.998-3.043C346.699,443.953,346.282,443.541,345.935,443.815z"/>
			<path style="fill:#FFFFFF;" d="M341.819,441.187c-0.022-0.1-0.132-0.148-0.225-0.128c-0.235,0.05-0.379,0.281-0.502,0.473
				c-0.154,0.239-0.295,0.488-0.431,0.737c-0.279,0.511-0.525,1.039-0.745,1.579c-0.215,0.529-0.398,1.068-0.542,1.621
				c-0.071,0.276-0.135,0.553-0.19,0.833c-0.056,0.281-0.156,0.611-0.119,0.896c0.04,0.311,0.527,0.573,0.692,0.187
				c0.112-0.261,0.13-0.541,0.181-0.82c0.051-0.28,0.111-0.559,0.179-0.836c0.131-0.535,0.287-1.066,0.469-1.586
				c0.184-0.526,0.399-1.04,0.645-1.541c0.126-0.256,0.265-0.504,0.399-0.756C341.741,441.639,341.873,441.426,341.819,441.187z"/>
			<path style="fill:#FFFFFF;" d="M338.01,439.297c-0.458,0.191-0.783,0.726-1.073,1.117c-0.351,0.474-0.607,1.002-0.836,1.544
				c-0.222,0.526-0.408,1.066-0.547,1.62c-0.135,0.536-0.334,1.202-0.234,1.753c0.076,0.416,0.628,0.32,0.75,0
				c0.091-0.239,0.086-0.515,0.124-0.768c0.039-0.258,0.089-0.514,0.147-0.768c0.12-0.523,0.28-1.038,0.476-1.538
				c0.191-0.485,0.437-0.945,0.663-1.414c0.113-0.234,0.235-0.465,0.365-0.691c0.133-0.23,0.287-0.424,0.335-0.688
				C338.195,439.377,338.116,439.253,338.01,439.297z"/>
			<path style="fill:#7991D1;" d="M292.366,399.116c-12.568-10.153-26.756-18.945-41.894-24.699c-0.264-0.1-0.455,0.345-0.194,0.46
				c7.355,3.256,14.588,6.711,21.517,10.81c7.016,4.151,13.718,8.818,20.054,13.947
				C292.212,399.928,292.733,399.412,292.366,399.116z"/>
			<path style="fill:#7991D1;" d="M324.223,421.148c-4.1-3.203-8.283-6.313-12.59-9.234c-2.141-1.452-4.306-2.867-6.492-4.249
				c-2.143-1.356-4.377-2.969-6.739-3.91c-0.116-0.046-0.216,0.132-0.122,0.21c1.842,1.546,4.117,2.73,6.139,4.032
				c2.176,1.401,4.33,2.836,6.461,4.304c4.362,3.006,8.657,6.099,12.842,9.348C324.077,421.926,324.583,421.429,324.223,421.148z"/>
		</g>
		<g>
			<path style="fill:#EB9921;" d="M336.478,428.664c-3.877,0.002-7.753-0.635-11.425-1.875c-2.074-0.701-4.5-0.82-6.517,0.031
				c-2.017,0.851-3.713,2.312-5.273,3.847c-1.561,1.536-3.032,3.177-4.772,4.505c-2.204,1.684-4.771,2.814-7.294,3.967
				c-2.522,1.153-5.062,2.368-7.159,4.184c-2.097,1.816-3.732,4.33-3.91,7.098c-0.05,0.773,0.315,1.513,0.742,2.159
				c2.04,3.09,6.843,2.796,10.529,2.442c3.685-0.354,7.197-1.746,10.495-3.429c3.298-1.683,6.435-3.669,9.742-5.333
				c4.686-2.358,9.702-4.058,14.856-5.035C336.304,437.195,336.666,432.693,336.478,428.664z"/>
			<path style="fill:#313B59;" d="M351.466,441.539c12.153-0.611,23.216-4.724,34.456-9.387c11.24-4.663,21.852-10.708,32.23-17.061
				c5.907-3.616,11.814-7.38,16.047-12.862c3.418-4.426,6.555-9.197,8.957-14.247c1.509-3.173,1.227-6.964,0.02-10.263
				c-1.208-3.299-2.016-7.075-5.138-8.687c-3.82-1.973-8.427-3.78-12.375-2.076c-16.734,7.224-30.664,19.528-44.446,31.455
				c-13.783,11.928-28.1,23.9-45.19,30.236c-1.871,3.339-1.483,9.453,0.199,12.891C341.337,442.435,346.284,441.799,351.466,441.539
				z"/>
			<path style="fill:#7991D1;" d="M415.038,371.848c-19.564,11.552-34.951,28.598-53.203,41.92
				c-5.126,3.742-10.496,7.139-16.106,10.109c-0.288,0.153-0.035,0.576,0.254,0.435c20.289-9.932,35.949-26.96,53.545-40.708
				c5.094-3.98,10.382-7.714,15.96-10.985C415.984,372.328,415.534,371.555,415.038,371.848z"/>
			<path style="fill:#FFD075;" d="M308.746,438.135c3.689-2.431,6.724-5.681,10.159-8.432c0.57-0.457,3.097-1.924,4.447-3.337
				c-1.624-0.27-3.33-0.173-4.816,0.453c-2.017,0.851-3.713,2.312-5.273,3.847c-1.561,1.536-3.032,3.177-4.772,4.505
				c-2.204,1.683-4.771,2.814-7.294,3.967c-2.522,1.153-5.062,2.368-7.159,4.184c-2.097,1.816-3.732,4.33-3.91,7.098
				c-0.05,0.773,0.315,1.513,0.742,2.159c2.04,3.09,6.843,2.796,10.529,2.442c0.04-0.004,0.079-0.012,0.119-0.016
				c0.351-3.372-0.275-6.895-2.476-9.42c-0.405-0.465-0.855-0.884-1.338-1.262c0.865-0.591,1.765-1.135,2.678-1.639
				C303.161,441.15,306.094,439.883,308.746,438.135z"/>
			<path style="fill:#FFFFFF;" d="M311.663,447.974c-0.18-0.687-0.434-1.346-0.736-1.988c-0.261-0.555-0.548-1.347-1.094-1.669
				c-0.151-0.089-0.371,0.023-0.361,0.207c0.032,0.612,0.488,1.206,0.713,1.775c0.246,0.621,0.449,1.266,0.622,1.911
				c0.35,1.307,0.488,2.652,0.429,4.004c-0.025,0.56,0.842,0.557,0.869,0C312.173,450.79,312.025,449.354,311.663,447.974z"/>
			<path style="fill:#FFFFFF;" d="M316.411,446.176c-0.334-1.16-0.83-2.314-1.654-3.208c-0.157-0.17-0.398,0.046-0.305,0.236
				c0.511,1.045,1.034,2.073,1.317,3.209c0.28,1.124,0.374,2.281,0.276,3.435c-0.04,0.469,0.697,0.469,0.732,0
				C316.871,448.614,316.754,447.365,316.411,446.176z"/>
			<path style="fill:#FFFFFF;" d="M321.833,445.818c-0.035-0.57-0.121-1.143-0.29-1.69c-0.163-0.528-0.38-1.042-0.646-1.526
				c-0.132-0.239-0.273-0.479-0.437-0.698c-0.139-0.184-0.343-0.436-0.58-0.48c-0.099-0.018-0.181,0.041-0.188,0.143
				c-0.015,0.22,0.136,0.452,0.236,0.64c0.115,0.217,0.246,0.425,0.355,0.647c0.231,0.47,0.406,0.966,0.531,1.474
				c0.12,0.489,0.212,0.985,0.242,1.488c0.015,0.245,0.018,0.492,0.009,0.737c-0.011,0.279-0.077,0.548,0.059,0.805
				c0.093,0.175,0.369,0.215,0.503,0.065c0.199-0.223,0.197-0.492,0.211-0.778C321.851,446.371,321.85,446.094,321.833,445.818z"/>
		</g>
		<g>
			<path style="fill:#FFFFFF;" d="M321.766,268.956c-0.11,3.671-0.83,7.323-2.121,10.761c4.431,2.453,9.795,2.802,14.821,2.181
				c1.619-0.2,3.248-0.469,4.751-1.102c1.503-0.633,2.886-1.666,3.671-3.095c-1.305-3.923-1.824-8.19-1.795-12.324
				C334.904,267.554,328.318,268.609,321.766,268.956z"/>
			<path style="fill:#313B59;" d="M357.897,199.005c6.014,1.867,10.605,7.198,12.434,13.224c1.829,6.026,1.125,12.624-1.059,18.531
				c-0.739,1.999-1.657,4.144-1.042,6.185c0.62,2.057,2.631,3.387,3.577,5.316c1.589,3.238-0.182,7.049-1.952,10.192
				c-1.77,3.143-3.615,6.888-2.151,10.184c0.575,1.294,1.601,2.327,2.367,3.517c0.766,1.191,1.268,2.731,0.66,4.01
				c-0.484,1.018-1.553,1.619-2.6,2.036c-6.424,2.558-14.47,0.079-18.341-5.65c-3.144-4.653-3.494-10.628-3.171-16.235
				c0.323-5.607,1.208-11.28,0.149-16.795c-0.94-4.898-3.359-9.366-5.091-14.043c-1.956-5.282-3.443-12.243,0.916-16.681
				C346.503,198.815,352.565,197.35,357.897,199.005z"/>
			<path style="fill:#313B59;" d="M318.568,244.982c-3.439,6.724-8.524,12.598-14.686,16.964c-1.294,0.917-2.72,1.797-4.304,1.862
				c3.154-3.277,6.317-6.566,9.016-10.227c2.699-3.661,4.936-7.727,6.028-12.142c1.042-0.257,2.292-0.39,3.054,0.366
				C318.438,242.561,319.057,244.026,318.568,244.982z"/>
			<path style="fill:#FFFFFF;" d="M350.831,249.51c-0.93,6.018-3.529,11.77-7.429,16.446c-0.776,0.931-1.612,1.356-2.729,1.827
				c-6.967,2.939-14.483,4.572-22.042,4.789c-0.484-0.197-1.109-0.647-1.411-1.074c-2.508-3.544-5.625-7.01-7.495-10.928
				c-1.87-3.919-2.806-8.441-1.717-12.644c1.076-4.153,1.594-8.591,1.479-12.879c-0.106-3.974,3.69-7.064,6.858-9.465
				c3.168-2.402,6.926-3.967,10.813-4.804c5.49-1.182,11.626-0.807,16.147,2.525c3.823,2.818,6.02,7.417,6.898,12.085
				C351.081,240.053,351.557,244.816,350.831,249.51z"/>
			<path style="fill:#BFCAD4;" d="M338.264,268.252c-2.966,0.284-5.954,1.6-8.878,2.257c-3.24,0.729-6.501,1.368-9.753,2.038
				c-0.043,0.009-0.032,0.075,0.01,0.075c3.238-0.012,6.404-0.353,9.564-1.049c2.965-0.653,6.595-1.235,9.18-2.867
				C338.576,268.587,338.519,268.228,338.264,268.252z"/>
			<path style="fill:#4C5980;" d="M335.501,242.225c-0.137-0.767-0.847-1.288-1.537-1.651c-2.261-1.19-4.957-1.535-7.461-1.024
				c-0.095,0.157-0.19,0.314-0.285,0.471c2.96-0.803,6.247-0.081,8.688,1.777C335.099,241.945,335.313,242.071,335.501,242.225z"/>
			<path style="fill:#4C5980;" d="M319.974,238.526c-0.596-1.121-1.576-2.034-2.737-2.55c-1.161-0.516-2.495-0.631-3.727-0.322
				c0.16-0.167,0.289-0.312,0.513-0.366c2.199-0.527,4.679,0.448,5.93,2.332C320.12,237.868,320.029,238.233,319.974,238.526z"/>
			<path style="fill:#313B59;" d="M309.525,236.492c-0.364-6.939,0.327-14.165,3.512-20.34c3.186-6.175,8.594-11.335,15.204-13.48
				c6.97-2.262,16.882-0.946,22.843,3.317c5.961,4.263,9.777,11.339,10.207,18.655c0.675,11.491-2.848,23.607-11.383,31.331
				c0.072-1.799-0.339-3.581-1.301-5.102c-10.813-3.809-20.555-11.063-27.125-20.459
				C318.089,233.367,313.941,235.636,309.525,236.492z"/>
			<path style="fill:#FFFFFF;" d="M349.386,252.276c0.826-0.465,1.668-0.937,2.595-1.131c0.928-0.194,1.971-0.069,2.686,0.552
				c0.944,0.821,1.068,2.257,0.818,3.482c-0.477,2.337-2.043,4.348-3.961,5.766c-1.918,1.418-4.175,2.301-6.447,3.028
				C346.388,259.988,347.748,256.138,349.386,252.276z"/>
			<path style="fill:#313B59;" d="M351.616,250.921c-1.982,7.287-5.75,14.082-10.882,19.622c-1.078,1.164-2.292,2.318-3.829,2.707
				c2.412-3.856,4.832-7.725,6.72-11.862c1.888-4.137,3.241-8.577,3.402-13.122c0.967-0.466,2.163-0.854,3.064-0.27
				C350.991,248.58,351.898,249.886,351.616,250.921z"/>
			<path style="fill:#4C5980;" d="M354.89,209.535c-1.374-1.551-2.937-2.934-4.643-4.112c-1.69-1.166-3.643-2.293-5.684-2.68
				c-0.134-0.025-0.228,0.156-0.097,0.23c1.74,0.976,3.556,1.775,5.216,2.901c1.702,1.155,3.253,2.528,4.622,4.062
				c2.812,3.152,4.506,6.79,5.621,10.825c0.123,0.446,0.766,0.255,0.684-0.189C359.861,216.511,357.601,212.596,354.89,209.535z"/>
			<path style="fill:#4C5980;" d="M361.501,223.243c-0.037-0.343-0.564-0.36-0.549,0c0.193,4.723-0.05,9.378-1.139,13.994
				c-0.519,2.201-1.206,4.353-2.024,6.46c-0.449,1.155-0.933,2.294-1.47,3.412c-0.46,0.958-1.087,1.897-1.305,2.946
				c-0.023,0.113,0.104,0.189,0.191,0.111c1.497-1.348,2.313-3.851,3.07-5.68c0.944-2.28,1.669-4.657,2.218-7.061
				C361.546,232.814,362.003,227.956,361.501,223.243z"/>
			<path style="fill:#4C5980;" d="M343.422,242.891c-0.626-0.519-1.401-0.813-2.124-1.173c-0.752-0.375-1.492-0.772-2.219-1.191
				c-1.494-0.86-2.935-1.811-4.313-2.847c-1.391-1.046-2.702-2.187-3.961-3.388c-0.64-0.611-1.275-1.223-1.885-1.864
				c-0.548-0.576-1.035-1.265-1.692-1.718c-0.116-0.08-0.215,0.07-0.172,0.172c0.315,0.741,0.938,1.348,1.46,1.95
				c0.579,0.667,1.174,1.326,1.803,1.946c1.247,1.23,2.595,2.364,3.99,3.423c1.409,1.069,2.884,2.05,4.414,2.934
				c1.36,0.786,2.975,1.885,4.56,2.089C343.449,243.244,343.546,242.994,343.422,242.891z"/>
			<path style="fill:#4C5980;" d="M338.117,235.951c-0.068-0.233-0.259-0.345-0.444-0.485c-0.164-0.124-0.327-0.248-0.491-0.372
				c-0.347-0.263-0.695-0.526-1.042-0.789c-0.336-0.254-0.664-0.529-1.014-0.762c-0.361-0.24-0.729-0.469-1.093-0.703
				c-0.132-0.085-0.278,0.108-0.166,0.216c0.303,0.294,0.604,0.588,0.907,0.881c0.312,0.301,0.667,0.566,1,0.843
				c0.325,0.271,0.651,0.542,0.976,0.813c0.158,0.131,0.315,0.263,0.473,0.394c0.19,0.159,0.348,0.326,0.607,0.341
				C338.023,236.338,338.168,236.129,338.117,235.951z"/>
			<path style="fill:#4C5980;" d="M325.036,262.162c-0.009-0.202-0.191-0.511-0.379-0.436c-2.532,1.013-5.522,0.804-7.888-0.552
				c-0.266,0.045-0.44,0.33-0.33,0.576c0.537,1.201,1.3,2.316,2.436,2.98c1.136,0.664,2.542,0.842,3.796,0.445
				C324.954,264.453,325.08,263.13,325.036,262.162z"/>
			<path style="fill:#4C5980;" d="M317.974,255.902c-0.036-0.206,0.103-0.411,0.284-0.518c0.18-0.107,0.394-0.136,0.602-0.163
				c0.746-0.098,1.483,0.467,2.075,0.931C320.207,256.305,318.01,256.108,317.974,255.902z"/>
			<g>
				<path style="fill:#313B59;" d="M326.263,247.899c-0.128-0.487-0.009-1,0.109-1.49c0.11-0.455,0.221-0.91,0.331-1.366
					c0.139-0.575,0.348-1.232,0.899-1.447c0.566-0.22,1.226,0.192,1.468,0.749c0.242,0.557,0.164,1.199,0.022,1.79
					c-0.153,0.635-0.377,1.253-0.665,1.84c-0.109,0.221-0.231,0.444-0.419,0.604C327.4,249.101,326.446,248.593,326.263,247.899z"/>
				<path style="fill:#313B59;" d="M314.999,245.089c-0.128-0.487-0.009-1,0.109-1.49c0.11-0.455,0.221-0.91,0.331-1.365
					c0.14-0.575,0.348-1.232,0.899-1.447c0.566-0.22,1.226,0.192,1.469,0.749c0.242,0.557,0.164,1.199,0.022,1.79
					c-0.154,0.635-0.377,1.254-0.666,1.84c-0.109,0.221-0.231,0.444-0.419,0.604C316.135,246.291,315.181,245.783,314.999,245.089z"
					/>
				<path style="fill:#313B59;" d="M331.421,244.543c-0.033-0.043-0.081-0.081-0.136-0.094c-0.064-0.015-0.147-0.015-0.202,0.027
					c-0.062,0.046-0.12,0.097-0.179,0.147c-0.041,0.035-0.088,0.068-0.125,0.107c-0.023,0.023-0.042,0.051-0.062,0.078
					c-0.335-0.675-0.951-1.221-1.668-1.446c-0.417-0.131-0.863-0.156-1.295-0.094c-0.224,0.032-0.446,0.087-0.655,0.173
					c-0.204,0.084-0.352,0.272-0.485,0.443c-0.02,0.026-0.003,0.066,0.033,0.057c0.184-0.046,0.382-0.047,0.561-0.102
					c0.177-0.054,0.347-0.113,0.531-0.142c0.387-0.062,0.788-0.03,1.161,0.091c0.703,0.227,1.221,0.725,1.565,1.366
					c0.02,0.037,0.054,0.054,0.087,0.068c0.001,0.001,0,0.001,0.001,0.002c0.002,0.003,0.005,0.002,0.008,0.005
					c0.007,0.003,0.011,0.01,0.019,0.011c0.055,0.049,0.126,0.06,0.195,0.028c0.053-0.025,0.107-0.049,0.16-0.074
					c0.049-0.023,0.103-0.042,0.149-0.07c0.046-0.028,0.089-0.066,0.132-0.098c0.062-0.046,0.126-0.09,0.185-0.14
					c0.047-0.039,0.08-0.126,0.077-0.186C331.474,244.643,331.457,244.59,331.421,244.543z"/>
				<path style="fill:#313B59;" d="M319.198,242.323c-0.075-0.176-0.18-0.343-0.295-0.496c-0.226-0.301-0.509-0.559-0.836-0.748
					c-0.363-0.209-0.765-0.318-1.18-0.357c-0.203-0.019-0.405-0.015-0.607,0.01c-0.168,0.021-0.314,0.074-0.459,0.14
					c-0.022-0.042-0.045-0.085-0.064-0.128c-0.003-0.007-0.006-0.014-0.009-0.021c-0.007-0.018-0.014-0.036-0.021-0.054
					c-0.013-0.033-0.025-0.066-0.036-0.1c-0.011-0.034-0.021-0.068-0.033-0.101c-0.02-0.053-0.051-0.098-0.079-0.146
					c-0.042-0.071-0.073-0.152-0.127-0.215c-0.081-0.096-0.252-0.042-0.279,0.074c-0.02,0.084-0.005,0.179,0.004,0.265
					c0.006,0.055,0.009,0.111,0.025,0.164c0.015,0.049,0.044,0.099,0.068,0.145c0.08,0.153,0.177,0.294,0.284,0.429
					c0.023,0.03,0.073,0.048,0.115,0.052c0.036,0.022,0.079,0.033,0.128,0.021c0.343-0.087,0.707-0.169,1.062-0.165
					c0.369,0.003,0.742,0.107,1.065,0.283c0.288,0.157,0.543,0.372,0.748,0.629c0.102,0.128,0.187,0.266,0.265,0.409
					c0.082,0.152,0.192,0.286,0.275,0.438c0.016,0.03,0.065,0.017,0.064-0.017C319.27,242.668,319.264,242.479,319.198,242.323z"/>
			</g>
		</g>
	</g>
</g>
</svg>
