<?xml version="1.0" encoding="utf-8"?>
<!-- Generator: Adobe Illustrator 27.5.0, SVG Export Plug-In . SVG Version: 6.00 Build 0)  -->
<svg version="1.1" xmlns="http://www.w3.org/2000/svg" xmlns:xlink="http://www.w3.org/1999/xlink" x="0px" y="0px"
	 viewBox="0 0 3710 3710" style="enable-background:new 0 0 3710 3710;" xml:space="preserve">
<g id="Background">
	<g>
		<g>
			<rect style="fill:#FFFFFF;" width="3710" height="3710"/>
		</g>
	</g>
</g>
<g id="Illustration">
	<g>
		<linearGradient id="SVGID_1_" gradientUnits="userSpaceOnUse" x1="3606.8435" y1="4081.4114" x2="1115.3689" y2="987.1564">
			<stop  offset="0" style="stop-color:#DAE3FE"/>
			<stop  offset="1" style="stop-color:#E9EFFD"/>
		</linearGradient>
		<path style="fill:url(#SVGID_1_);" d="M2921.423,2861.149c-57.228,60.247-111.377,99.1-154.159,129.797
			c-502.893,360.831-1097.948,255.651-1224.414,229.964c-186.751-37.93-547.736-111.248-808.721-418.162
			c-394.85-464.335-333.366-1195.882-27.094-1678.786c56.022-88.331,351.946-578.591,953.411-657.214
			c364-47.581,788.307,48.385,1095.578,305.817C3401.014,1312.939,3355.098,2404.59,2921.423,2861.149z"/>
		<g>
			<g>
				<g style="opacity:0.3;">
					<path style="fill:#91B3FA;" d="M3059.348,822.856c3.398-2.005,7.833-1.158,10.231,2.083
						c5.248,7.086,10.264,14.508,14.912,22.054c2.261,3.672,1.119,8.481-2.552,10.742c-0.045,0.026-0.088,0.052-0.131,0.077
						c-3.654,2.155-8.376,0.997-10.61-2.631c-4.415-7.17-9.182-14.219-14.166-20.951c-2.566-3.464-1.838-8.355,1.629-10.92
						C3058.884,823.144,3059.114,822.994,3059.348,822.856z M3093.466,881.687c0.263-0.155,0.539-0.297,0.825-0.423
						c3.945-1.739,8.554,0.049,10.293,3.994c3.571,8.104,6.832,16.44,9.689,24.777c1.398,4.079-0.763,8.501-4.852,9.918
						c-4.079,1.397-8.518-0.778-9.915-4.854c-2.717-7.925-5.814-15.844-9.21-23.545
						C3088.683,887.896,3090.105,883.669,3093.466,881.687z M3113.782,946.566c0.749-0.442,1.584-0.765,2.487-0.939
						c4.233-0.815,8.328,1.952,9.145,6.186c1.677,8.676,2.995,17.535,3.92,26.329c0.448,4.289-2.665,8.125-6.947,8.58
						c-4.287,0.45-8.13-2.661-8.58-6.948c-0.877-8.351-2.13-16.76-3.721-25.002C3109.441,951.442,3111.019,948.196,3113.782,946.566
						z M3119.081,1014.374c1.237-0.73,2.69-1.126,4.231-1.073c4.308,0.149,7.68,3.765,7.531,8.073
						c-0.309,8.839-1.003,17.769-2.063,26.545c-0.521,4.276-4.407,7.326-8.688,6.813c-4.279-0.517-7.329-4.407-6.813-8.687
						c1.007-8.333,1.668-16.816,1.958-25.215C3115.336,1018.063,3116.861,1015.684,3119.081,1014.374z M3109.127,1081.66
						c1.735-1.023,3.862-1.379,5.962-0.823c4.169,1.102,6.654,5.375,5.551,9.542c-2.256,8.528-4.909,17.081-7.887,25.416
						c-1.447,4.061-5.914,6.179-9.976,4.727c-4.059-1.451-6.175-5.917-4.726-9.979c2.832-7.923,5.353-16.052,7.497-24.156
						C3106.094,1084.32,3107.42,1082.666,3109.127,1081.66z M3084.538,1145.063c2.247-1.325,5.106-1.496,7.588-0.199
						c3.821,1.998,5.3,6.713,3.304,10.534c-4.092,7.83-8.572,15.585-13.316,23.043c-2.316,3.639-7.139,4.71-10.778,2.396
						c-3.636-2.312-4.71-7.138-2.396-10.776c4.508-7.087,8.764-14.452,12.652-21.893
						C3082.291,1146.827,3083.326,1145.778,3084.538,1145.063z M2847.597,1306.406c0.931-0.549,1.99-0.912,3.134-1.034
						c8.34-0.891,16.753-2.157,25.004-3.767c4.231-0.825,8.331,1.936,9.155,6.166c0.827,4.232-1.934,8.331-6.167,9.157
						c-8.69,1.695-17.551,3.031-26.333,3.97c-4.288,0.458-8.134-2.647-8.591-6.934
						C2843.462,1310.821,2845.042,1307.913,2847.597,1306.406z M3046.533,1201.404c2.789-1.645,6.428-1.434,9.03,0.784
						c3.282,2.797,3.675,7.724,0.879,11.005c-5.731,6.726-11.825,13.284-18.113,19.493c-3.081,3.014-8.01,3.001-11.041-0.069
						c-3.029-3.067-2.997-8.01,0.07-11.041c5.972-5.895,11.758-12.122,17.201-18.509
						C3045.139,1202.389,3045.807,1201.832,3046.533,1201.404z M2913.97,1291.604c0.444-0.262,0.919-0.485,1.425-0.66
						c7.934-2.736,15.854-5.854,23.542-9.26c3.943-1.745,8.554,0.035,10.3,3.975c1.744,3.942-0.022,8.57-3.975,10.3
						c-8.09,3.583-16.424,6.863-24.771,9.744c-4.076,1.406-8.521-0.758-9.926-4.833
						C2909.332,1297.303,2910.839,1293.451,2913.97,1291.604z M2996.897,1247.843c3.393-2.002,7.821-1.161,10.223,2.07
						c2.572,3.461,1.852,8.35-1.607,10.925c-7.084,5.266-14.492,10.297-22.018,14.949c-0.045,0.031-0.094,0.059-0.141,0.087
						c-3.648,2.152-8.364,1-10.602-2.618c-2.268-3.668-1.135-8.478,2.533-10.745c7.148-4.421,14.182-9.201,20.913-14.205
						C2996.425,1248.139,2996.659,1247.983,2996.897,1247.843z"/>
					<path style="fill:#91B3FA;" d="M2792.788,1307.274c1.324-0.781,2.891-1.182,4.542-1.058c4.014,0.302,8.1,0.522,12.148,0.662
						c4.308,0.146,7.684,3.759,7.535,8.066c-0.145,4.309-3.757,7.689-8.069,7.535c-4.257-0.144-8.555-0.378-12.779-0.693
						c-4.298-0.322-7.525-4.069-7.202-8.366C2789.161,1310.769,2790.66,1308.528,2792.788,1307.274z"/>
				</g>
				<g style="opacity:0.3;">
					<path style="fill:#91B3FA;" d="M2581.234,1198.24c3.245-1.914,7.49-1.246,9.971,1.748c2.566,3.099,5.242,6.198,7.951,9.206
						c2.885,3.205,2.626,8.141-0.577,11.025c-3.218,2.896-8.142,2.625-11.025-0.577c-2.851-3.168-5.669-6.43-8.373-9.693
						c-2.75-3.32-2.288-8.241,1.032-10.992C2580.538,1198.686,2580.881,1198.448,2581.234,1198.24z"/>
					<path style="fill:#91B3FA;" d="M2660.488,742.39c3.094-1.825,6.231-3.604,9.409-5.338c3.786-2.063,8.528-0.669,10.592,3.116
						c2.064,3.785,0.659,8.551-3.115,10.593c-7.335,4.001-14.491,8.29-21.348,12.801c-3.609,2.366-8.442,1.372-10.812-2.229
						c-2.372-3.604-1.372-8.445,2.229-10.814C2651.685,747.728,2656.074,744.994,2660.488,742.39z M2707.344,719.838
						c0.375-0.221,0.776-0.415,1.198-0.576c8.14-3.099,16.503-5.886,24.854-8.284c4.143-1.19,8.467,1.204,9.657,5.346
						c1.19,4.145-1.206,8.482-5.349,9.658c-7.932,2.278-15.875,4.928-23.611,7.87c-4.028,1.534-8.538-0.49-10.071-4.517
						C2702.65,725.726,2704.128,721.735,2707.344,719.838z M2614.775,775.426c3.17-1.87,7.32-1.284,9.832,1.585
						c2.841,3.246,2.511,8.177-0.732,11.018c-6.207,5.431-12.264,11.203-18.004,17.159c-2.998,3.099-7.935,3.194-11.038,0.202
						c-3.104-2.994-3.194-7.936-0.202-11.04c6.046-6.271,12.426-12.35,18.961-18.07
						C2613.965,775.954,2614.363,775.67,2614.775,775.426z M2772.147,703.063c0.854-0.503,1.818-0.849,2.859-0.999
						c8.614-1.233,17.385-2.112,26.068-2.614c4.304-0.248,7.993,3.039,8.241,7.342c0.25,4.306-3.035,7.996-7.343,8.243
						c-8.244,0.477-16.573,1.311-24.753,2.483c-4.267,0.613-8.223-2.354-8.833-6.621
						C2767.923,707.672,2769.504,704.622,2772.147,703.063z M2569.637,824.781c2.6-1.534,5.972-1.477,8.568,0.416
						c3.484,2.54,4.25,7.423,1.71,10.908c-4.857,6.66-9.495,13.624-13.791,20.696c-2.238,3.685-7.039,4.86-10.725,2.62
						c-3.684-2.238-4.856-7.038-2.618-10.722c4.521-7.446,9.405-14.777,14.518-21.791
						C2567.946,826.019,2568.747,825.306,2569.637,824.781z M2536.421,882.847c2.079-1.226,4.696-1.474,7.079-0.441
						c3.955,1.717,5.77,6.315,4.052,10.27c-3.292,7.585-6.302,15.397-8.948,23.217c-1.376,4.086-5.805,6.278-9.895,4.895
						c-4.085-1.382-6.274-5.812-4.894-9.897c2.785-8.231,5.953-16.451,9.418-24.432
						C2533.913,884.889,2535.05,883.656,2536.421,882.847z M2516.654,946.773c1.581-0.933,3.494-1.314,5.439-0.939
						c4.233,0.813,7.005,4.907,6.19,9.14c-1.564,8.127-2.803,16.406-3.68,24.613c-0.458,4.285-4.3,7.39-8.593,6.931
						c-4.286-0.46-7.389-4.305-6.931-8.593c0.925-8.635,2.227-17.351,3.873-25.901
						C2513.392,949.734,2514.791,947.871,2516.654,946.773z M2511.299,1013.483c1.095-0.646,2.363-1.033,3.725-1.075
						c4.309-0.131,7.907,3.256,8.038,7.565c0.25,8.268,0.856,16.616,1.803,24.816c0.494,4.283-2.582,8.158-6.858,8.651
						c-4.284,0.495-8.157-2.577-8.651-6.86c-0.998-8.638-1.636-17.43-1.9-26.133
						C2507.367,1017.498,2508.926,1014.883,2511.299,1013.483z M2520.723,1079.767c0.616-0.363,1.293-0.646,2.02-0.834
						c4.174-1.078,8.432,1.434,9.508,5.607c2.062,7.988,4.492,15.994,7.226,23.798c1.426,4.07-0.731,8.525-4.787,9.947
						c-4.069,1.426-8.523-0.718-9.949-4.788c-2.877-8.215-5.437-16.644-7.606-25.054
						C2516.246,1084.996,2517.803,1081.49,2520.723,1079.767z M2544.463,1142.319c0.138-0.081,0.28-0.158,0.424-0.232
						c3.839-1.96,8.542-0.436,10.501,3.403c2.767,5.42,5.733,10.818,8.82,16.05c1.117,1.894,2.255,3.771,3.406,5.631
						c2.271,3.666,1.14,8.479-2.525,10.747c-3.666,2.371-8.476,1.141-10.746-2.523c-1.213-1.958-2.406-3.93-3.583-5.923
						c-3.246-5.502-6.367-11.184-9.277-16.885C2539.597,1148.893,2540.938,1144.399,2544.463,1142.319z"/>
					<path style="fill:#91B3FA;" d="M2839.24,700.99c1.337-0.789,2.919-1.188,4.582-1.056c4.213,0.336,8.498,0.768,12.737,1.284
						c4.281,0.52,7.329,4.411,6.808,8.69c-0.522,4.28-4.407,7.33-8.69,6.808c-4.027-0.489-8.098-0.899-12.097-1.219
						c-4.296-0.341-7.502-4.103-7.16-8.401C2835.63,704.461,2837.125,702.237,2839.24,700.99z"/>
				</g>
				<g>
					<path style="fill:#91B3FA;" d="M2876.17,784.33c-1.46-0.539-3.102-0.092-4.087,1.113l-28.111,34.376
						c-20.58-2.551-41.716-1.839-62.624,2.44l-30.703-32.042c-1.077-1.124-2.748-1.441-4.162-0.789l-48.372,22.3
						c-1.414,0.652-2.258,2.129-2.103,3.677l4.427,44.156c-16.832,13.121-31.1,28.729-42.524,46.036l-44.396-0.948
						c-1.556-0.033-2.962,0.924-3.501,2.385l-18.435,49.973c-0.539,1.461-0.092,3.102,1.113,4.087l34.376,28.111
						c-2.552,20.58-1.839,41.716,2.44,62.624l-32.043,30.703c-1.124,1.077-1.441,2.748-0.789,4.161l22.301,48.372
						c0.651,1.413,2.128,2.258,3.677,2.102l44.156-4.427c13.12,16.833,28.729,31.1,46.036,42.524l-0.948,44.397
						c-0.033,1.555,0.925,2.962,2.385,3.5l49.973,18.435c1.46,0.54,3.102,0.092,4.087-1.113l28.111-34.376
						c20.58,2.552,41.716,1.84,62.624-2.44l30.703,32.043c1.077,1.124,2.748,1.441,4.162,0.789l48.372-22.302
						c1.414-0.651,2.258-2.128,2.103-3.677l-4.427-44.156c16.833-13.12,31.1-28.729,42.525-46.036l44.396,0.948
						c1.556,0.034,2.963-0.925,3.501-2.385l18.435-49.973c0.539-1.46,0.092-3.101-1.113-4.087l-34.375-28.11
						c2.552-20.58,1.839-41.716-2.44-62.624l32.043-30.703c1.124-1.076,1.441-2.748,0.788-4.162l-22.3-48.371
						c-0.652-1.414-2.128-2.258-3.677-2.103l-44.156,4.427c-13.12-16.832-28.729-31.099-46.036-42.524l0.948-44.396
						c0.034-1.557-0.924-2.962-2.385-3.501L2876.17,784.33z"/>
					<g>
						<path style="fill:#BDD0FB;" d="M2793.04,966.827c22.479-13.26,51.956-8.396,68.83,12.5
							c18.548,22.972,14.948,56.745-8.021,75.293c-11.126,8.989-25.088,13.099-39.306,11.584
							c-14.221-1.514-27.001-8.476-35.985-19.604c-18.548-22.972-14.948-56.745,8.021-75.293
							C2788.65,969.636,2790.811,968.141,2793.04,966.827z M2840.999,1048.372c1.736-1.024,3.407-2.18,5.004-3.469
							c17.611-14.219,20.368-40.118,6.15-57.728c-14.221-17.611-40.118-20.38-57.729-6.151
							c-17.611,14.219-20.368,40.117-6.15,57.727c6.89,8.533,16.687,13.87,27.591,15.032
							C2824.727,1054.727,2833.46,1052.819,2840.999,1048.372z"/>
					</g>
					<g>
						<path style="fill:#BDD0FB;" d="M2752.808,900.777c3.861-2.277,7.858-4.374,11.984-6.276l0,0
							c1.298-0.599,2.607-1.177,3.925-1.734c6.497-2.746,13.202-4.97,20.011-6.639c0.093-0.023,0.186-0.046,0.278-0.069
							c0.263-0.063,0.527-0.127,0.792-0.187c0.514-0.122,1.029-0.239,1.543-0.355c1.354-0.303,2.699,0.323,3.37,1.457
							c0.163,0.276,0.285,0.582,0.358,0.911c0.376,1.683-0.688,3.348-2.367,3.726c-8.661,1.933-17.17,4.814-25.294,8.562
							c-40.359,18.598-66.146,56.071-71.745,97.142c-3.117,22.844,0.015,46.801,10.364,69.246c1.814,3.936,3.813,7.752,5.987,11.434
							c14.621,24.781,37.134,43.623,64.493,53.715c31.426,11.594,65.488,10.255,95.906-3.769
							c62.82-28.97,90.331-103.595,61.381-166.387c-1.785-3.872-3.759-7.639-5.913-11.286c-9.328-15.807-22.01-29.398-37.186-39.752
							c-0.392-0.268-0.704-0.608-0.929-0.992c-0.595-1.009-0.595-2.315,0.11-3.346c0.977-1.422,2.913-1.796,4.34-0.819
							c15.932,10.87,29.25,25.138,39.042,41.733c2.26,3.828,4.332,7.782,6.207,11.845c30.395,65.927,1.466,144.291-64.436,174.676
							c-31.935,14.724-67.69,16.127-100.682,3.956c-28.723-10.594-52.356-30.375-67.707-56.39c-2.28-3.866-4.379-7.871-6.284-12.001
							c-14.723-31.937-16.129-67.693-3.958-100.685C2706.995,939.763,2726.785,916.127,2752.808,900.777z"/>
					</g>
				</g>
			</g>
			<g>
				<g style="opacity:0.3;">
					<path style="fill:#91B3FA;" d="M3184.278,510.32c1.797-1.06,4.143-0.864,5.743,0.635c2.989,2.797,5.934,5.722,8.751,8.696
						c1.831,1.932,1.75,4.981-0.183,6.816c-1.928,1.842-4.985,1.749-6.816-0.183c-2.685-2.833-5.492-5.622-8.343-8.292
						c-1.943-1.817-2.043-4.868-0.226-6.815C3183.528,510.833,3183.89,510.548,3184.278,510.32z"/>
					<path style="fill:#91B3FA;" d="M3208.916,538.043c2.104-1.242,4.85-0.712,6.327,1.297c4.179,5.675,8.113,11.631,11.692,17.698
						c0.754,1.277,1.495,2.568,2.227,3.869c1.303,2.325,0.305,5.248-1.841,6.569c-2.322,1.304-5.26,0.479-6.565-1.84
						c-0.699-1.244-1.407-2.478-2.127-3.698c-3.414-5.787-7.166-11.467-11.149-16.88c-1.58-2.146-1.121-5.161,1.022-6.742
						C3208.639,538.218,3208.776,538.126,3208.916,538.043z M3233.433,581.691c0.197-0.116,0.405-0.222,0.62-0.311
						c2.465-1.011,5.282,0.164,6.295,2.628c3.25,7.901,6.038,16.075,8.284,24.289c0.704,2.57-0.824,5.22-3.378,5.923
						c-2.571,0.702-5.219-0.808-5.923-3.378c-2.144-7.838-4.804-15.633-7.902-23.169
						C3230.507,585.429,3231.401,582.89,3233.433,581.691z M3246.633,629.981c0.527-0.311,1.122-0.525,1.764-0.62
						c2.635-0.379,5.078,1.455,5.457,4.09c1.209,8.444,1.906,17.058,2.062,25.597c0.05,2.666-2.063,4.858-4.734,4.908
						c-2.66,0.049-4.859-2.07-4.908-4.73c-0.15-8.144-0.81-16.354-1.966-24.408C3244.023,632.827,3245,630.944,3246.633,629.981z
						 M3247.557,680.04c0.86-0.507,1.883-0.75,2.95-0.642c2.648,0.281,4.571,2.655,4.29,5.303c-0.898,8.5-2.332,17.015-4.263,25.315
						c-0.606,2.593-3.202,4.201-5.789,3.601c-2.594-0.602-4.206-3.193-3.604-5.789c1.842-7.909,3.21-16.036,4.066-24.139
						C3245.375,682.109,3246.286,680.79,3247.557,680.04z M3236.228,728.805c1.2-0.708,2.699-0.892,4.111-0.375
						c2.499,0.915,3.782,3.684,2.869,6.185c-2.938,8.014-6.394,15.924-10.28,23.508c-1.211,2.376-4.119,3.309-6.489,2.095
						c-2.37-1.215-3.308-4.122-2.094-6.489c3.707-7.238,7.006-14.782,9.805-22.43C3234.55,730.21,3235.301,729.352,3236.228,728.805
						z M3213.409,773.337c1.555-0.917,3.567-0.917,5.162,0.164c2.202,1.495,2.773,4.492,1.279,6.696
						c-4.795,7.06-10.078,13.888-15.7,20.287c-1.769,2-4.806,2.195-6.806,0.44c-2-1.756-2.197-4.805-0.44-6.803
						c5.362-6.104,10.396-12.61,14.968-19.341C3212.284,774.17,3212.814,773.688,3213.409,773.337z M3180.403,810.929
						c1.946-1.148,4.495-0.799,6.05,0.952c1.768,1.991,1.587,5.039-0.403,6.809c-6.36,5.649-13.159,10.971-20.208,15.823
						c-2.224,1.476-5.2,0.952-6.707-1.242c-1.51-2.193-0.954-5.194,1.238-6.705c6.727-4.624,13.211-9.701,19.275-15.087
						C3179.886,811.266,3180.139,811.084,3180.403,810.929z M3116.238,849.488c0.239-0.141,0.497-0.266,0.768-0.366
						c6.586-2.458,13.152-5.32,19.519-8.507c0.967-0.478,1.911-0.958,2.846-1.449c2.363-1.23,5.274-0.318,6.506,2.044
						c1.238,2.364,0.344,5.351-2.041,6.507c-1,0.519-2.001,1.033-3.015,1.533c-6.652,3.328-13.536,6.328-20.443,8.904
						c-2.496,0.931-5.271-0.335-6.202-2.831C3113.345,853.102,3114.26,850.655,3116.238,849.488z"/>
				</g>
				<g style="opacity:0.3;">
					<path style="fill:#91B3FA;" d="M2939.434,485.102c2.267-1.337,5.197-0.605,6.569,1.652c1.382,2.274,0.659,5.242-1.617,6.623
						c-6.852,4.162-13.508,8.777-19.782,13.719c-2.094,1.618-5.124,1.29-6.772-0.805c-1.648-2.094-1.285-5.124,0.805-6.772
						c6.583-5.178,13.559-10.02,20.74-14.383C2939.395,485.124,2939.415,485.112,2939.434,485.102z M2961.247,473.585
						c0.15-0.089,0.303-0.168,0.465-0.241c7.643-3.47,15.575-6.509,23.575-9.036c2.541-0.799,5.247,0.606,6.048,3.145
						c0.806,2.543-0.621,5.248-3.143,6.052c-7.634,2.41-15.202,5.31-22.497,8.619c-2.423,1.101-5.281,0.026-6.381-2.397
						C2958.284,477.459,2959.154,474.819,2961.247,473.585z M2900.762,515.566c1.841-1.086,4.251-0.846,5.843,0.73
						c1.888,1.871,1.904,4.923,0.03,6.816c-5.643,5.701-10.988,11.789-15.883,18.105c-1.644,2.101-4.661,2.487-6.765,0.852
						c-2.104-1.629-2.487-4.661-0.856-6.766c5.132-6.619,10.736-13.002,16.654-18.975
						C2900.084,516.026,2900.413,515.772,2900.762,515.566z M3008.229,458.784c0.472-0.279,1-0.481,1.571-0.588
						c8.259-1.531,16.696-2.567,25.074-3.075c2.658-0.163,4.944,1.862,5.107,4.52c0.159,2.651-1.865,4.938-4.519,5.104
						c-7.989,0.487-16.03,1.475-23.906,2.933c-2.617,0.484-5.135-1.246-5.619-3.863
						C3005.559,461.769,3006.534,459.784,3008.229,458.784z M2870.604,554.473c1.47-0.867,3.357-0.926,4.923,0.01
						c2.29,1.366,3.036,4.326,1.673,6.612c-4.102,6.869-7.824,14.061-11.062,21.384c-1.078,2.44-3.927,3.536-6.362,2.457
						c-2.435-1.078-3.536-3.927-2.458-6.362c3.4-7.674,7.3-15.218,11.598-22.421
						C2869.345,555.434,2869.933,554.869,2870.604,554.473z M2850.659,599.48c1.125-0.664,2.513-0.87,3.858-0.461
						c2.547,0.777,3.983,3.472,3.206,6.019c-2.34,7.673-4.235,15.553-5.633,23.418c-0.466,2.625-2.972,4.372-5.591,3.905
						c-2.622-0.465-4.368-2.966-3.902-5.587c1.465-8.249,3.449-16.51,5.902-24.55
						C2848.864,601.026,2849.657,600.071,2850.659,599.48z M2842.069,647.974c0.791-0.466,1.721-0.715,2.708-0.658
						c2.659,0.143,4.698,2.417,4.553,5.077c-0.441,8.006-0.389,16.11,0.152,24.084c0.176,2.652-1.83,4.955-4.486,5.133
						c-2.657,0.179-4.956-1.827-5.136-4.486c-0.563-8.36-0.619-16.86-0.162-25.259
						C2839.792,650.192,2840.727,648.766,2842.069,647.974z"/>
					<path style="fill:#91B3FA;" d="M3057.617,455.786c0.801-0.473,1.746-0.718,2.745-0.657c4.119,0.254,8.248,0.634,12.276,1.122
						c2.642,0.322,4.527,2.725,4.206,5.369c-0.328,2.637-2.726,4.522-5.369,4.206c-3.84-0.468-7.781-0.828-11.711-1.073
						c-2.658-0.165-4.679-2.455-4.513-5.111C3055.355,457.985,3056.285,456.572,3057.617,455.786z"/>
				</g>
				<g>
					<path style="fill:#91B3FA;" d="M3085.811,511.471c-0.977-0.36-2.076-0.061-2.735,0.745l-18.811,23.003
						c-13.771-1.707-27.914-1.231-41.905,1.633l-20.545-21.441c-0.72-0.752-1.839-0.964-2.785-0.528l-32.368,14.922
						c-0.946,0.436-1.511,1.425-1.407,2.461l2.963,29.547c-11.263,8.78-20.811,19.224-28.456,30.805l-29.708-0.635
						c-1.041-0.022-1.982,0.619-2.343,1.596l-12.336,33.439c-0.36,0.978-0.061,2.076,0.745,2.735l23.003,18.81
						c-1.708,13.771-1.231,27.915,1.633,41.905l-21.442,20.545c-0.752,0.721-0.964,1.839-0.528,2.785l14.923,32.369
						c0.436,0.946,1.425,1.511,2.461,1.407l29.548-2.962c8.779,11.264,19.224,20.811,30.805,28.455l-0.634,29.709
						c-0.022,1.041,0.619,1.982,1.595,2.342l33.44,12.336c0.977,0.361,2.075,0.061,2.734-0.745l18.81-23.003
						c13.771,1.708,27.914,1.231,41.905-1.633l20.545,21.442c0.721,0.752,1.839,0.964,2.785,0.528l32.368-14.923
						c0.946-0.436,1.51-1.424,1.407-2.461l-2.963-29.547c11.264-8.779,20.811-19.224,28.456-30.806l29.707,0.635
						c1.042,0.023,1.983-0.619,2.343-1.596l12.336-33.439c0.36-0.977,0.062-2.076-0.745-2.735l-23.002-18.81
						c1.708-13.771,1.23-27.914-1.634-41.905l21.442-20.545c0.751-0.72,0.964-1.839,0.527-2.785l-14.922-32.368
						c-0.437-0.946-1.424-1.511-2.461-1.407l-29.548,2.962c-8.78-11.263-19.224-20.81-30.805-28.455l0.634-29.708
						c0.022-1.041-0.619-1.982-1.596-2.343L3085.811,511.471z"/>
					<g>
						<path style="fill:#BDD0FB;" d="M3029.901,633.006c6.699-3.952,14.457-5.647,22.331-4.809
							c9.686,1.032,18.391,5.776,24.51,13.356c12.631,15.64,10.182,38.645-5.462,51.284c-15.689,12.622-38.657,10.18-51.289-5.464
							c-6.122-7.58-8.924-17.089-7.89-26.773c1.031-9.688,5.773-18.395,13.357-24.514
							C3026.875,634.944,3028.362,633.914,3029.901,633.006z M3061.985,687.579c1.117-0.659,2.199-1.407,3.239-2.244
							c11.506-9.296,13.308-26.218,4.015-37.727c-4.5-5.572-10.905-9.066-18.028-9.822c-7.128-0.759-14.117,1.308-19.698,5.803l0,0
							c-5.574,4.502-9.064,10.907-9.824,18.029c-0.759,7.128,1.303,14.122,5.806,19.699
							C3035.948,691.786,3050.721,694.224,3061.985,687.579z"/>
					</g>
					<g>
						<path style="fill:#BDD0FB;" d="M3001.957,586.996c2.628-1.55,5.355-2.978,8.182-4.285c5.614-2.59,11.498-4.612,17.503-6.011
							c0.27-0.061,0.541-0.122,0.811-0.183c2.091-0.468,4.167,0.499,5.203,2.25c0.251,0.426,0.44,0.899,0.553,1.406
							c0.581,2.598-1.064,5.165-3.656,5.753c-5.619,1.253-11.126,3.12-16.373,5.541l-0.002,0.001
							c-0.288,0.132-0.576,0.269-0.86,0.404c-12.365,5.845-22.804,14.55-30.663,25.308c-4.266,5.84-7.769,12.291-10.399,19.227
							c-0.021,0.056-0.043,0.113-0.064,0.169c-0.064,0.175-0.13,0.345-0.192,0.518c-7.503,20.345-6.638,42.395,2.441,62.087
							c1.173,2.55,2.468,5.017,3.874,7.402c9.466,16.042,24.041,28.24,41.754,34.776c20.345,7.504,42.393,6.634,62.083-2.444
							c19.676-9.08,34.671-25.284,42.179-45.626c7.504-20.345,6.638-42.395-2.441-62.087c-1.153-2.506-2.433-4.945-3.825-7.305
							c-6.04-10.235-14.249-19.032-24.073-25.733c-0.605-0.414-1.087-0.938-1.434-1.532c-0.918-1.557-0.919-3.574,0.169-5.167
							c1.507-2.195,4.499-2.768,6.703-1.264c10.992,7.5,20.179,17.343,26.937,28.789c1.56,2.644,2.99,5.37,4.282,8.173
							c10.158,22.035,11.127,46.703,2.729,69.466c-8.398,22.758-25.135,40.897-47.185,51.044
							c-22.032,10.159-46.698,11.13-69.461,2.729c-19.816-7.308-36.121-20.955-46.711-38.904c-1.572-2.664-3.022-5.428-4.335-8.277
							C2946.02,660.565,2962.339,610.365,3001.957,586.996z"/>
					</g>
				</g>
			</g>
		</g>
		<g>
			<path style="fill:#BDD0FB;" d="M810.075,474.667c170.545,96.121,1140.174,696.022,740.674,1707.024
				c0,0-740.008-230.612-765.384-1692.356C785.142,476.547,798.933,468.387,810.075,474.667z"/>
			<path style="opacity:0.61;fill:#FFFFFF;" d="M877.881,629.537c34.241,52.384,67.36,105.413,100.034,158.745
				c32.644,53.342,64.673,107.061,96.071,161.15c62.798,108.174,123.196,217.773,180.178,329.173
				c56.891,111.429,110.594,224.601,158.013,340.531c23.891,57.882,45.698,116.662,65.239,176.229
				c19.448,59.585,36.589,120.056,48.861,181.749c0.711,3.581-1.614,7.062-5.196,7.774c-3.58,0.712-7.062-1.613-7.774-5.194
				l-0.007-0.033l-0.005-0.029c-11.819-61.038-28.519-121.157-47.551-180.483c-19.126-59.317-40.537-117.954-64.054-175.758
				c-46.669-115.769-99.683-228.986-155.916-340.521c-56.327-111.51-116.099-221.293-178.289-329.683
				c-31.095-54.197-62.823-108.033-95.17-161.497c-32.367-53.441-65.216-106.635-99.117-159.077l-0.013-0.021
				c-0.84-1.299-0.467-3.033,0.832-3.872C875.312,627.88,877.038,628.248,877.881,629.537z"/>
		</g>
		<g>
			<path style="fill:#91B3FA;" d="M476.377,859.612c172.114,75.306,1155.819,554.447,872.01,1558.303
				c0,0-728.81-148.725-894.187-1541.912C452.753,863.815,465.132,854.692,476.377,859.612z"/>
			<path style="opacity:0.57;fill:#FFFFFF;" d="M570.169,1023.367c41.268,43.637,81.584,88.072,121.531,132.87
				c39.92,44.812,79.326,90.086,118.198,135.816c77.743,91.456,153.464,184.669,226.268,280.164
				c72.723,95.538,142.729,193.268,207.277,294.676c32.429,50.595,63.046,102.393,91.656,155.324
				c28.526,52.963,55.026,107.158,77.135,163.342c1.336,3.398-0.335,7.236-3.732,8.573c-3.397,1.337-7.237-0.334-8.573-3.731
				l-0.013-0.032l-0.01-0.027c-21.547-55.62-47.551-109.546-75.622-162.33c-28.156-52.758-58.358-104.486-90.407-155.071
				c-63.778-101.383-133.117-199.279-205.211-295.039c-72.176-95.72-147.315-189.225-224.499-281.002
				c-38.592-45.891-77.724-91.332-117.372-136.318c-39.666-44.96-79.745-89.606-120.688-133.359l-0.016-0.019
				c-1.058-1.129-0.998-2.901,0.13-3.958C567.348,1022.193,569.112,1022.249,570.169,1023.367z"/>
		</g>
		<g>
			
				<linearGradient id="SVGID_00000003812711590248570830000013650943422606914721_" gradientUnits="userSpaceOnUse" x1="1027.082" y1="711.7542" x2="824.3373" y2="1630.8605">
				<stop  offset="0" style="stop-color:#FF928E"/>
				<stop  offset="1" style="stop-color:#FE7062"/>
			</linearGradient>
			<path style="fill:url(#SVGID_00000003812711590248570830000013650943422606914721_);" d="M867.055,1291.129
				c0.644-10.389-7.317-19.271-17.713-19.793c-34.279-1.72-110.12,6.753-182.518,98.42
				c-97.529,123.486-23.061,297.136,177.862,304.054c184.641,6.356,250.38-131.932,249.01-216.384
				c-0.174-10.737-10.799-18.194-21.057-15.021l-198.161,61.305c-10.143,3.138-20.291-4.84-19.634-15.437L867.055,1291.129z"/>
			
				<linearGradient id="SVGID_00000143594486910399586030000005185865872095399070_" gradientUnits="userSpaceOnUse" x1="1129.3755" y1="734.3204" x2="926.6304" y2="1653.429">
				<stop  offset="0" style="stop-color:#FF928E"/>
				<stop  offset="1" style="stop-color:#FE7062"/>
			</linearGradient>
			<path style="fill:url(#SVGID_00000143594486910399586030000005185865872095399070_);" d="M916.081,1268.363l-34.475,184.396
				c-1.816,9.718,7.993,17.499,17.042,13.518l171.02-75.238c11.348-4.992,17.283-17.672,13.642-29.523
				c-10.214-33.248-42.52-94.942-142.939-110.523C928.948,1249.221,918.206,1256.999,916.081,1268.363z"/>
			<path style="opacity:0.6;fill:#FFFFFF;" d="M766.007,1639.678c-0.66,0-1.327-0.099-1.987-0.305
				c-20.067-6.309-119.911-44.261-115.021-172.283c4.353-113.935,136.404-169.076,142.02-171.366
				c3.386-1.376,7.237,0.242,8.616,3.622c1.383,3.381-0.241,7.238-3.62,8.621c-1.297,0.53-129.778,54.268-133.803,159.628
				c-4.412,115.445,79.844,151.012,105.774,159.163c3.481,1.096,5.418,4.808,4.323,8.291
				C771.422,1637.871,768.815,1639.678,766.007,1639.678z"/>
			<path style="opacity:0.6;fill:#FFFFFF;" d="M904.849,1439.433c-0.581,0-1.168-0.078-1.756-0.238
				c-3.521-0.969-5.59-4.607-4.623-8.128l38.691-140.723c1.818-6.615,6.135-12.064,12.154-15.346
				c6.006-3.272,12.909-3.95,19.433-1.901c20.337,6.385,58.768,23.201,87.684,64.082c2.109,2.981,1.399,7.106-1.581,9.215
				c-2.977,2.112-7.105,1.402-9.217-1.579c-26.673-37.711-62.104-53.217-80.847-59.102c-3.066-0.959-6.313-0.647-9.144,0.896
				c-2.838,1.548-4.874,4.118-5.732,7.24l-38.691,140.723C910.413,1437.508,907.753,1439.433,904.849,1439.433z"/>
		</g>
		<g>
			<g>
				
					<linearGradient id="SVGID_00000066516655707491510520000015129593904180195243_" gradientUnits="userSpaceOnUse" x1="1125.6943" y1="1780.3268" x2="2810.4241" y2="1780.3268">
					<stop  offset="0" style="stop-color:#09005D"/>
					<stop  offset="1" style="stop-color:#1A0F91"/>
				</linearGradient>
				<path style="fill:url(#SVGID_00000066516655707491510520000015129593904180195243_);" d="M1153.252,600.674
					c-8.87,418.573-37.637,1862.386-23.904,2374.03c1.455,54.203,38.598,97.708,84.931,99.482
					c229.158,8.773,1069.24,31.008,1444.065,12.612c78.07-3.832,140.155-77.811,141.775-169.203
					c7.79-439.346,24.973-1675.056-15.871-2241.136c-4.896-67.824-50.4-121.836-108.294-128.612
					c-249.564-29.207-1093.258-100.599-1417.086-76.015C1200.466,476.267,1154.702,532.23,1153.252,600.674z"/>
				<path style="fill:#91B3FA;" d="M1255.502,729.095c-12.334,337.851-51.242,1461.799-38.893,1877.41
					c1.805,60.748,42.731,109.867,94.601,113.419c213.565,14.62,942.193,46.857,1255.439,17.513
					c56.405-5.284,100.667-58.649,103.711-124.75c15.875-344.677,61.452-1391.23,49.616-1802.186
					c-1.889-65.558-45.298-119.099-101.146-124.964c-231.042-24.269-1005.293-82.01-1271.48-65.021
					C1297.381,623.708,1257.637,670.606,1255.502,729.095z"/>
				<path style="opacity:0.5;fill:#FFFFFF;" d="M1719.593,544.973L1719.593,544.973c0,12.843,8.556,23.437,19.519,24.107
					c54.126,3.316,206.599,12.699,274.742,17.323c13.436,0.913,23.981-13.216,21.432-28.675l-0.434-2.638
					c-1.74-10.548-9.218-18.488-18.362-19.468c-46.062-4.938-185.048-18.629-277.135-14.784
					C1728.295,521.301,1719.593,532.024,1719.593,544.973z"/>
			</g>
			<g>
				<path style="opacity:0.74;fill:#FFFFFF;" d="M1372.704,1653.41v197.857c0,16.123,13.07,29.194,29.194,29.194h958.913
					c13.396,0,25.073,9.118,28.323,22.114l17.221,68.886c2.284,9.135,14.974,9.891,18.326,1.092l22.173-58.202
					c4.313-11.321,15.167-18.802,27.281-18.802h41.215c16.124,0,29.195-13.07,29.195-29.194v-203.388
					c0-16.025-12.919-29.056-28.944-29.193l-1113.453-9.558C1385.928,1624.078,1372.704,1637.189,1372.704,1653.41z"/>
				<path style="opacity:0.74;fill:#FFFFFF;" d="M2544.545,2030.612v197.857c0,16.123-13.071,29.194-29.195,29.194h-958.913
					c-13.396,0-25.073,9.117-28.323,22.114l-17.221,68.886c-2.284,9.135-14.974,9.891-18.327,1.091l-22.172-58.202
					c-4.313-11.321-15.168-18.801-27.282-18.801h-41.215c-16.124,0-29.194-13.071-29.194-29.194V2040.17
					c0-16.026,12.919-29.056,28.943-29.193l1113.453-9.558C2531.321,2001.28,2544.545,2014.391,2544.545,2030.612z"/>
				<g>
					<ellipse style="fill:#7D97F4;" cx="1508.496" cy="1742.154" rx="95.558" ry="98.073"/>
					<g>
						<path style="fill:#FFFFFF;" d="M1479.843,1783.427c7.12,2.064,37.245,9.652,66.917,0.061c0.799-0.258,1.619,0.326,1.619,1.166
							v2.266c0,0.481-0.28,0.92-0.718,1.119c-5.167,2.347-37.371,15.632-68.773-2.355c-0.383-0.22-0.621-0.632-0.621-1.074l0,0
							C1478.268,1783.788,1479.055,1783.199,1479.843,1783.427z"/>
						<path style="fill:#FFFFFF;" d="M1450.937,1687.881c0,1.969-1.596,3.565-3.566,3.565c-1.968,0-3.565-1.596-3.565-3.565
							s1.596-3.565,3.565-3.565C1449.341,1684.316,1450.937,1685.913,1450.937,1687.881z"/>
						<path style="fill:#FFFFFF;" d="M1447.371,1717.339c0,0,8.514,1.09,13.169-10.025l-2.263-4.665
							c-0.77-1.588-2.69-2.24-4.268-1.451l-4.887,2.443c-1.074,0.536-1.752,1.634-1.752,2.834V1717.339z"/>
						<path style="fill:#FFFFFF;" d="M1447.702,1689.644l3.235,17.251l3.565-2.377l-6.424-14.989
							C1447.985,1689.313,1447.659,1689.412,1447.702,1689.644z"/>
						<path style="fill:#FFFFFF;" d="M1572.145,1687.881c0,1.969,1.596,3.565,3.566,3.565c1.968,0,3.565-1.596,3.565-3.565
							s-1.596-3.565-3.565-3.565C1573.741,1684.316,1572.145,1685.913,1572.145,1687.881z"/>
						<path style="fill:#FFFFFF;" d="M1575.71,1717.339c0,0-8.514,1.09-13.169-10.025l2.263-4.665
							c0.77-1.588,2.689-2.24,4.267-1.451l4.887,2.443c1.074,0.536,1.752,1.634,1.752,2.834V1717.339z"/>
						<path style="fill:#FFFFFF;" d="M1575.38,1689.644l-3.235,17.251l-3.565-2.377l6.424-14.989
							C1575.096,1689.313,1575.423,1689.412,1575.38,1689.644z"/>
						<path style="fill:#FFFFFF;" d="M1512.729,1693.823c-38.721,0-76.052,21.077-76.052,46.343
							c0,25.268,37.331,45.156,76.052,45.156c38.721,0,70.111-20.483,70.111-45.749
							C1582.84,1714.306,1551.45,1693.823,1512.729,1693.823z M1490.151,1767.499c-1.313,0-2.377-1.064-2.377-2.377
							c0-1.313,1.064-2.376,2.377-2.376c1.313,0,2.377,1.063,2.377,2.376C1492.528,1766.435,1491.464,1767.499,1490.151,1767.499z
							 M1497.281,1768.688c-1.312,0-2.377-1.064-2.377-2.377c0-1.313,1.064-2.377,2.377-2.377c1.313,0,2.377,1.064,2.377,2.377
							C1499.658,1767.624,1498.594,1768.688,1497.281,1768.688z M1504.411,1769.874c-1.312,0-2.377-1.064-2.377-2.375
							c0-1.313,1.064-2.377,2.377-2.377c1.313,0,2.377,1.064,2.377,2.377C1506.787,1768.811,1505.724,1769.874,1504.411,1769.874z
							 M1511.541,1769.874c-1.313,0-2.377-1.064-2.377-2.375c0-1.313,1.064-2.377,2.377-2.377c1.312,0,2.377,1.064,2.377,2.377
							C1513.918,1768.811,1512.854,1769.874,1511.541,1769.874z M1518.671,1769.874c-1.312,0-2.377-1.064-2.377-2.375
							c0-1.313,1.064-2.377,2.377-2.377s2.377,1.064,2.377,2.377C1521.048,1768.811,1519.983,1769.874,1518.671,1769.874z
							 M1525.801,1768.688c-1.313,0-2.377-1.064-2.377-2.377c0-1.313,1.064-2.377,2.377-2.377c1.313,0,2.376,1.064,2.376,2.377
							C1528.177,1767.624,1527.114,1768.688,1525.801,1768.688z M1532.931,1767.499c-1.312,0-2.377-1.064-2.377-2.377
							c0-1.313,1.064-2.376,2.377-2.376c1.313,0,2.377,1.063,2.377,2.376C1535.307,1766.435,1534.243,1767.499,1532.931,1767.499z"
							/>
					</g>
				</g>
				<path style="opacity:0.74;fill:#FFFFFF;" d="M1372.704,2407.814v197.857c0,16.124,13.07,29.194,29.194,29.194h958.913
					c13.396,0,25.073,9.117,28.323,22.114l17.221,68.886c2.284,9.135,14.974,9.892,18.326,1.092l22.173-58.202
					c4.313-11.321,15.167-18.802,27.281-18.802h41.215c16.124,0,29.195-13.071,29.195-29.194v-203.387
					c0-16.026-12.919-29.056-28.944-29.194l-1113.453-9.558C1385.928,2378.482,1372.704,2391.593,1372.704,2407.814z"/>
				<g>
					<ellipse style="fill:#7D97F4;" cx="2408.752" cy="2119.356" rx="95.558" ry="98.072"/>
					<g>
						<path style="fill:#FFFFFF;" d="M2443.371,2079.604c0,17.617-14.282,36.637-31.899,36.637
							c-17.617,0-31.899-19.02-31.899-36.637c0-17.617,14.281-30.115,31.899-30.115
							C2429.09,2049.489,2443.371,2061.987,2443.371,2079.604z"/>
						<path style="fill:#FFFFFF;" d="M2371.886,2184.068h77.871c8.197,0,15.454-5.297,17.952-13.105l4.19-13.097
							c3.068-9.589-1.92-19.972-11.376-23.429c-31.69-11.587-64.46-10.101-98.028,1.069c-9.404,3.129-14.622,13.188-12.028,22.753
							l3.227,11.894C2355.923,2178.367,2363.377,2184.068,2371.886,2184.068z"/>
					</g>
				</g>
			</g>
			<g>
				
					<linearGradient id="SVGID_00000001653550670960214740000016844892051776757157_" gradientUnits="userSpaceOnUse" x1="1242.5424" y1="144.5663" x2="1945.3362" y2="1484.532" gradientTransform="matrix(0.9998 0.0204 -0.0204 0.9998 90.8484 -19.9523)">
					<stop  offset="0" style="stop-color:#09005D"/>
					<stop  offset="1" style="stop-color:#1A0F91"/>
				</linearGradient>
				<path style="fill:url(#SVGID_00000001653550670960214740000016844892051776757157_);" d="M2388.109,1510.214l-837.885-17.069
					c-37.298-0.76-67.193-31.898-66.433-69.196v0c0.76-37.298,31.898-67.193,69.196-66.433l837.886,17.069
					c37.298,0.76,67.192,31.898,66.433,69.196v0C2456.545,1481.079,2425.407,1510.974,2388.109,1510.214z"/>
				
					<linearGradient id="SVGID_00000155825856884167452100000002149561312945133976_" gradientUnits="userSpaceOnUse" x1="1559.6228" y1="652.1088" x2="2431.9253" y2="1908.6378" gradientTransform="matrix(0.9998 0.0204 -0.0204 0.9998 90.8484 -19.9523)">
					<stop  offset="0" style="stop-color:#4F52FF"/>
					<stop  offset="1" style="stop-color:#4042E2"/>
				</linearGradient>
				<path style="fill:url(#SVGID_00000155825856884167452100000002149561312945133976_);" d="M2598.137,1322.648
					c-1.773,87.028-74.429,156.783-161.457,155.01l-919.263-18.727c-87.029-1.773-156.783-74.428-155.01-161.457l4.287-210.476
					c3.231-158.585,135.625-285.694,294.211-282.463l659.056,13.425c158.586,3.231,285.694,135.626,282.464,294.211
					L2598.137,1322.648z"/>
				<g>
					
						<linearGradient id="SVGID_00000033358285563599038240000002553459569865298623_" gradientUnits="userSpaceOnUse" x1="1965.6619" y1="668.9029" x2="1965.6619" y2="1351.475">
						<stop  offset="0" style="stop-color:#09005D"/>
						<stop  offset="1" style="stop-color:#1A0F91"/>
					</linearGradient>
					<path style="fill:url(#SVGID_00000033358285563599038240000002553459569865298623_);" d="M2429.488,1196.241
						c-0.934,45.856-36.534,83.633-82.275,87.001c-247.581,18.23-503.934,13.708-767.342-15.869
						c-45.707-5.132-79.988-44.347-79.052-90.331l0.982-48.208c0.931-45.712,36.349-83.376,81.929-86.969
						c256.961-20.257,513.608-19.493,769.758,14.445c44.826,5.939,77.936,44.864,77.015,90.073L2429.488,1196.241z"/>
					<g>
						
							<ellipse transform="matrix(0.0985 -0.9951 0.9951 0.0985 394.1207 2750.198)" style="fill:#7D97F4;" cx="1715.034" cy="1157.564" rx="56.422" ry="56.422"/>
						<path style="fill:#7D97F4;" d="M2272.662,1168.923c-0.635,31.155-26.405,55.896-57.56,55.261
							c-31.154-0.635-55.896-26.405-55.261-57.56c0.635-31.154,26.405-55.896,57.56-55.261
							C2248.555,1111.999,2273.296,1137.769,2272.662,1168.923z"/>
					</g>
					<g>
						<path style="fill:#7D97F4;" d="M1715.134,1236.048c-0.083-1.871,1.335-3.409,3.148-3.493l0,0
							c1.871-0.083,3.409,1.335,3.492,3.207l0,0c0.084,1.81-1.334,3.35-3.206,3.433l0,0c-0.059-0.001-0.121-0.003-0.18-0.004l0,0
							C1716.64,1239.155,1715.16,1237.797,1715.134,1236.048z M1698.157,1237.572c-1.8-0.399-2.909-2.17-2.572-3.971l0,0
							c0.399-1.803,2.172-2.971,3.972-2.572l0,0c1.803,0.399,2.913,2.109,2.575,3.972l0,0c-0.335,1.56-1.745,2.676-3.311,2.645l0,0
							C1698.58,1237.639,1698.399,1237.577,1698.157,1237.572z M1734.604,1233.55c-0.509-1.76,0.436-3.61,2.254-4.115l0,0
							c1.761-0.568,3.61,0.436,4.116,2.195l0,0c0.568,1.761-0.436,3.61-2.196,4.175l0,0l0,0l0,0c-0.364,0.113-0.724,0.106-1.027,0.1
							l0,0C1736.306,1235.875,1735.057,1235.008,1734.604,1233.55z M1678.816,1230.847c-1.671-0.82-2.292-2.821-1.476-4.432l0,0
							c0.759-1.675,2.76-2.359,4.434-1.538l0,0c1.671,0.817,2.295,2.82,1.476,4.432l0,0c-0.567,1.254-1.788,1.892-3.053,1.866l0,0
							C1679.775,1231.167,1679.294,1231.098,1678.816,1230.847z M1752.902,1226.326c-0.993-1.589-0.468-3.628,1.119-4.621l0,0
							c1.527-0.935,3.568-0.41,4.562,1.118l0,0c0.933,1.585,0.468,3.628-1.119,4.621l0,0l0,0l0,0
							c-0.552,0.351-1.217,0.458-1.82,0.446l0,0C1754.56,1227.867,1753.486,1227.301,1752.902,1226.326z M1661.741,1219.522
							c-1.366-1.173-1.561-3.288-0.328-4.709l0,0c1.173-1.363,3.287-1.502,4.712-0.328l0,0c1.363,1.176,1.5,3.287,0.325,4.712l0,0
							c-0.678,0.769-1.652,1.171-2.617,1.151l0,0C1663.112,1220.333,1662.331,1220.078,1661.741,1219.522z M1768.758,1214.768
							c-1.302-1.293-1.318-3.404-0.024-4.765l0,0c1.293-1.299,3.401-1.318,4.703-0.025l0,0c1.302,1.292,1.318,3.404,0.025,4.706l0,0
							l0,0l0,0c-0.677,0.708-1.528,0.993-2.432,0.975l0,0C1770.186,1215.642,1769.409,1215.323,1768.758,1214.768z
							 M1647.999,1204.348c-1.055-1.529-0.651-3.573,0.816-4.627l0,0c1.529-1.055,3.634-0.712,4.689,0.817l0,0
							c1.055,1.529,0.651,3.573-0.878,4.626l0,0c-0.553,0.413-1.279,0.639-1.944,0.626l0,0
							C1649.657,1205.769,1648.643,1205.265,1647.999,1204.348z M1781.308,1199.585c-1.609-0.937-2.11-2.938-1.235-4.548l0,0
							c0.94-1.609,2.999-2.109,4.548-1.232l0,0c1.61,0.937,2.171,2.998,1.235,4.548l0,0l0,0l0,0
							c-0.627,1.133-1.784,1.713-2.991,1.688l0,0C1782.385,1200.031,1781.784,1199.898,1781.308,1199.585z M1638.477,1186.243
							L1638.477,1186.243L1638.477,1186.243c-0.628-1.7,0.254-3.672,1.958-4.3l0,0c1.7-0.631,3.614,0.253,4.3,1.954l0,0
							c0.631,1.703-0.254,3.675-1.954,4.303l0,0c-0.426,0.112-0.849,0.224-1.273,0.216l0,0
							C1640.241,1188.39,1638.992,1187.581,1638.477,1186.243z M1789.691,1181.785c-1.801-0.458-2.848-2.29-2.328-4.087l0,0
							c0.515-1.739,2.347-2.788,4.087-2.328l0,0c1.797,0.519,2.847,2.349,2.328,4.087l0,0c0,0,0,0-0.001,0.059l0,0
							c-0.392,1.441-1.799,2.437-3.306,2.406l0,0C1790.231,1181.917,1789.932,1181.852,1789.691,1181.785z M1633.757,1166.306
							c-0.205-1.812,1.157-3.474,2.969-3.679l0,0c1.815-0.201,3.475,1.157,3.679,2.969l0,0c0.204,1.815-1.157,3.475-2.969,3.679l0,0
							c-0.121-0.002-0.3-0.006-0.421-0.009l0,0C1635.387,1169.234,1633.964,1168.001,1633.757,1166.306z M1790.091,1159.12
							c0.001-0.062,0.001-0.062,0.002-0.121l0,0c0.001-0.062,0.002-0.121,0.005-0.241l0,0c0.037-1.81,1.516-3.288,3.385-3.25l0,0
							c1.807,0.037,3.284,1.574,3.247,3.384l0,0c-0.001,0.059-0.002,0.121-0.004,0.18l0,0c-0.001,0.062-0.002,0.121-0.004,0.182l0,0
							c-0.037,1.807-1.513,3.285-3.381,3.247l0,0C1791.531,1162.465,1790.055,1160.927,1790.091,1159.12z M1790.099,1158.758
							L1790.099,1158.758L1790.099,1158.758l-0.001,0.059l0,0C1790.099,1158.758,1790.098,1158.817,1790.099,1158.758z
							 M1636.991,1149.609c-1.864-0.28-3.097-1.933-2.877-3.739l0,0c0.28-1.861,1.992-3.092,3.794-2.817l0,0
							c1.806,0.219,3.097,1.933,2.818,3.738l0,0c-0.214,1.683-1.685,2.919-3.374,2.885l0,0
							C1637.232,1149.672,1637.112,1149.611,1636.991,1149.609z M1788.068,1140.081c-0.448-1.755,0.677-3.602,2.434-3.99l0,0
							c1.817-0.446,3.605,0.677,4.052,2.435l0,0c0.384,1.816-0.677,3.605-2.497,4.051l0,0c-0.301,0.053-0.543,0.048-0.843,0.042l0,0
							C1789.766,1142.589,1788.399,1141.595,1788.068,1140.081z M1641.363,1130.461c-1.676-0.699-2.479-2.644-1.781-4.379l0,0
							c0.696-1.673,2.644-2.479,4.379-1.781l0,0c1.673,0.697,2.479,2.645,1.778,4.38l0,0c-0.567,1.254-1.85,2.073-3.178,2.046l0,0
							C1642.202,1130.719,1641.781,1130.59,1641.363,1130.461z M1781.429,1122.519L1781.429,1122.519
							c-0.87-1.646-0.225-3.685,1.36-4.495l0,0c1.646-0.87,3.622-0.289,4.495,1.358l0,0l0,0l0,0c0.87,1.646,0.286,3.624-1.36,4.495
							l0,0c-0.548,0.289-1.092,0.399-1.633,0.388l0,0C1783.143,1124.241,1782.01,1123.615,1781.429,1122.519z M1650.46,1113.035
							c-1.484-1.176-1.801-3.232-0.687-4.716l0,0c1.115-1.423,3.233-1.742,4.656-0.63l0,0c1.485,1.117,1.805,3.173,0.688,4.658l0,0
							c-0.681,0.89-1.714,1.352-2.739,1.331l0,0C1651.716,1113.664,1650.996,1113.47,1650.46,1113.035z M1770.589,1107.101
							L1770.589,1107.101c-1.239-1.353-1.137-3.462,0.217-4.701l0,0c1.412-1.238,3.518-1.133,4.76,0.218l0,0
							c1.239,1.353,1.134,3.462-0.217,4.701l0,0c-0.678,0.59-1.525,0.873-2.311,0.857l0,0
							C1772.134,1108.158,1771.237,1107.839,1770.589,1107.101z M1663.544,1098.346c-1.117-1.41-0.891-3.513,0.52-4.692l0,0
							c1.468-1.116,3.513-0.895,4.692,0.516l0,0c1.115,1.472,0.893,3.578-0.517,4.695l0,0c-0.677,0.528-1.402,0.755-2.188,0.739l0,0
							C1665.147,1099.586,1664.193,1099.145,1663.544,1098.346z M1756.304,1094.871L1756.304,1094.871
							c-1.546-0.998-1.927-3.116-0.931-4.604l0,0c0.997-1.546,3.115-1.986,4.602-0.99l0,0l0,0l0,0
							c1.548,1.056,1.989,3.115,0.991,4.664l0,0c-0.682,0.949-1.779,1.472-2.865,1.449l0,0
							C1757.501,1095.378,1756.9,1095.245,1756.304,1094.871z M1679.868,1087.404c-0.748-1.705,0.016-3.68,1.66-4.43l0,0
							c1.702-0.749,3.677,0.016,4.426,1.719l0,0c0.753,1.644-0.012,3.619-1.717,4.367l0,0c-0.426,0.233-0.911,0.344-1.393,0.333l0,0
							C1681.577,1089.367,1680.388,1088.619,1679.868,1087.404z M1739.469,1086.566L1739.469,1086.566
							c-1.736-0.636-2.664-2.525-2.087-4.262l0,0c0.58-1.737,2.469-2.665,4.264-2.024l0,0c0,0,0,0-0.062-0.001l0,0
							c1.799,0.578,2.726,2.467,2.087,4.203l0,0c-0.453,1.44-1.796,2.316-3.182,2.288l0,0
							C1740.127,1086.761,1739.766,1086.692,1739.469,1086.566z M1698.396,1080.844c-0.325-1.815,0.917-3.538,2.73-3.802l0,0
							c1.815-0.325,3.54,0.855,3.865,2.67l0,0c0.266,1.816-0.917,3.541-2.732,3.866l0,0c-0.243,0.054-0.422,0.05-0.663,0.045l0,0
							C1700.089,1083.593,1698.663,1082.478,1698.396,1080.844z M1721.031,1082.754L1721.031,1082.754
							c-1.805-0.157-3.221-1.753-3.062-3.619l0,0c0.157-1.808,1.754-3.162,3.622-3.063l0,0l0,0l0,0
							c1.805,0.158,3.159,1.752,3.062,3.62l0,0c-0.156,1.746-1.692,3.101-3.381,3.067l0,0
							C1721.151,1082.756,1721.092,1082.755,1721.031,1082.754z"/>
					</g>
					<g>
						<path style="fill:#7D97F4;" d="M2216.077,1246.252c-0.083-1.871,1.336-3.409,3.148-3.493l0,0
							c1.871-0.083,3.409,1.335,3.492,3.207l0,0c0.084,1.809-1.334,3.35-3.206,3.433l0,0c-0.059-0.001-0.121-0.003-0.179-0.004l0,0
							C2217.584,1249.36,2216.104,1248.002,2216.077,1246.252z M2199.101,1247.776c-1.8-0.399-2.909-2.17-2.572-3.971l0,0
							c0.399-1.803,2.172-2.971,3.972-2.572l0,0c1.802,0.399,2.913,2.109,2.575,3.972l0,0c-0.335,1.56-1.745,2.676-3.311,2.645l0,0
							C2199.523,1247.844,2199.342,1247.781,2199.101,1247.776z M2235.548,1243.755c-0.509-1.76,0.436-3.61,2.254-4.115l0,0
							c1.76-0.568,3.61,0.435,4.116,2.195l0,0c0.568,1.761-0.436,3.61-2.196,4.175l0,0l0,0l0,0c-0.365,0.113-0.724,0.106-1.027,0.1
							l0,0C2237.249,1246.08,2236.001,1245.213,2235.548,1243.755z M2179.759,1241.052c-1.67-0.82-2.292-2.821-1.476-4.432l0,0
							c0.758-1.675,2.76-2.358,4.433-1.538l0,0c1.671,0.817,2.295,2.821,1.476,4.432l0,0c-0.567,1.255-1.788,1.892-3.053,1.867l0,0
							C2180.719,1241.372,2180.237,1241.303,2179.759,1241.052z M2253.845,1236.531c-0.992-1.59-0.468-3.628,1.119-4.621l0,0
							c1.527-0.935,3.568-0.41,4.562,1.118l0,0c0.934,1.585,0.468,3.628-1.119,4.62l0,0l0,0l0,0
							c-0.552,0.351-1.216,0.458-1.82,0.446l0,0C2255.504,1238.072,2254.429,1237.505,2253.845,1236.531z M2162.685,1229.727
							c-1.366-1.174-1.561-3.288-0.328-4.709l0,0c1.173-1.363,3.288-1.502,4.712-0.328l0,0c1.363,1.176,1.5,3.287,0.325,4.712l0,0
							c-0.678,0.769-1.652,1.171-2.617,1.151l0,0C2164.055,1230.538,2163.274,1230.283,2162.685,1229.727z M2269.702,1224.972
							c-1.302-1.292-1.318-3.404-0.024-4.764l0,0c1.292-1.299,3.401-1.318,4.703-0.025l0,0c1.302,1.292,1.318,3.404,0.025,4.706l0,0
							l0,0l0,0c-0.677,0.708-1.528,0.994-2.431,0.975l0,0C2271.129,1225.846,2270.353,1225.527,2269.702,1224.972z
							 M2148.943,1214.553c-1.056-1.529-0.652-3.573,0.815-4.627l0,0c1.529-1.055,3.634-0.712,4.689,0.817l0,0
							c1.056,1.529,0.652,3.573-0.877,4.626l0,0c-0.553,0.413-1.279,0.639-1.944,0.626l0,0
							C2150.601,1215.974,2149.586,1215.47,2148.943,1214.553z M2282.251,1209.79c-1.609-0.937-2.11-2.938-1.235-4.548l0,0
							c0.94-1.609,3-2.109,4.548-1.232l0,0c1.609,0.937,2.171,2.998,1.235,4.548l0,0l0,0l0,0c-0.627,1.133-1.784,1.712-2.991,1.688
							l0,0C2283.329,1210.236,2282.728,1210.103,2282.251,1209.79z M2139.42,1196.447L2139.42,1196.447L2139.42,1196.447
							c-0.628-1.7,0.254-3.672,1.958-4.3l0,0c1.7-0.631,3.614,0.253,4.301,1.954l0,0c0.631,1.703-0.254,3.676-1.954,4.303l0,0
							c-0.427,0.112-0.85,0.224-1.274,0.216l0,0C2141.185,1198.595,2139.935,1197.786,2139.42,1196.447z M2290.635,1191.99
							c-1.802-0.458-2.848-2.29-2.329-4.087l0,0c0.515-1.739,2.348-2.788,4.087-2.328l0,0c1.797,0.519,2.847,2.349,2.329,4.087l0,0
							c0,0,0,0-0.001,0.059l0,0c-0.391,1.441-1.799,2.437-3.306,2.406l0,0C2291.174,1192.121,2290.875,1192.057,2290.635,1191.99z
							 M2134.7,1176.511c-0.205-1.812,1.157-3.474,2.969-3.679l0,0c1.815-0.201,3.474,1.157,3.679,2.97l0,0
							c0.204,1.815-1.157,3.475-2.969,3.679l0,0c-0.121-0.002-0.3-0.006-0.421-0.009l0,0
							C2136.331,1179.438,2134.907,1178.205,2134.7,1176.511z M2291.035,1169.325c0.001-0.062,0.001-0.062,0.002-0.121l0,0
							c0.001-0.062,0.003-0.121,0.005-0.242l0,0c0.037-1.81,1.516-3.288,3.385-3.249l0,0c1.807,0.037,3.283,1.574,3.247,3.384l0,0
							c-0.001,0.059-0.003,0.121-0.004,0.18l0,0c-0.001,0.062-0.003,0.121-0.004,0.182l0,0c-0.037,1.807-1.513,3.285-3.382,3.247
							l0,0C2292.474,1172.67,2290.998,1171.132,2291.035,1169.325z M2291.042,1168.963L2291.042,1168.963L2291.042,1168.963
							l-0.001,0.059l0,0C2291.042,1168.963,2291.041,1169.022,2291.042,1168.963z M2137.935,1159.813
							c-1.864-0.279-3.097-1.933-2.877-3.739l0,0c0.28-1.861,1.992-3.093,3.794-2.818l0,0c1.806,0.22,3.096,1.933,2.818,3.738l0,0
							c-0.214,1.683-1.685,2.919-3.375,2.885l0,0C2138.175,1159.877,2138.056,1159.816,2137.935,1159.813z M2289.011,1150.285
							c-0.447-1.755,0.677-3.602,2.434-3.99l0,0c1.817-0.446,3.605,0.677,4.052,2.435l0,0c0.384,1.816-0.677,3.605-2.497,4.051l0,0
							c-0.302,0.053-0.543,0.048-0.843,0.042l0,0C2290.709,1152.793,2289.343,1151.8,2289.011,1150.285z M2142.306,1140.666
							c-1.676-0.699-2.478-2.644-1.781-4.38l0,0c0.697-1.673,2.645-2.478,4.38-1.78l0,0c1.673,0.697,2.478,2.645,1.777,4.379l0,0
							c-0.567,1.255-1.85,2.074-3.178,2.047l0,0C2143.146,1140.924,2142.725,1140.795,2142.306,1140.666z M2282.373,1132.724
							L2282.373,1132.724c-0.871-1.646-0.225-3.685,1.361-4.495l0,0c1.646-0.87,3.622-0.288,4.495,1.358l0,0l0,0l0,0
							c0.87,1.646,0.285,3.624-1.361,4.495l0,0c-0.548,0.289-1.092,0.399-1.633,0.388l0,0
							C2284.086,1134.446,2282.954,1133.819,2282.373,1132.724z M2151.403,1123.24c-1.484-1.176-1.801-3.232-0.687-4.717l0,0
							c1.115-1.423,3.233-1.742,4.656-0.63l0,0c1.485,1.117,1.805,3.173,0.688,4.657l0,0c-0.681,0.89-1.715,1.352-2.739,1.331l0,0
							C2152.66,1123.869,2151.939,1123.675,2151.403,1123.24z M2271.532,1117.306L2271.532,1117.306
							c-1.239-1.353-1.137-3.462,0.217-4.701l0,0c1.412-1.237,3.518-1.133,4.76,0.218l0,0c1.239,1.353,1.134,3.463-0.216,4.701l0,0
							c-0.677,0.59-1.525,0.873-2.311,0.857l0,0C2273.078,1118.363,2272.18,1118.044,2271.532,1117.306z M2164.488,1108.551
							c-1.117-1.409-0.891-3.513,0.52-4.692l0,0c1.469-1.115,3.513-0.894,4.692,0.517l0,0c1.115,1.472,0.893,3.578-0.517,4.695l0,0
							c-0.676,0.528-1.402,0.755-2.188,0.739l0,0C2166.091,1109.791,2165.137,1109.35,2164.488,1108.551z M2257.247,1105.075
							L2257.247,1105.075c-1.546-0.997-1.927-3.116-0.931-4.603l0,0c0.998-1.546,3.115-1.986,4.602-0.99l0,0l0,0l0,0
							c1.548,1.056,1.989,3.115,0.991,4.664l0,0c-0.682,0.949-1.779,1.471-2.865,1.449l0,0
							C2258.444,1105.583,2257.844,1105.449,2257.247,1105.075z M2180.812,1097.608c-0.749-1.705,0.016-3.68,1.659-4.43l0,0
							c1.703-0.749,3.677,0.016,4.426,1.718l0,0c0.752,1.644-0.012,3.619-1.718,4.367l0,0c-0.426,0.232-0.911,0.343-1.394,0.333l0,0
							C2182.521,1099.572,2181.331,1098.823,2180.812,1097.608z M2240.412,1096.77L2240.412,1096.77
							c-1.736-0.636-2.664-2.525-2.086-4.262l0,0c0.58-1.738,2.469-2.665,4.264-2.024l0,0c0,0,0,0-0.062-0.001l0,0
							c1.799,0.579,2.727,2.467,2.088,4.203l0,0c-0.453,1.439-1.796,2.316-3.183,2.288l0,0
							C2241.07,1096.966,2240.709,1096.897,2240.412,1096.77z M2199.34,1091.049c-0.325-1.815,0.917-3.538,2.731-3.802l0,0
							c1.814-0.325,3.54,0.855,3.865,2.67l0,0c0.266,1.817-0.917,3.541-2.731,3.867l0,0c-0.243,0.054-0.423,0.05-0.664,0.045l0,0
							C2201.033,1093.798,2199.607,1092.682,2199.34,1091.049z M2221.974,1092.958L2221.974,1092.958
							c-1.805-0.157-3.221-1.753-3.062-3.62l0,0c0.157-1.807,1.755-3.162,3.622-3.062l0,0l0,0l0,0
							c1.805,0.157,3.159,1.752,3.062,3.62l0,0c-0.156,1.746-1.691,3.101-3.381,3.067l0,0
							C2222.095,1092.961,2222.036,1092.959,2221.974,1092.958z"/>
					</g>
				</g>
				
					<linearGradient id="SVGID_00000150794148612009576060000012195121182570620290_" gradientUnits="userSpaceOnUse" x1="1398.275" y1="668.3171" x2="1460.8955" y2="668.3171">
					<stop  offset="0" style="stop-color:#4F52FF"/>
					<stop  offset="1" style="stop-color:#4042E2"/>
				</linearGradient>
				<path style="fill:url(#SVGID_00000150794148612009576060000012195121182570620290_);" d="M1460.889,668.955
					c-0.352,17.289-14.653,31.018-31.941,30.666c-17.289-0.352-31.018-14.653-30.666-31.941
					c0.352-17.288,14.653-31.018,31.942-30.666C1447.511,637.366,1461.241,651.666,1460.889,668.955z"/>
				
					<linearGradient id="SVGID_00000181083826368670631780000004045031439286669718_" gradientUnits="userSpaceOnUse" x1="1352.4935" y1="847.3043" x2="1468.1544" y2="847.3043" gradientTransform="matrix(0.9998 0.0204 -0.0204 0.9998 90.8484 -19.9523)">
					<stop  offset="0" style="stop-color:#09005D"/>
					<stop  offset="1" style="stop-color:#1A0F91"/>
				</linearGradient>
				<path style="fill:url(#SVGID_00000181083826368670631780000004045031439286669718_);" d="M1424.317,926.982
					c0,0,74.562,11.089,117.43-85.672l-19.037-41.364c-6.48-14.08-23.213-20.151-37.213-13.504l-43.351,20.583
					c-9.522,4.521-15.672,14.033-15.886,24.571L1424.317,926.982z"/>
				
					<linearGradient id="SVGID_00000031916240704677878510000013903147215028307606_" gradientUnits="userSpaceOnUse" x1="1432.1443" y1="755.7565" x2="1485.2743" y2="755.7565">
					<stop  offset="0" style="stop-color:#4F52FF"/>
					<stop  offset="1" style="stop-color:#4042E2"/>
				</linearGradient>
				<path style="fill:url(#SVGID_00000031916240704677878510000013903147215028307606_);" d="M1435.493,682.915
					c-0.778-1.922-3.662-1.109-3.321,0.936l22.962,137.918c0.522,3.138,2.584,5.804,5.49,7.098c2.906,1.294,6.267,1.044,8.949-0.666
					l8.069-5.145c6.708-4.277,9.41-12.732,6.426-20.107L1435.493,682.915z"/>
				
					<linearGradient id="SVGID_00000134953220314251306230000009775498161887049623_" gradientUnits="userSpaceOnUse" x1="2525.2051" y1="691.2739" x2="2587.8257" y2="691.2739">
					<stop  offset="0" style="stop-color:#4F52FF"/>
					<stop  offset="1" style="stop-color:#4042E2"/>
				</linearGradient>
				<path style="fill:url(#SVGID_00000134953220314251306230000009775498161887049623_);" d="M2525.212,690.636
					c-0.352,17.289,13.377,31.589,30.666,31.941c17.288,0.352,31.589-13.377,31.941-30.666
					c0.353-17.288-13.378-31.589-30.666-31.941C2539.865,659.618,2525.564,673.348,2525.212,690.636z"/>
				
					<linearGradient id="SVGID_00000137848297541966853130000014400334537173875640_" gradientUnits="userSpaceOnUse" x1="2363.988" y1="847.2697" x2="2479.6511" y2="847.2697" gradientTransform="matrix(0.9998 0.0204 -0.0204 0.9998 90.8484 -19.9523)">
					<stop  offset="0" style="stop-color:#09005D"/>
					<stop  offset="1" style="stop-color:#1A0F91"/>
				</linearGradient>
				<path style="fill:url(#SVGID_00000137848297541966853130000014400334537173875640_);" d="M2551.246,949.939
					c0,0-74.952,8.044-113.844-90.384L2458.108,819c7.048-13.804,24.015-19.189,37.733-11.977l42.477,22.331
					c9.33,4.904,15.087,14.659,14.872,25.197L2551.246,949.939z"/>
				
					<linearGradient id="SVGID_00000085229025546040455780000007449694030994745771_" gradientUnits="userSpaceOnUse" x1="2495.1248" y1="777.7074" x2="2553.3411" y2="777.7074">
					<stop  offset="0" style="stop-color:#4F52FF"/>
					<stop  offset="1" style="stop-color:#4042E2"/>
				</linearGradient>
				<path style="fill:url(#SVGID_00000085229025546040455780000007449694030994745771_);" d="M2553.299,706.69l-28.436,136.273
					c-0.677,3.246-2.938,5.935-6.02,7.16s-6.572,0.822-9.292-1.073l-7.353-5.122c-6.529-4.547-8.884-13.104-5.602-20.352
					l53.422-117.957C2550.874,703.731,2553.722,704.661,2553.299,706.69z"/>
				<path style="fill:#7D97F4;" d="M1637.261,963.976c-16.986-0.346-31.191-13.624-32.37-30.897
					c-1.247-18.273,12.555-34.096,30.825-35.343c241.415-16.48,461.67-12.688,673.337,11.594
					c18.196,2.084,31.253,18.528,29.165,36.721c-2.087,18.196-18.469,31.266-36.721,29.166
					c-207.613-23.811-423.912-27.513-661.264-11.313C1639.234,963.972,1638.245,963.996,1637.261,963.976z"/>
				<g>
					<path style="fill:#7D97F4;" d="M1967.431,1311.372c-133.975-2.729-268.883-12.117-403.844-28.152
						c-49.482-5.878-85.978-50.46-84.894-103.699l1.095-53.722c1.076-52.827,39.018-95.851,88.258-100.078
						c290.414-24.919,552.704-20.027,801.869,14.962c48.215,6.771,83.774,51.225,82.711,103.408l-1.132,55.561
						c-1.082,53.107-39.187,96.148-88.636,100.114C2232.626,1310.219,2100.49,1314.082,1967.431,1311.372z M1990.301,1017.087
						c-134.64-2.743-274.561,2.219-421.722,14.851c-46.051,3.95-81.541,44.356-82.552,93.987l-1.094,53.722
						c-1.019,50.016,33.11,91.879,79.392,97.38c268.589,31.905,537.087,37.463,798.036,16.522
						c46.24-3.71,81.877-44.132,82.893-94.024l1.132-55.561c0.999-49.027-32.249-90.772-77.34-97.103
						C2246.58,1029.661,2120.926,1019.748,1990.301,1017.087z"/>
				</g>
			</g>
		</g>
		<g>
			
				<linearGradient id="SVGID_00000024694413694513984520000015640320551752714410_" gradientUnits="userSpaceOnUse" x1="-3599.4077" y1="430.4438" x2="-3945.6938" y2="856.1539" gradientTransform="matrix(-0.9922 -0.1247 -0.1247 0.9922 -1040.9939 715.4178)">
				<stop  offset="0" style="stop-color:#FEBBBA"/>
				<stop  offset="1" style="stop-color:#FF928E"/>
			</linearGradient>
			<path style="fill:url(#SVGID_00000024694413694513984520000015640320551752714410_);" d="M2509.659,1711.891
				c2.254-4.309,8.632-3.63,9.933,1.056c4.82,17.347,16.485,47.618,40.961,58.367c1.233,0.542,2.401,1.089,3.53,1.641
				c1.111-3.328,1.126-7.193-1.533-11.256c-7.61-11.63,6.128-27.513,6.128-27.513s0.909,13.989,11.542,22.797
				c9.158,7.587,13.555,24.47,7.297,38.32c-13.248,51.455-33.084,119.51,44.187,169.228c77.27,49.719,186.088-93.83,186.088-93.83
				l-54.009,171.218c0,0-83.363,61.518-180.33-24.985c-96.966-86.504-32.695-212.378-32.695-212.378
				S2476.799,1774.718,2509.659,1711.891z"/>
			
				<linearGradient id="SVGID_00000004508279225451641910000011876220540726893192_" gradientUnits="userSpaceOnUse" x1="2863.7112" y1="1963.4425" x2="3091.7881" y2="1542.7679">
				<stop  offset="0" style="stop-color:#E1473D"/>
				<stop  offset="1" style="stop-color:#E9605A"/>
			</linearGradient>
			<path style="fill:url(#SVGID_00000004508279225451641910000011876220540726893192_);" d="M2831.323,1619.131
				c0,0-22.387-100.418,92.639-73.835c0,0,55.835-9.124,58.675,43.576c0,0,35.99,23.715,9.639,69.323
				c0,0,106.962-41.314,153.566,52.439c46.604,93.754,3.766,145.341-41.142,158.777c0,0,36.384,18.268,19.162,59.517
				c-17.222,41.249-104.438,70.327-155.958,20.163c0,0-146.598,19.373-143.664-84.176c0,0-68.185-44.031,3.431-129.608
				C2899.285,1649.733,2831.323,1619.131,2831.323,1619.131z"/>
			
				<linearGradient id="SVGID_00000063601150298487324290000017940996321067282092_" gradientUnits="userSpaceOnUse" x1="2735.2246" y1="2073.4744" x2="2992.2349" y2="2073.4744">
				<stop  offset="0" style="stop-color:#4F52FF"/>
				<stop  offset="1" style="stop-color:#4042E2"/>
			</linearGradient>
			<path style="fill:url(#SVGID_00000063601150298487324290000017940996321067282092_);" d="M2825.006,1851.89
				c23.114-6.929,90.414-19.723,154.429,39.352c10.857,10.019,15.294,25.243,11.422,39.5
				c-17.194,63.3-62.559,250.316-22.781,331.235c0,0-70.096,77.271-146.568,14.992c0,0-34.311-149.54-79.251-215.188
				c-31.027-45.322,49.474-170.193,69.842-200.361C2815.182,1856.853,2819.727,1853.474,2825.006,1851.89z"/>
			
				<linearGradient id="SVGID_00000030456084234644107040000016684016502330359431_" gradientUnits="userSpaceOnUse" x1="3419.7722" y1="166.8904" x2="3438.2727" y2="35.5377" gradientTransform="matrix(0.9602 0.2794 -0.2794 0.9602 -402.5896 797.6744)">
				<stop  offset="0" style="stop-color:#FEBBBA"/>
				<stop  offset="1" style="stop-color:#FF928E"/>
			</linearGradient>
			<path style="fill:url(#SVGID_00000030456084234644107040000016684016502330359431_);" d="M2888.826,1726.13
				c0,0,34.184,96.692,36.756,139.349c0,0-37.781,17.179-73.38-11.817c0,0-3.735-96.579-9.133-113.873L2888.826,1726.13z"/>
			
				<linearGradient id="SVGID_00000106831718912950989440000018022926788751257241_" gradientUnits="userSpaceOnUse" x1="3334.9558" y1="-114.5611" x2="3507.9385" y2="84.3226" gradientTransform="matrix(0.9602 0.2794 -0.2794 0.9602 -402.5896 797.6744)">
				<stop  offset="0" style="stop-color:#FEBBBA"/>
				<stop  offset="1" style="stop-color:#FF928E"/>
			</linearGradient>
			<path style="fill:url(#SVGID_00000106831718912950989440000018022926788751257241_);" d="M2841.344,1594.293
				c0,0-89.41,125.125-35.963,161.469c53.446,36.345,117.095-52.576,117.095-52.576s20.747-68.486-0.947-91.718
				C2899.835,1588.235,2841.344,1594.293,2841.344,1594.293z"/>
			
				<linearGradient id="SVGID_00000162347570718404690490000007261373585401846176_" gradientUnits="userSpaceOnUse" x1="2745.2109" y1="1899.1948" x2="2973.2874" y2="1478.5211">
				<stop  offset="0" style="stop-color:#E1473D"/>
				<stop  offset="1" style="stop-color:#E9605A"/>
			</linearGradient>
			<path style="fill:url(#SVGID_00000162347570718404690490000007261373585401846176_);" d="M2882.729,1564.392
				c0,0-41.075,9.733-46.832,28.317c-5.757,18.585,58.249,35.819,76.181,36.662l14.45,74.995c0,0,42.717-70.55,25.795-111.294
				C2935.404,1552.327,2882.729,1564.392,2882.729,1564.392z"/>
			
				<linearGradient id="SVGID_00000044899895065695123340000004203141411672343207_" gradientUnits="userSpaceOnUse" x1="3378.1738" y1="-152.1549" x2="3551.1553" y2="46.7273" gradientTransform="matrix(0.9602 0.2794 -0.2794 0.9602 -402.5896 797.6744)">
				<stop  offset="0" style="stop-color:#FEBBBA"/>
				<stop  offset="1" style="stop-color:#FF928E"/>
			</linearGradient>
			<path style="fill:url(#SVGID_00000044899895065695123340000004203141411672343207_);" d="M2905.142,1693.979
				c0,0,34.802-40.304,48.644-14.029c13.842,26.275-31.325,46.002-46.96,33.102L2905.142,1693.979z"/>
			
				<linearGradient id="SVGID_00000090269279224407709340000003638745685128679857_" gradientUnits="userSpaceOnUse" x1="-4468.7114" y1="3320.2981" x2="-4056.0129" y2="2591.7969" gradientTransform="matrix(-1 -0.0095 -0.0095 1 -1297.0997 56.9446)">
				<stop  offset="0" style="stop-color:#FEBBBA"/>
				<stop  offset="1" style="stop-color:#FF928E"/>
			</linearGradient>
			<path style="fill:url(#SVGID_00000090269279224407709340000003638745685128679857_);" d="M2732.235,2590.942
				c0.263,6.789-11.656,60.636-18.143,89.359c-2.611,11.556-0.793,23.652,5.092,33.934l224.651,378.098
				c2.718,4.573,4.696,9.528,5.898,14.71c4.117,17.743,12.656,61.228,8.198,100.787l-11.622,24.137l50.262-11.412l10.935-134.976
				l-14.229-8.676c-12.292-7.495-21.865-18.699-27.345-32.012c-20.314-49.344-70.758-174.947-83.761-236.16
				c-14.777-69.568-92.031-126.073-92.031-126.073l13.572-32.087L2732.235,2590.942z"/>
			
				<linearGradient id="SVGID_00000070110707107029373190000004174375634994852282_" gradientUnits="userSpaceOnUse" x1="-4378.7461" y1="3062.7314" x2="-4258.1133" y2="3062.7314" gradientTransform="matrix(-1 -0.0095 -0.0095 1 -1297.0997 56.9446)">
				<stop  offset="0" style="stop-color:#09005D"/>
				<stop  offset="1" style="stop-color:#1A0F91"/>
			</linearGradient>
			<path style="fill:url(#SVGID_00000070110707107029373190000004174375634994852282_);" d="M3052.429,3174.109
				c0,0-27.142-43.031-30.335-59.781c-3.194-16.75-12.083-46.329-28.817-37.425c0,0-7.886,81.369-5.168,113.163
				c2.719,31.794-35.942,30.772-35.942,30.772s-10.655,1.498-18.458,9.298c-5.388,5.387-1.535,14.733,6.068,15.223
				c12.65,0.815,32.747,1.029,53.846-3.048c7.375-1.426,12.841-7.7,13.288-15.198l5.57-93.649l34.238,43.231L3052.429,3174.109z"/>
			
				<linearGradient id="SVGID_00000084501229441751772860000004251879659808687529_" gradientUnits="userSpaceOnUse" x1="-4001.0232" y1="2781.3718" x2="-4618.2275" y2="2978.7339" gradientTransform="matrix(-1 -0.0095 -0.0095 1 -1297.0997 56.9446)">
				<stop  offset="0" style="stop-color:#FEBBBA"/>
				<stop  offset="1" style="stop-color:#FF928E"/>
			</linearGradient>
			<path style="fill:url(#SVGID_00000084501229441751772860000004251879659808687529_);" d="M2866.438,2651.169
				c0,0,7.923,338.206,8.996,386.24c1.073,48.034-7.585,154.482-55.738,186.3l20.953,15.513c0,0,26.185-22.257,51.768-65.089
				c28.738-48.117,37.428-56.909,37.428-56.909l-9.536-19.529c-4.175-8.55-5.402-18.222-3.479-27.541
				c10.391-50.363,45.105-217.877,54.574-253.953c11.178-42.584,11.973-99.451-26.915-147.052
				C2905.602,2621.548,2866.438,2651.169,2866.438,2651.169z"/>
			
				<linearGradient id="SVGID_00000096032835381821069230000006954771738215403142_" gradientUnits="userSpaceOnUse" x1="-4266.9038" y1="3084.5188" x2="-4123.0977" y2="3084.5188" gradientTransform="matrix(-1 -0.0095 -0.0095 1 -1297.0997 56.9446)">
				<stop  offset="0" style="stop-color:#09005D"/>
				<stop  offset="1" style="stop-color:#1A0F91"/>
			</linearGradient>
			<path style="fill:url(#SVGID_00000096032835381821069230000006954771738215403142_);" d="M2910.904,3254.464
				c1.493,0.014,2.764-1.055,2.973-2.535c1.604-11.275,8.273-56.479,13.733-68.183c6.253-13.405,26.679-69.826-0.011-74.616
				c0,0-66.353,96.942-79.09,110.012c-12.738,13.07-28.813,4.566-28.813,4.566s-12.41,3.667-21.769,15.626
				c-4.454,5.692-0.305,14.049,6.923,14.117l44.693,0.427c12.98,0.123,24.654-7.762,29.479-19.812
				c7.867-19.65,21.382-48.471,37.132-61.258l-8.185,78.366C2907.787,3252.923,2909.148,3254.448,2910.904,3254.464
				L2910.904,3254.464z"/>
			
				<linearGradient id="SVGID_00000094614390388919971910000007826338180964235161_" gradientUnits="userSpaceOnUse" x1="2756.095" y1="2681.0374" x2="3141.3105" y2="2093.0767">
				<stop  offset="0" style="stop-color:#FE7062"/>
				<stop  offset="1" style="stop-color:#FF928E"/>
			</linearGradient>
			<path style="fill:url(#SVGID_00000094614390388919971910000007826338180964235161_);" d="M2810.928,2240.504
				c0,0,10.072,32.101-5.401,84.975l-95.981,335.171c-1.508,5.267,1.334,10.779,6.49,12.629
				c28.71,10.304,123.088,39.428,251.924,30.547c6.486-0.447,11.925-5.041,13.336-11.388
				c8.489-38.211,37.453-168.581,43.417-195.369c22.723-102.07,48.096-212.146-63.523-278.704
				C2909.749,2240.397,2861.771,2253.384,2810.928,2240.504z"/>
			
				<linearGradient id="SVGID_00000074418798807108057840000009174986228843996043_" gradientUnits="userSpaceOnUse" x1="-4306.0542" y1="1045.493" x2="-3621.4355" y2="262.3903" gradientTransform="matrix(-0.9922 -0.1247 -0.1247 0.9922 -1040.9939 715.4178)">
				<stop  offset="0" style="stop-color:#FEBBBA"/>
				<stop  offset="1" style="stop-color:#FF928E"/>
			</linearGradient>
			<path style="fill:url(#SVGID_00000074418798807108057840000009174986228843996043_);" d="M2988.594,1903.873
				c0,0,109.205,90.755,136.306,214.769c27.102,124.014-159.577,137.194-159.577,137.194s-25.342-28.299-55.429-18.207
				c-30.086,10.092-2.329-49.39,32.873-49.233c35.201,0.157,18.895,27.991,68.692,5.434c48.509-21.973,78.492-89.93-45.276-192.944
				c-7.175-5.972-12.899-13.584-16.346-22.259C2925.793,1918.1,2944.864,1878.425,2988.594,1903.873z"/>
		</g>
		<g>
			<g>
				<rect x="1117.39" y="2754.622" style="fill:#7D97F4;" width="36.245" height="391.966"/>
				<path style="fill:#7D97F4;" d="M976.786,3154.146h317.452v-8.959c0-8.083-6.552-14.635-14.635-14.635H992.56
					c-8.712,0-15.774,7.063-15.774,15.774V3154.146z"/>
				<path style="fill:#7D97F4;" d="M916.754,2740.164c0,22.783,18.641,41.424,41.424,41.424h341.337
					c22.783,0,41.424-18.641,41.424-41.424v-37.455c0-22.783-18.641-41.424-41.424-41.424H958.178
					c-22.783,0-41.424,18.641-41.424,41.424V2740.164z"/>
			</g>
			<g>
				
					<linearGradient id="SVGID_00000180366842278021307080000000033855434999350462_" gradientUnits="userSpaceOnUse" x1="6293.2285" y1="3001.9551" x2="6229.2461" y2="3127.7874" gradientTransform="matrix(1 0 0 1 -4867.6226 0)">
					<stop  offset="0" style="stop-color:#09005D"/>
					<stop  offset="1" style="stop-color:#1A0F91"/>
				</linearGradient>
				<path style="fill:url(#SVGID_00000180366842278021307080000000033855434999350462_);" d="M1337.39,3077.149
					c0,0,103.498,74.602,85.527,124.721c0,0-113.241-48.859-126.922-87.346s2.314-55.486,2.314-55.486L1337.39,3077.149z"/>
				
					<linearGradient id="SVGID_00000133519867978809178510000010507475002999112072_" gradientUnits="userSpaceOnUse" x1="6171.561" y1="3052.031" x2="6235.2993" y2="3052.031" gradientTransform="matrix(1 0 0 1 -4867.6226 0)">
					<stop  offset="0" style="stop-color:#FEBBBA"/>
					<stop  offset="1" style="stop-color:#FF928E"/>
				</linearGradient>
				<path style="fill:url(#SVGID_00000133519867978809178510000010507475002999112072_);" d="M1321.837,3014.627l-16.923,48.925
					c-2.554,7.383,0,15.79,6.604,19.963c3.308,2.09,7.828,4.022,14.005,5.423c8.718,1.977,17.718-2.05,21.911-9.946l20.244-38.12
					L1321.837,3014.627z"/>
				
					<linearGradient id="SVGID_00000096755484876399870790000013260563171397728663_" gradientUnits="userSpaceOnUse" x1="6083.3584" y1="2883.3831" x2="6354.2173" y2="2503.7537" gradientTransform="matrix(1 0 0 1 -4867.6226 0)">
					<stop  offset="0" style="stop-color:#4F52FF"/>
					<stop  offset="1" style="stop-color:#4042E2"/>
				</linearGradient>
				<path style="fill:url(#SVGID_00000096755484876399870790000013260563171397728663_);" d="M1157.143,2574.262
					c0,0,212.583,36.844,303.773,121.083c91.19,84.239-83.7,352.953-83.7,352.953s-28.655-0.176-63.379-29.94
					c0,0,103.697-202.096,14.329-261.031c-100.472-66.259-216.258-81.18-216.258-81.18l43.179-95.388L1157.143,2574.262z"/>
				
					<linearGradient id="SVGID_00000000902582640233132550000017772888129242562705_" gradientUnits="userSpaceOnUse" x1="6256.0972" y1="3129.1804" x2="6034.2905" y2="3419.2349" gradientTransform="matrix(1 0 0 1 -4867.6226 0)">
					<stop  offset="0" style="stop-color:#09005D"/>
					<stop  offset="1" style="stop-color:#1A0F91"/>
				</linearGradient>
				<path style="fill:url(#SVGID_00000000902582640233132550000017772888129242562705_);" d="M1404.934,3174.15
					c-22.765-10.539-87.212-55.646-98.075-57.636c-10.864-1.99-29.706,10.776-29.706,10.776s-4.582,8.244,0.319,22.621
					c15.127,18.303,48.714,53.195,93.866,66.197c33.214,9.564,56.445,0.648,70.914-9.785
					C1434.291,3194.199,1420.094,3181.169,1404.934,3174.15z"/>
				<path style="fill:#7D97F4;" d="M1371.337,3216.108c-45.152-13.002-78.739-47.893-93.866-66.197
					c3.314,9.715,10.951,22.228,27.276,36.901c40.483,36.385,117.801,49.501,134.263,46.974
					c13.192-2.025,11.949-14.203,3.241-27.464C1427.782,3216.756,1404.551,3225.672,1371.337,3216.108z"/>
				
					<linearGradient id="SVGID_00000042713350850227811270000015823218319431023490_" gradientUnits="userSpaceOnUse" x1="6125.4707" y1="3110.8516" x2="6185.29" y2="3110.8516" gradientTransform="matrix(1 0 0 1 -4867.6226 0)">
					<stop  offset="0" style="stop-color:#FEBBBA"/>
					<stop  offset="1" style="stop-color:#FF928E"/>
				</linearGradient>
				<path style="fill:url(#SVGID_00000042713350850227811270000015823218319431023490_);" d="M1257.848,3095.448
					c0.255,6.272,13.074,27.781,20.566,39.849c3.56,5.735,9.798,9.238,16.548,9.256c4.281,0.012,9.203-0.361,13.672-1.644
					c6.71-1.926,10.477-9.073,8.514-15.773l-14.64-49.989L1257.848,3095.448z"/>
				
					<linearGradient id="SVGID_00000101069758746128513150000002354317912845743796_" gradientUnits="userSpaceOnUse" x1="5985.73" y1="3072.5569" x2="6000.6597" y2="2564.9617" gradientTransform="matrix(1 0 0 1 -4867.6226 0)">
					<stop  offset="0" style="stop-color:#4F52FF"/>
					<stop  offset="1" style="stop-color:#4042E2"/>
				</linearGradient>
				<path style="fill:url(#SVGID_00000101069758746128513150000002354317912845743796_);" d="M952.512,2510.451
					c0,0-47.211,126.239,0,164.629c47.211,38.39,159.837,81.612,184.996,158.076c25.159,76.464,67.855,225.067,124.991,277.696
					c0,0,40.145-3.889,55.168-19.885c0,0-32.542-221.843-54.003-278.765c-18.586-49.294-45.97-120.446-98.449-160.215
					c-15.023-11.384-12.406-29.417-5.44-46.931l12.684-31.894L952.512,2510.451z"/>
				
					<linearGradient id="SVGID_00000078734680034261377880000018178149386345775252_" gradientUnits="userSpaceOnUse" x1="1623.951" y1="1955.2999" x2="1360.3837" y2="2421.6113">
					<stop  offset="0" style="stop-color:#FF928E"/>
					<stop  offset="1" style="stop-color:#FE7062"/>
				</linearGradient>
				<path style="fill:url(#SVGID_00000078734680034261377880000018178149386345775252_);" d="M1444.898,2411.509
					c-79.16,4.773-54.494-121.693-53.067-126.722l-120.144,84.861c0,0,6.361,67.631,106.25,103.106
					c25.272,8.975,48.37,9.372,68.792,4.982C1438.021,2452.341,1439.791,2429.553,1444.898,2411.509z"/>
				
					<linearGradient id="SVGID_00000042016407546794574460000008167521835370937225_" gradientUnits="userSpaceOnUse" x1="6308.2554" y1="2421.031" x2="6516.9272" y2="2421.031" gradientTransform="matrix(1 0 0 1 -4867.6226 0)">
					<stop  offset="0" style="stop-color:#FEBBBA"/>
					<stop  offset="1" style="stop-color:#FF928E"/>
				</linearGradient>
				<path style="fill:url(#SVGID_00000042016407546794574460000008167521835370937225_);" d="M1597.961,2373.446
					c-29.498-20.519-62.916,0-62.916,0c-39.441,25.795-68.621,36.766-90.146,38.063c-5.107,18.044-6.877,40.832,1.831,66.227
					c44.185-9.498,75.796-41.475,89.532-57.883c4.945-5.907,13.702-6.934,19.749-2.161c6.143,4.849,12.108,11.491,11.026,18.481
					c-2.133,13.785,13.863,18.167,15.069,13.168c1.206-5-5.471-34.636-5.471-34.636s31.991,32.17,44.479,44.532
					c12.489,12.362,28.192,0,28.192,0S1627.459,2393.965,1597.961,2373.446z"/>
				
					<linearGradient id="SVGID_00000026864442430486299800000013291186245711308967_" gradientUnits="userSpaceOnUse" x1="1432.8862" y1="1847.3055" x2="1169.3193" y2="2313.6162">
					<stop  offset="0" style="stop-color:#FF928E"/>
					<stop  offset="1" style="stop-color:#FE7062"/>
				</linearGradient>
				<path style="fill:url(#SVGID_00000026864442430486299800000013291186245711308967_);" d="M1075.788,2089.481
					c0,0,115.164-46.11,329.486,130.832c0,0,17.902,37.055-1.628,70.037c-19.53,32.982-205.612,193.69-231.187,282.812
					c0,0-110.86,36.022-225.509-49.398C946.951,2523.764,957.068,2275.728,1075.788,2089.481z"/>
				
					<linearGradient id="SVGID_00000137828633474420900730000000704455885952507013_" gradientUnits="userSpaceOnUse" x1="1430.6554" y1="1927.6194" x2="1262.2506" y2="2185.6011">
					<stop  offset="0" style="stop-color:#FEBBBA"/>
					<stop  offset="1" style="stop-color:#FF928E"/>
				</linearGradient>
				<path style="fill:url(#SVGID_00000137828633474420900730000000704455885952507013_);" d="M1303.453,2048.332l-56.692,68.727
					c-5.629,6.824-6.869,16.316-2.976,24.258c7.869,16.052,26.539,39.42,67.948,36.189c12.318-0.961,23.226-8.394,28.607-19.517
					l39.641-81.945L1303.453,2048.332z"/>
				
					<linearGradient id="SVGID_00000163774576033116749050000005151492998917081253_" gradientUnits="userSpaceOnUse" x1="1270.8195" y1="1755.7028" x2="1007.2522" y2="2222.0139">
					<stop  offset="0" style="stop-color:#FF928E"/>
					<stop  offset="1" style="stop-color:#FE7062"/>
				</linearGradient>
				<path style="fill:url(#SVGID_00000163774576033116749050000005151492998917081253_);" d="M986.627,2383.828
					c-13.369-54.448,122.048-175.833,122.048-175.833l-32.887-118.514c0,0-292.41,194.661-217.893,351.2
					c10.683,22.441,24.87,38.16,41.32,48.672C922.761,2425.974,960.284,2396.908,986.627,2383.828z"/>
				
					<linearGradient id="SVGID_00000170278563921126878580000001114439519577312137_" gradientUnits="userSpaceOnUse" x1="1210.5289" y1="1518.4292" x2="1007.7951" y2="2461.1433">
					<stop  offset="0" style="stop-color:#E1473D"/>
					<stop  offset="1" style="stop-color:#E9605A"/>
				</linearGradient>
				<path style="fill:url(#SVGID_00000170278563921126878580000001114439519577312137_);" d="M986.531,2375.901
					c-1.437,0-2.745-0.975-3.103-2.437c-13.671-55.668,117.435-173.965,123.02-178.976c1.312-1.175,3.333-1.071,4.52,0.246
					c1.179,1.316,1.066,3.341-0.246,4.519c-1.341,1.2-133.842,120.718-121.08,172.687c0.421,1.716-0.629,3.449-2.345,3.87
					C987.044,2375.872,986.785,2375.901,986.531,2375.901z"/>
				
					<linearGradient id="SVGID_00000168817171505771053010000015496420970780706188_" gradientUnits="userSpaceOnUse" x1="925.7581" y1="2519.5322" x2="1466.8054" y2="2318.8794">
					<stop  offset="0" style="stop-color:#FEBBBA"/>
					<stop  offset="1" style="stop-color:#FF928E"/>
				</linearGradient>
				<path style="fill:url(#SVGID_00000168817171505771053010000015496420970780706188_);" d="M1191.734,2379.142
					c0,0-160.554,62.335-199.744,15.448c-2.657-3.18-4.39-6.8-5.363-10.761c-26.343,13.08-63.866,42.146-87.411,105.525
					c84.442,53.958,228.777-30.018,267.805-54.774c6.42-4.073,14.122-5.5,21.566-3.957c15.053,3.121,41.056,7.711,55.081,5.551
					c20.517-3.161,49.986,69.211,83.24,46.888C1326.907,2483.061,1298.432,2357.263,1191.734,2379.142z"/>
				<g>
					
						<linearGradient id="SVGID_00000131345958543847747860000017166821392637427085_" gradientUnits="userSpaceOnUse" x1="1492.4907" y1="1930.413" x2="1263.1737" y2="2098.8174">
						<stop  offset="0" style="stop-color:#FEBBBA"/>
						<stop  offset="1" style="stop-color:#FF928E"/>
					</linearGradient>
					<path style="fill:url(#SVGID_00000131345958543847747860000017166821392637427085_);" d="M1426.811,1947.382
						c0.57,2.209-13.289,152.445-13.289,152.445l-85.614-9.737l-8.019-144.344
						C1319.888,1945.746,1417.263,1910.391,1426.811,1947.382z"/>
					
						<linearGradient id="SVGID_00000175322724130335892580000011345306952130410626_" gradientUnits="userSpaceOnUse" x1="6256.0991" y1="1845.0468" x2="6462.8447" y2="1845.0468" gradientTransform="matrix(0.9683 -0.2499 0.2499 0.9683 -5238.8755 1820.1976)">
						<stop  offset="0" style="stop-color:#09005D"/>
						<stop  offset="1" style="stop-color:#1A0F91"/>
					</linearGradient>
					<path style="fill:url(#SVGID_00000175322724130335892580000011345306952130410626_);" d="M1342.187,1975.66l-1.729,76.316
						c-0.022,0.979,0.083,1.931,0.327,2.88c1.49,5.804,8.079,25.395,27.712,17.431c17.815-7.227,34.181-13.556,46.216-11.272
						c5.404,1.025,9.14,5.975,8.633,11.452c-1.263,13.649-4.677,44.355-11.714,70.579c-1.428,5.322-6.723,8.615-12.149,7.659
						c-16.351-2.88-50.666-9.92-76.945-22.049c-3.561-1.644-5.949-5.058-6.212-8.971c-1.283-19.077-5.397-77.044-9.042-93.02
						c-3.422-14.995-23.059-22.048-31.516-24.422c-2.773-0.778-5.083-2.641-6.436-5.184c-4.782-8.986-12.338-30.165,14.088-42.084
						c5.531-2.495,7.876-9.01,5.214-14.463c-5.299-10.855-8.903-27.912,11.255-39.74c20.489-12.022,37.843-2.301,47.557,6.081
						c3.928,3.389,9.629,3.346,13.686,0.113c2.31-1.841,5.451-2.706,9.578-0.723c5.561,2.672,12.212-0.295,14.293-6.104
						c3.998-11.158,13.27-23.658,34.763-22.361c38.138,2.303,46.931,43.32,39.724,68.713c-7.208,25.393-48.415,20.545-69.922,10.503
						c-16.352-7.635-35.166,4.314-43.245,10.48C1343.765,1969.428,1342.26,1972.442,1342.187,1975.66z"/>
					
						<linearGradient id="SVGID_00000101826043541547464060000010635586917410993829_" gradientUnits="userSpaceOnUse" x1="6134.7915" y1="1971.1423" x2="6273.6152" y2="1828.7133" gradientTransform="matrix(0.9683 -0.2499 0.2499 0.9683 -5238.8755 1820.1976)">
						<stop  offset="0" style="stop-color:#FEBBBA"/>
						<stop  offset="1" style="stop-color:#FF928E"/>
					</linearGradient>
					<path style="fill:url(#SVGID_00000101826043541547464060000010635586917410993829_);" d="M1306.932,2054.458
						c0,0,10.66-44.784-6.31-53.603c-16.969-8.819-39.786-0.769-31.204,29.884
						C1280.093,2068.868,1306.932,2054.458,1306.932,2054.458z"/>
				</g>
			</g>
			<g>
				
					<linearGradient id="SVGID_00000065050807469748435270000005763012445621202100_" gradientUnits="userSpaceOnUse" x1="7501.2661" y1="2841.5652" x2="7229.8525" y2="2915.9524" gradientTransform="matrix(-0.9988 -0.0494 -0.0494 0.9988 8849.4727 -55.0328)">
					<stop  offset="0" style="stop-color:#09005D"/>
					<stop  offset="1" style="stop-color:#1A0F91"/>
				</linearGradient>
				<path style="fill:url(#SVGID_00000065050807469748435270000005763012445621202100_);" d="M1273.988,2502.064
					c0.257,0.013,0.515,0.02,0.775,0.018l336.865-0.367c8.327-0.007,15.07-6.765,15.062-15.093
					c-0.008-8.33-6.791-15.212-15.096-15.062l-336.865,0.368c-8.328,0.007-15.071,6.765-15.062,15.092
					C1259.676,2495.088,1266.02,2501.67,1273.988,2502.064z"/>
				
					<linearGradient id="SVGID_00000176728570499903836050000005640966713439451015_" gradientUnits="userSpaceOnUse" x1="7223.8237" y1="2237.2244" x2="7031.2437" y2="2440.7698" gradientTransform="matrix(-1 0 0 1 8808.0039 0)">
					<stop  offset="0" style="stop-color:#09005D"/>
					<stop  offset="1" style="stop-color:#1A0F91"/>
				</linearGradient>
				<path style="fill:url(#SVGID_00000176728570499903836050000005640966713439451015_);" d="M1914.453,2196.212H1633.91
					c-20.696,0-39.533,11.943-48.361,30.662l-129.695,275.01h348.64c13.337,0,25.319-8.149,30.222-20.552l100.573-254.481
					C1941.1,2212.147,1930.264,2196.212,1914.453,2196.212z"/>
				<path style="fill:#7D97F4;" d="M1716.808,2337.218c-6.079,18.888-1.588,37.231,10.031,40.971
					c11.62,3.74,25.967-8.54,32.047-27.428c6.08-18.888,1.588-37.231-10.031-40.971S1722.887,2318.331,1716.808,2337.218z"/>
			</g>
			<g>
				<g>
					<path style="fill:#7D97F4;" d="M1868.971,3224.575c1.866,0,3.762-0.362,5.587-1.12c7.181-2.991,10.499-11.052,7.41-18.005
						l-296.885-668.165c-3.087-6.95-11.409-10.16-18.598-7.173c-7.182,2.991-10.5,11.052-7.41,18.005l296.885,668.165
						C1858.265,3221.468,1863.485,3224.575,1868.971,3224.575z"/>
					<path style="fill:#7D97F4;" d="M1534.518,3224.575c5.486,0,10.707-3.105,13.01-8.293l296.885-668.165
						c3.09-6.952-0.228-15.013-7.41-18.005c-7.177-2.991-15.506,0.219-18.598,7.173l-296.885,668.165
						c-3.089,6.952,0.228,15.013,7.41,18.005C1530.753,3224.213,1532.652,3224.575,1534.518,3224.575z"/>
					<path style="fill:#7D97F4;" d="M949.986,3224.575c1.866,0,3.762-0.362,5.587-1.12c7.182-2.991,10.499-11.052,7.409-18.005
						l-296.884-668.165c-3.09-6.95-11.407-10.16-18.598-7.173c-7.182,2.991-10.499,11.052-7.409,18.005l296.884,668.165
						C939.279,3221.468,944.5,3224.575,949.986,3224.575z"/>
					<path style="fill:#7D97F4;" d="M615.535,3224.575c5.486,0,10.707-3.105,13.011-8.293l296.885-668.165
						c3.09-6.952-0.228-15.013-7.41-18.005c-7.177-2.991-15.506,0.219-18.598,7.173l-296.884,668.165
						c-3.09,6.952,0.228,15.013,7.409,18.005C611.77,3224.213,613.669,3224.575,615.535,3224.575z"/>
				</g>
				<path style="fill:#7D97F4;" d="M580.712,2516.657c-0.757-4.382,0.274-8.915,2.811-12.357c2.538-3.443,6.316-5.437,10.303-5.437
					h1350.609c5.244,0,10.125,2.991,12.95,7.937c2.825,4.946,3.203,11.162,1.005,16.491l-14.636,35.464
					c-3.351,8.122-10.613,13.321-18.604,13.321H603.094c-7.433,0-13.822-5.901-15.234-14.072L580.712,2516.657z"/>
			</g>
		</g>
	</g>
</g>
</svg>
