<?xml version="1.0" encoding="utf-8"?>
<!-- Generator: Adobe Illustrator 27.5.0, SVG Export Plug-In . SVG Version: 6.00 Build 0)  -->
<svg version="1.1" xmlns="http://www.w3.org/2000/svg" xmlns:xlink="http://www.w3.org/1999/xlink" x="0px" y="0px"
	 viewBox="0 0 500 500" style="enable-background:new 0 0 500 500;" xml:space="preserve">
<g id="BACKGROUND">
</g>
<g id="OBJECTS">
	<g>
		<g>
			<path style="fill:#D6D5FF;" d="M257.463,355.261c10.08,0,20.162-0.08,30.241,0.024c8.709,0.09,17.418,0.329,26.121,0.615
				c8.454,0.278,16.907,0.628,25.35,1.076c8.981,0.477,17.958,1.034,26.923,1.692c7.641,0.561,15.269,1.268,22.892,1.993
				c15.004,1.425,29.936,3.278,44.751,5.759c11.724,1.963,23.351,4.273,34.635,7.669c3.867,1.164,7.696,2.435,11.478,3.785
				c3.303,1.179,6.37,2.728,8.912,4.932c2.262,1.962,3.524,4.278,3.215,7.056c-0.123,1.107-0.441,2.227-0.889,3.274
				c-1.28,2.996-3.677,5.332-6.444,7.402c-2.97,2.221-6.344,3.963-9.69,5.734c-1.619,0.857-3.272,1.672-4.844,2.587
				c-1.02,0.594-2.004,1.267-2.859,2.023c-1.741,1.538-1.719,3.289,0.125,4.74c1.116,0.878,2.405,1.619,3.705,2.298
				c2.154,1.125,4.397,2.126,6.573,3.223c2.503,1.261,4.915,2.641,6.959,4.419c0.865,0.753,1.71,1.552,2.386,2.429
				c3.052,3.954,3.171,7.991,0.196,12.016c-1.726,2.336-4.088,4.154-6.801,5.648c-3.813,2.1-7.978,3.596-12.139,5.1
				c-7.917,2.861-16.185,4.569-24.688,5.575c-6.824,0.807-13.675,1.376-20.543,1.734c-5.048,0.263-10.115,0.311-15.174,0.363
				c-4.105,0.042-8.215,0.005-12.319-0.1c-4.683-0.12-9.363-0.342-14.042-0.544c-3.479-0.15-6.957-0.318-10.433-0.516
				c-3.847-0.219-7.691-0.487-11.537-0.726c-5.211-0.324-10.422-0.642-15.633-0.958c-4.301-0.261-8.601-0.536-12.904-0.768
				c-4.759-0.257-9.519-0.5-14.281-0.696c-6.047-0.249-12.096-0.462-18.146-0.658c-6.962-0.225-13.926-0.433-20.89-0.612
				c-6.384-0.164-12.769-0.387-19.154-0.395c-14.809-0.018-29.62-0.04-44.425,0.163c-13.022,0.179-26.036,0.72-39.056,0.986
				c-5.387,0.11-10.787,0.024-16.172-0.164c-4.138-0.144-8.273-0.523-12.301-1.443c-1.933-0.442-3.782-1.055-5.465-1.989
				c-4.002-2.221-5.488-5.384-4.261-9.314c0.423-1.355,1.112-2.65,1.653-3.98c0.527-1.297,1.133-2.582,1.504-3.912
				c0.73-2.621-0.183-4.312-2.917-5.702c-2.523-1.283-5.33-1.939-8.136-2.566c-5.792-1.296-11.712-1.959-17.664-2.418
				c-8.889-0.685-16.805-0.779-25.722-0.884c-8.627-0.101-17.255-0.17-25.88-0.355c-4.972-0.106-9.951-0.293-14.904-0.66
				c-7.42-0.55-14.705-1.698-21.574-4.307c-3.398-1.291-6.553-2.903-9.244-5.099c-5.107-4.169-6.939-9.243-5.508-15.121
				c0.583-2.394,2.057-4.444,3.945-6.275c1.987-1.928,4.37-3.45,6.888-4.83c4.871-2.669,10.146-4.633,15.534-6.396
				c8.101-2.651,16.426-4.677,24.835-6.478c10.782-2.309,21.67-4.189,32.635-5.729c8.466-1.189,15.95-2.309,24.452-3.289
				c7.887-0.909,15.801-1.676,23.721-2.354c9.531-0.816,19.074-1.548,28.624-2.178c9.014-0.594,18.04-1.061,27.067-1.491
				C216.567,355.696,237.01,355.262,257.463,355.261z"/>
			<g>
				<path style="fill:#E6E6FF;" d="M78.568,136.066c0.156-0.308,0.322-0.591,0.448-0.891c2.349-5.56,6.077-10.059,10.769-13.766
					c7.386-5.836,15.821-9.094,25.18-9.983c0.99-0.094,1.983-0.164,2.977-0.199c0.947-0.034,1.896-0.007,2.866-0.007
					c0.181-0.477,0.334-0.855,0.47-1.239c2.886-8.153,8.372-13.997,15.99-17.911c5.661-2.908,11.712-4.177,18.046-3.717
					c9.77,0.711,17.869,4.674,23.695,12.757c2.265,3.142,3.668,6.666,4.381,10.468c0.045,0.241,0.098,0.481,0.171,0.836
					c0.372,0.101,0.753,0.225,1.143,0.309c11.681,2.504,22.033,7.75,30.989,15.577c6.311,5.516,11.304,12.116,14.329,20.047
					c0.361,0.948,0.89,1.881,0.533,3.035c-61.308,0-122.589,0-183.867,0c-0.355-0.735-0.059-1.317,0.294-1.891
					c1.51-2.455,3.618-4.31,5.993-5.874c4.845-3.19,10.201-5.153,15.857-6.249c2.999-0.581,6.063-0.829,9.098-1.226
					C78.133,136.117,78.336,136.094,78.568,136.066z"/>
				<path style="fill:#E6E6FF;" d="M332.595,194.547c-0.359-1.583-0.8-3.01-0.995-4.47c-1.983-14.823,3.573-26.421,15.341-35.23
					c4.967-3.718,10.65-5.972,16.802-6.701c12.969-1.536,23.884,2.346,32.156,12.756c0.642,0.808,1.196,1.686,1.858,2.626
					c0.536-0.092,1.096-0.19,1.655-0.285c6.882-1.169,13.633-0.432,20.272,1.507c9.483,2.769,17.897,7.416,24.839,14.528
					c3.396,3.479,6.139,7.399,7.564,12.124c0.143,0.475,0.297,0.954,0.365,1.443c0.099,0.708-0.192,1.105-0.897,1.248
					c-0.403,0.082-0.824,0.092-1.238,0.094c-5.268,0.027-10.537,0.058-15.805,0.066c-14.81,0.022-29.62,0.01-44.429,0.055
					c-18.626,0.057-37.251,0.157-55.877,0.239C333.757,194.549,333.307,194.547,332.595,194.547z"/>
				<path style="fill:#E6E6FF;" d="M316.912,60.655c1.847-0.69,3.617-1.553,5.485-2.016c9.434-2.335,19.578,2.724,23.212,11.603
					c0.697,1.704,1.083,3.476,1.198,5.309c0.054,0.862-0.242,1.189-1.138,1.255c-0.371,0.028-0.746,0.009-1.12,0.011
					c-15.388,0.096-30.777,0.182-46.165,0.293c-10.867,0.078-21.733,0.194-32.6,0.286c-10.037,0.085-20.075,0.159-30.112,0.237
					c-0.207,0.002-0.415,0-0.621-0.019c-1.097-0.103-1.382-0.434-1.275-1.522c0.349-3.567,1.425-6.905,3.381-9.907
					c4.94-7.581,11.929-12.068,20.851-13.465c4.547-0.712,9.01-0.304,13.268,1.596c0.146,0.065,0.304,0.105,0.494,0.169
					c5.733-9.288,13.905-14.1,24.885-12.684C307.745,43.23,314.273,50.008,316.912,60.655z"/>
			</g>
		</g>
		<g>
			<g>
				<g>
					<g>
						<g>
							<path style="fill:#E8B331;" d="M377.589,381.602c-0.08-0.977-1.971-38.843-2.063-39.676c2.232,0.07,4.526,0.141,6.796,0.212
								c0.326,1.092-0.77,36.172-1.222,39.486C379.965,381.915,378.807,381.888,377.589,381.602z"/>
							<path style="fill:#E8B331;" d="M382.439,342.415c1.111-0.09,1.971-0.169,2.832-0.228c1.397-0.095,2.796-0.177,4.15-0.262
								c0.692,1.333,12.329,48.059,12.716,51.029c-1.188,0.626-2.443,0.701-3.925,0.321
								C392.983,376.415,387.743,359.518,382.439,342.415z"/>
							<path style="fill:#E8B331;" d="M368.435,341.926c2.452,0.244,4.709,0.468,7.158,0.712
								c-5.227,16.859-10.442,33.677-15.633,50.418c-1.478,0.564-2.593,0.482-4.054-0.316
								C360.097,375.849,364.119,358.871,368.435,341.926z"/>
						</g>
						<path style="fill:#000096;" d="M377.584,325.837c3.554,0.253,7.126,0.362,10.659,0.792c5.526,0.671,11.001,1.676,15.948,4.442
							c0.993,0.555,1.916,1.317,2.699,2.146c1.846,1.954,1.759,4.146-0.118,6.065c-1.15,1.176-2.539,1.992-4.039,2.633
							c-2.335,0.998-4.761,1.696-7.249,2.193c-4.567,0.912-9.178,1.307-13.834,1.389c-3.866,0.069-7.714-0.102-11.542-0.566
							c-4.948-0.601-9.843-1.496-14.428-3.568c-1.164-0.526-2.283-1.193-3.325-1.932c-0.694-0.492-1.306-1.164-1.793-1.868
							c-1.074-1.552-0.971-3.228,0.178-4.732c0.982-1.286,2.312-2.12,3.734-2.83c3.151-1.574,6.533-2.382,9.972-2.977
							C368.789,326.271,373.174,326.027,377.584,325.837z"/>
						<path style="fill:#A09FFF;" d="M351.956,334.148c0.156-0.018,0.311-0.035,0.486-0.055c1.199,2.14,3.067,3.39,5.271,4.346
							c2.738,1.188,5.585,1.866,8.491,2.423c1.76,0.338,3.537,0.504,5.303,0.762c2.282,0.335,8.697,0.691,15.097,0.428
							c1.627-0.094,3.26-0.235,4.866-0.503c1.755-0.294,3.541-0.436,5.258-0.956c0.501-0.152,1.019-0.249,1.619-0.393
							c0.194,0.06,0.724,0.544,0.641,0.6c-0.783,0.536-2.135,0.772-3.228,0.983c-1.993,0.387-4.003,0.702-6.042,0.859
							c-9.014,1.172-21.014-0.14-24.455-1.025c-1.753-0.323-3.466-0.778-5.175-1.27c-1.806-0.52-3.512-1.275-5.116-2.237
							c-1.19-0.714-2.351-1.49-2.919-2.875C351.904,334.871,351.816,334.559,351.956,334.148z"/>
					</g>
					<g>
						<path style="fill:#CAB0EE;" d="M389.862,315.441c0.153-3.186,0.404-6.746,0.479-10.311c0.137-6.456-0.29-12.85-2.645-18.966
							c-1.213-3.15-2.907-6.042-4.756-8.853c-1.435-2.182-2.886-4.356-4.237-6.59c-1.492-2.467-2.499-5.131-2.907-8.008
							c-0.567-3.998,0.282-7.773,1.925-11.368c3.353-7.338,8.894-12.486,16.195-15.797c4.762-2.159,9.762-3.191,14.989-2.919
							c5.268,0.274,10.333,1.512,15.141,3.67c9.373,4.207,17.146,10.364,22.682,19.118c1.213,1.918,2.206,3.986,3.166,6.047
							c0.391,0.839,0.851,1.469,1.647,1.912c3.272,1.825,5.921,4.374,8.33,7.203c3.543,4.162,5.477,9.027,6.375,14.364
							c0.894,5.31,0.709,10.57-0.654,15.782c-0.729,2.791-1.96,5.37-3.442,7.827c-1.199,1.987-2.419,3.966-3.726,5.883
							c-2.133,3.127-3.895,6.449-5.554,9.845c-1.581,3.236-3.129,6.513-5.026,9.564c-3.59,5.774-8.393,10.343-14.503,13.456
							c-6.646,3.386-13.554,3.833-20.658,1.794c-11.242-3.227-20.238-13.341-22.21-24.858
							C389.996,321.446,389.81,318.643,389.862,315.441z"/>
						<path style="fill:#A09FFF;" d="M387.56,377.199c23.512,0,46.879,0,70.312,0c0.267,1.28-0.016,2.509-0.235,3.702
							c-2.254,12.269-9.241,20.853-20.505,26.006c-5.54,2.534-11.435,3.561-17.464,2.935c-14.108-1.466-24.322-8.519-29.957-21.725
							c-1.34-3.14-2.017-6.481-2.15-9.911C387.55,377.92,387.56,377.633,387.56,377.199z"/>
						<g>
							<path style="fill:#000096;" d="M402.596,294.507c0.185-0.193,0.32-0.335,0.437-0.458c0.131,0.029,0.228,0.023,0.284,0.068
								c1.499,1.182,2.155,2.855,2.547,4.627c0.412,1.86,0.7,3.748,1.026,5.627c0.522,3.008,2.081,5.273,4.767,6.756
								c1.035,0.572,2.029,1.22,3.075,1.77c2.072,1.09,3.577,2.704,4.605,4.788c0.054,0.109,0.12,0.215,0.193,0.311
								c0.049,0.065,0.121,0.111,0.252,0.226c0.021-0.374,0.055-0.692,0.054-1.009c-0.009-2.655,0.121-5.321-0.073-7.963
								c-0.277-3.762,0.016-7.531-0.256-11.278c-0.249-3.433,0.014-6.867-0.234-10.284c-0.3-4.134,0.004-8.276-0.267-12.397
								c-0.199-3.018-0.096-6.028-0.196-9.04c-0.013-0.408-0.002-0.817-0.002-1.304c0.264-0.013,0.452-0.023,0.755-0.039
								c0.088,0.719,0.208,1.394,0.245,2.073c0.043,0.786-0.01,1.577,0.021,2.364c0.17,4.339,0.129,8.685,0.32,13.018
								c0.15,3.39,0.071,6.775,0.201,10.159c0.05,1.305,0.192,2.607,0.301,4.038c0.579-1.116,1.106-2.141,1.96-2.95
								c2.117-2.005,4.521-3.457,7.411-4.064c1.749-0.367,3.454-0.903,5.043-1.744c2.269-1.201,4.044-2.934,5.388-5.111
								c0.297-0.481,0.524-1.005,0.78-1.511c0.538-1.066,0.545-2.216,0.515-3.367c-0.024-0.898-0.073-1.795-0.273-2.705
								c0.131-0.241,0.263-0.483,0.408-0.749c0.149,0.075,0.302,0.1,0.349,0.185c0.175,0.315,0.39,0.634,0.458,0.978
								c0.627,3.158,0.115,6.059-1.901,8.659c-0.969,1.25-2.037,2.388-3.262,3.373c-1.513,1.218-3.279,1.955-5.127,2.493
								c-1.242,0.362-2.497,0.68-3.75,1.002c-1.415,0.364-2.618,1.141-3.727,2.033c-0.821,0.661-1.656,1.303-2.315,2.191
								c-0.757,1.019-1.178,2.141-1.512,3.304c-0.43,1.498-0.67,3.048-0.496,4.614c0.412,3.712,0.006,7.446,0.278,11.152
								c0.265,3.597-0.019,7.199,0.249,10.78c0.268,3.597-0.017,7.199,0.245,10.78c0.267,3.638-0.016,7.282,0.254,10.904
								c0.261,3.515-0.02,7.033,0.244,10.531c0.268,3.555-0.016,7.117,0.257,10.655c0.229,2.977,0.098,5.946,0.199,8.917
								c0.013,0.371,0.002,0.742,0.002,1.088c-0.436,0.322-0.728,0.195-0.967-0.167c-0.017-0.086-0.046-0.165-0.048-0.245
								c-0.091-5.045-0.049-10.098-0.314-15.134c-0.192-3.639,0.028-7.282-0.24-10.905c-0.278-3.763,0.023-7.531-0.251-11.278
								c-0.254-3.473-0.017-6.947-0.252-10.406c-0.117-1.73-0.061-3.461-0.208-5.18c-0.18-2.1-0.379-4.194-1.415-6.129
								c-1.114-2.079-2.557-3.768-4.653-4.905c-1.361-0.739-2.686-1.553-3.984-2.4c-2.045-1.335-3.365-3.206-3.864-5.612
								c-0.28-1.349-0.48-2.715-0.759-4.065c-0.385-1.862-0.606-3.78-1.698-5.423C403.315,295.613,402.965,295.07,402.596,294.507z"
								/>
							<path style="fill:#000096;" d="M450.809,262.942c10.212,4.342,15.359,15.761,15.821,22.094
								c-0.065,0.058-0.214,0.191-0.414,0.369c-0.212-0.172-0.435-0.265-0.497-0.422c-0.149-0.372-0.251-0.769-0.32-1.165
								c-0.672-3.863-2.241-7.354-4.337-10.639c-1.433-2.246-3.231-4.173-5.212-5.918c-1.472-1.297-3.154-2.322-4.978-3.07
								c-0.497-0.204-0.77-0.458-0.966-0.981c-1.236-3.308-2.988-6.33-5.168-9.108c-0.626-0.798-1.2-1.638-1.827-2.5
								c0.182-0.184,0.296-0.301,0.424-0.43c0.505,0.209,0.86,0.432,1.18,0.873c1.438,1.985,2.97,3.904,4.192,6.038
								C449.576,259.602,450.38,261.151,450.809,262.942z"/>
							<path style="fill:#000096;" d="M453.825,390.8c0.301,0.124,0.571,0.236,0.858,0.354c-0.066,0.219-0.087,0.337-0.136,0.441
								c-0.885,1.886-1.818,3.738-3.081,5.416c-1.368,1.819-2.927,3.429-4.657,4.913c-2.448,2.099-5.194,3.688-8.103,5.009
								c-2.399,1.09-4.893,1.927-7.503,2.379c-1.235,0.214-2.463,0.472-3.694,0.71c-0.04,0.008-0.083,0.005-0.124,0.007
								c-1.767,0.081-3.54,0.292-5.298,0.197c-1.226-0.066-2.457-0.125-3.684-0.207c-0.352-0.023-0.695-0.185-1.047-0.284
								c-0.014-0.219-0.024-0.379-0.033-0.525c0.084-0.063,0.148-0.154,0.211-0.153c1.106,0.018,2.204,0.053,3.313,0.157
								c1.538,0.143,3.126,0.284,4.675-0.134c0.272-0.074,0.578-0.019,0.868-0.031c1.51-0.062,2.982-0.367,4.461-0.651
								c1.355-0.261,2.678-0.618,3.989-1.036c3.641-1.16,7-2.901,10.053-5.171c2.491-1.851,4.649-4.084,6.412-6.652
								c0.712-1.037,1.246-2.198,1.846-3.31C453.381,391.8,453.568,391.349,453.825,390.8z"/>
							<path style="fill:#000096;" d="M390.432,297.861c-0.264,0.423-0.522,0.553-0.88,0.315c-0.112-0.884-0.302-1.767-0.321-2.654
								c-0.046-2.136-0.596-4.183-1.062-6.237c-0.529-2.333-1.281-4.607-2.469-6.704c-1.105-1.95-2.29-3.85-3.568-5.696
								c-1.531-2.213-3.037-4.447-4.454-6.734c-0.85-1.371-1.716-2.766-2.005-4.408c-0.035-0.197-0.147-0.385-0.157-0.581
								c-0.024-0.452-0.008-0.906-0.008-1.431c0.203-0.034,0.391-0.066,0.635-0.107c0.183,0.644,0.37,1.256,0.529,1.874
								c0.453,1.762,1.376,3.296,2.355,4.793c1.941,2.969,3.937,5.901,5.877,8.871c1.923,2.943,3.441,6.09,4.21,9.529
								c0.335,1.497,0.702,2.995,0.89,4.535C390.194,294.766,390.488,296.289,390.432,297.861z"/>
							<path style="fill:#000096;" d="M389.707,301.849c0.139-0.123,0.286-0.254,0.444-0.393c0.149,0.094,0.304,0.137,0.336,0.224
								c0.094,0.26,0.193,0.537,0.195,0.809c0.014,2.405,0.008,4.811,0.008,7.288c-0.129,0.138-0.287,0.307-0.49,0.525
								c-0.203-0.179-0.349-0.308-0.493-0.434C389.707,307.186,389.707,304.535,389.707,301.849z"/>
							<path style="fill:#000096;" d="M419.386,260.439c-0.394,0.121-0.644,0.198-0.997,0.307c-0.126-1.436-0.242-2.772-0.35-4
								c0.25-0.482,0.489-0.726,0.984-0.436C419.138,257.616,419.255,258.953,419.386,260.439z"/>
							<path style="fill:#000096;" d="M455.798,386.615c0.204,0.029,0.36,0.051,0.508,0.072c0.081,1.063-0.478,2.416-1.274,3.133
								C454.438,389.08,454.593,388.394,455.798,386.615z"/>
							<path style="fill:#000096;" d="M449.392,391.92c-0.53,0.272-0.846,0.074-0.899-0.267c-0.093-0.603-0.379-1.296,0.374-1.808
								C449.789,390.37,449.368,391.183,449.392,391.92z"/>
							<path style="fill:#000096;" d="M445.475,385.551c0.712,0.658,0.871,1.281,0.324,2.002c-0.384,0.195-0.687,0.037-0.774-0.317
								C444.885,386.666,444.709,386.037,445.475,385.551z"/>
							<path style="fill:#000096;" d="M406.104,397.073c0.061-0.573-0.317-1.272,0.488-1.768c0.66,0.658,0.58,1.355,0.315,2.078
								C406.514,397.516,406.317,397.322,406.104,397.073z"/>
							<path style="fill:#000096;" d="M447.885,383.485c-0.344,0.205-0.577,0.2-0.888,0.039c-0.105-0.621-0.349-1.287,0.311-1.902
								C448.102,382.08,447.908,382.792,447.885,383.485z"/>
							<path style="fill:#000096;" d="M402.704,392.137c0.936,0.079,0.962,0.13,0.837,1.557
								C402.619,393.862,402.532,393.712,402.704,392.137z"/>
						</g>
					</g>
				</g>
				<g>
					<g>
						<g>
							<path style="fill:#CAB0EE;" d="M201.567,129.123c0.038,0.611,0.086,1.057,0.092,1.505c0.096,6.927,0.191,13.854,0.275,20.781
								c0.037,3.011,2.022,5.652,4.704,6.086c1.015,0.164,2.065,0.143,3.1,0.144c18.543,0.027,37.087,0.053,55.63,0.061
								c8.006,0.003,16.012-0.035,24.018-0.057c0.746-0.002,1.493-0.002,2.237-0.046c1.767-0.106,3.183-0.885,4.184-2.346
								c0.839-1.225,1.243-2.587,1.259-4.093c0.073-6.969,0.181-13.937,0.281-20.906c0.005-0.323,0.052-0.646,0.095-1.149
								c1.609,0,34.435,0.26,36.093,0.223c3.136-0.069,6.11,0.542,8.828,2.143c3.785,2.229,5.919,5.636,6.642,9.891
								c0.337,1.988,0.433,4.036,0.444,6.057c0.076,13.649,0.102,27.298,0.14,40.946c0.096,33.852,0.188,67.705,0.286,101.557
								c0.077,26.343,0.15,52.687,0.25,79.03c0.026,6.969,0.13,13.938,0.228,20.906c0.038,2.715-0.197,5.38-1.027,7.98
								c-1.928,6.039-6.643,9.82-12.968,10.334c-1.61,0.131-3.227,0.216-4.842,0.223c-26.177,0.105-52.354,0.237-78.532,0.274
								c-19.329,0.027-38.658-0.063-57.986-0.121c-9.915-0.03-19.83-0.089-29.744-0.171c-2.412-0.02-4.8-0.322-7.071-1.22
								c-5.034-1.99-7.756-5.871-8.971-10.983c-0.473-1.991-0.582-4.013-0.567-6.053c0.095-13.441,0.206-26.881,0.259-40.322
								c0.07-17.839,0.084-35.678,0.134-53.517c0.073-25.887,0.153-51.774,0.236-77.661c0.076-23.356,0.159-46.713,0.246-70.069
								c0.007-1.742-0.056-3.497,0.127-5.223c0.708-6.675,4.228-12.162,11.969-13.682
								C162.667,129.439,198.671,129.123,201.567,129.123z"/>
						</g>
						<rect x="164.945" y="148.143" style="fill:#FFFFFF;" width="169.109" height="241.484"/>
						<g>
							<path style="fill:#A09FFF;" d="M200.696,126.445c1.968-0.118,3.785-0.246,5.604-0.331c4.353-0.203,8.236-1.748,11.824-4.124
								c2.232-1.478,4.157-3.301,5.776-5.43c1.269-1.668,2.772-3.073,4.47-4.289c2.02-1.446,4.263-2.202,6.741-2.205
								c9.663-0.01,19.327-0.015,28.99,0.007c2.204,0.005,4.247,0.646,6.092,1.878c1.842,1.23,3.462,2.69,4.825,4.449
								c4.034,5.207,9.29,8.452,15.795,9.529c1.952,0.323,3.965,0.29,5.95,0.407c0.487,0.029,0.977,0.004,1.591,0.004
								c0.046,0.666,0.116,1.186,0.112,1.706c-0.047,6.221-0.09,12.442-0.17,18.662c-0.019,1.486-0.011,3.003-0.299,4.449
								c-0.547,2.746-2.072,4.778-4.912,5.537c-0.672,0.18-1.393,0.246-2.092,0.247c-14.765,0.016-29.53,0.011-44.295,0.018
								c-11.323,0.006-22.647,0.026-33.97,0.034c-1.575,0.001-3.15-0.019-4.725-0.046c-3.524-0.059-5.864-1.827-6.825-5.234
								c-0.256-0.909-0.428-1.872-0.443-2.813c-0.098-5.972-0.146-11.944-0.2-17.916c-0.01-1.161,0.016-2.322,0.041-3.483
								C200.584,127.183,200.647,126.863,200.696,126.445z M253.779,119.249c0.023-2.442-1.848-4.434-4.199-4.468
								c-2.349-0.035-4.29,1.922-4.316,4.351c-0.026,2.435,1.856,4.437,4.199,4.466
								C251.817,123.627,253.756,121.673,253.779,119.249z"/>
						</g>
					</g>
					<g>
						<g>
							<path style="fill:#D6D5FF;" d="M218.977,224.515h-31.7v-31.7h31.7V224.515z M188.477,223.315h29.3v-29.3h-29.3V223.315z"/>
							<g>
								<path style="fill:#D6D5FF;" d="M318.127,194.015h-83.75c-0.331,0-0.6-0.269-0.6-0.6c0-0.332,0.269-0.6,0.6-0.6h83.75
									c0.331,0,0.6,0.268,0.6,0.6C318.726,193.747,318.458,194.015,318.127,194.015z"/>
								<path style="fill:#D6D5FF;" d="M318.127,208.849h-83.75c-0.331,0-0.6-0.269-0.6-0.6c0-0.332,0.269-0.6,0.6-0.6h83.75
									c0.331,0,0.6,0.269,0.6,0.6C318.726,208.58,318.458,208.849,318.127,208.849z"/>
								<path style="fill:#D6D5FF;" d="M303.377,216.265h-69c-0.331,0-0.6-0.269-0.6-0.6c0-0.332,0.269-0.6,0.6-0.6h69
									c0.331,0,0.6,0.268,0.6,0.6C303.976,215.997,303.708,216.265,303.377,216.265z"/>
								<g>
									<path style="fill:#D6D5FF;" d="M318.127,201.432h-49.75c-0.331,0-0.6-0.269-0.6-0.6c0-0.332,0.268-0.6,0.6-0.6h49.75
										c0.331,0,0.6,0.269,0.6,0.6C318.726,201.164,318.458,201.432,318.127,201.432z"/>
									<path style="fill:#D6D5FF;" d="M262.127,201.432h-27.75c-0.331,0-0.6-0.269-0.6-0.6c0-0.332,0.269-0.6,0.6-0.6h27.75
										c0.331,0,0.6,0.269,0.6,0.6C262.726,201.164,262.458,201.432,262.127,201.432z"/>
								</g>
							</g>
						</g>
						<g>
							<path style="fill:#D6D5FF;" d="M218.977,278.826h-31.7v-31.7h31.7V278.826z M188.477,277.625h29.3v-29.3h-29.3V277.625z"/>
							<g>
								<path style="fill:#D6D5FF;" d="M318.127,248.326h-83.75c-0.331,0-0.6-0.269-0.6-0.6c0-0.332,0.269-0.6,0.6-0.6h83.75
									c0.331,0,0.6,0.268,0.6,0.6C318.726,248.057,318.458,248.326,318.127,248.326z"/>
								<path style="fill:#D6D5FF;" d="M318.127,263.159h-83.75c-0.331,0-0.6-0.269-0.6-0.6c0-0.332,0.269-0.6,0.6-0.6h83.75
									c0.331,0,0.6,0.268,0.6,0.6C318.726,262.89,318.458,263.159,318.127,263.159z"/>
								<path style="fill:#D6D5FF;" d="M303.377,270.576h-69c-0.331,0-0.6-0.269-0.6-0.6c0-0.332,0.269-0.6,0.6-0.6h69
									c0.331,0,0.6,0.268,0.6,0.6C303.976,270.307,303.708,270.576,303.377,270.576z"/>
								<g>
									<path style="fill:#D6D5FF;" d="M318.127,255.742h-49.75c-0.331,0-0.6-0.269-0.6-0.6c0-0.332,0.268-0.6,0.6-0.6h49.75
										c0.331,0,0.6,0.269,0.6,0.6C318.726,255.474,318.458,255.742,318.127,255.742z"/>
									<path style="fill:#D6D5FF;" d="M262.127,255.742h-27.75c-0.331,0-0.6-0.269-0.6-0.6c0-0.332,0.269-0.6,0.6-0.6h27.75
										c0.331,0,0.6,0.269,0.6,0.6C262.726,255.474,262.458,255.742,262.127,255.742z"/>
								</g>
							</g>
						</g>
						<g>
							<path style="fill:#D6D5FF;" d="M218.977,333.135h-31.7v-31.699h31.7V333.135z M188.477,331.936h29.3v-29.301h-29.3V331.936z"
								/>
							<g>
								<path style="fill:#D6D5FF;" d="M318.127,302.635h-83.75c-0.331,0-0.6-0.269-0.6-0.6c0-0.331,0.269-0.6,0.6-0.6h83.75
									c0.331,0,0.6,0.268,0.6,0.6C318.726,302.366,318.458,302.635,318.127,302.635z"/>
								<path style="fill:#D6D5FF;" d="M318.127,317.469h-83.75c-0.331,0-0.6-0.269-0.6-0.6c0-0.331,0.269-0.6,0.6-0.6h83.75
									c0.331,0,0.6,0.268,0.6,0.6C318.726,317.201,318.458,317.469,318.127,317.469z"/>
								<path style="fill:#D6D5FF;" d="M303.377,324.885h-69c-0.331,0-0.6-0.269-0.6-0.6c0-0.331,0.269-0.6,0.6-0.6h69
									c0.331,0,0.6,0.268,0.6,0.6C303.976,324.616,303.708,324.885,303.377,324.885z"/>
								<g>
									<path style="fill:#D6D5FF;" d="M318.127,310.052h-49.75c-0.331,0-0.6-0.269-0.6-0.6c0-0.331,0.268-0.6,0.6-0.6h49.75
										c0.331,0,0.6,0.268,0.6,0.6C318.726,309.784,318.458,310.052,318.127,310.052z"/>
									<path style="fill:#D6D5FF;" d="M262.127,310.052h-27.75c-0.331,0-0.6-0.269-0.6-0.6c0-0.331,0.269-0.6,0.6-0.6h27.75
										c0.331,0,0.6,0.268,0.6,0.6C262.726,309.784,262.458,310.052,262.127,310.052z"/>
								</g>
							</g>
						</g>
						<path style="fill:#000096;" d="M203.115,216.177l-9.625-9.625c-0.391-0.391-0.391-1.023,0-1.414
							c0.391-0.391,1.023-0.391,1.414,0l8.125,8.125l25.17-28.332c0.367-0.413,0.999-0.451,1.412-0.083
							c0.413,0.367,0.45,0.999,0.083,1.412L203.115,216.177z"/>
					</g>
					<g>
						<path style="fill:#000096;" d="M255.37,408.671c0.128-0.256,0.247-0.493,0.375-0.748c0.511,0,0.964,0,1.416,0
							c25.883,0.002,51.766,0.004,77.649,0.005c0.705,0,1.41-0.001,2.115-0.014c3.256-0.061,6.078-1.205,8.314-3.574
							c1.731-1.834,2.868-4.036,3.577-6.468c0.561-1.926,0.813-3.884,1.041-5.873c0.265-2.315,0.12-3.617,0.182-5.924
							c0.044-1.658,0.02-3.319-0.021-4.977c-0.411-16.492-0.149-32.986-0.249-49.479c-0.439-5.953-0.137-11.915-0.204-17.872
							c-0.067-5.931-0.026-11.863-0.032-17.795c0-0.372,0-0.745,0-1.191c0.297-0.045,0.564-0.086,0.884-0.134
							c0.053,0.191,0.129,0.341,0.13,0.49c0.012,2.489,0.015,4.977,0.02,7.466c0.002,1.161-0.054,2.326,0.013,3.484
							c0.414,7.241,0.141,14.487,0.205,21.73c0.064,7.217-0.137,14.44,0.084,21.651c0.202,6.583,0.096,13.161,0.16,19.74
							c0.064,6.553,0.024,12.107,0.027,18.661c0,1.12,0.044,2.244-0.035,3.359c-0.265,3.753-0.856,7.439-2.729,10.78
							c-1.927,3.438-4.68,5.838-8.627,6.701c-1.158,0.253-2.314,0.468-3.505,0.467c-26.298-0.006-52.596-0.01-78.894-0.016
							C256.657,409.14,256.022,409.252,255.37,408.671z"/>
						<path style="fill:#000096;" d="M199.942,127.094c0.462-0.806,1.17-0.912,1.859-0.932c1.407-0.042,2.816-0.013,4.342-0.013
							c0.101,0.239,0.216,0.509,0.392,0.923c-1.058,0.11-1.961,0.052-2.858,0.067c-0.867,0.014-1.735,0.003-2.688,0.003
							c-0.017,0.358-0.046,0.676-0.046,0.993c0.003,2.156-0.103,4.32,0.04,6.467c0.349,5.25,0.068,10.503,0.214,15.752
							c0.064,2.307,1.744,5.31,4.448,5.997c0.509,0.129,1.054,0.162,1.583,0.165c2.986,0.016,5.977-0.114,8.955,0.034
							c6.868,0.342,13.737,0.122,20.605,0.181c6.842,0.059,13.684,0.015,20.526,0.056c1.558,0.009,3.116,0.181,4.734,0.281
							c0.269,0.317,0.151,0.611-0.292,0.935c-0.239,0-0.565,0.001-0.892,0c-8.086-0.012-16.176,0.118-24.256-0.088
							c-4.838-0.124-9.673-0.09-14.509-0.147c-4.81-0.057-9.62-0.016-14.43-0.045c-2.371-0.014-4.417-0.811-5.882-2.755
							c-0.92-1.221-1.559-2.59-1.599-4.153c-0.039-1.533,0.035-3.07-0.026-4.602c-0.234-5.829-0.22-11.661-0.22-17.493
							C199.942,128.18,199.942,127.641,199.942,127.094z"/>
						<path style="fill:#000096;" d="M348.178,138.616c0.728,0.442,0.872,1.179,1.029,1.822c0.277,1.141,0.499,2.297,0.644,3.475
							c0.156,1.273,0.061,2.557,0.248,3.806c0.327,2.185,0.18,4.368,0.183,6.549c0.024,22.266,0.024,44.532,0.031,66.798
							c0,0.331,0,0.662,0,1.014c-0.148,0.138-0.293,0.274-0.447,0.417c-0.146-0.072-0.294-0.097-0.35-0.182
							c-0.106-0.162-0.206-0.353-0.226-0.541c-0.036-0.328-0.012-0.662-0.012-0.994c-0.002-9.993,0.153-19.989-0.06-29.977
							c-0.154-7.201-0.075-14.399-0.137-21.598c-0.062-7.173,0.031-14.347-0.086-21.519c-0.044-2.673-0.279-5.369-1.118-7.957
							C347.75,139.339,347.652,138.91,348.178,138.616z"/>
						<path style="fill:#000096;" d="M148.731,302.408c0-0.847,0.882-0.882,0.907,0.007c0.014,0.589,0.04,1.158,0.039,1.727
							c-0.009,17.996-0.021,35.993-0.033,53.989c-0.003,4.313-0.01,8.625-0.007,12.938c0,0.539-0.021,1.06-0.372,1.521
							c-0.174-0.011-0.334-0.022-0.472-0.031c-0.057-0.104-0.125-0.172-0.127-0.242c-0.016-0.456-0.023-0.911-0.023-1.367
							c0.01-22.267,0.019-44.535,0.044-66.802C148.688,303.554,148.677,303.055,148.731,302.408z"/>
						<path style="fill:#000096;" d="M165.117,130.395c-0.122,0.137-0.25,0.281-0.419,0.472c-0.602,0-1.221-0.008-1.84,0.001
							c-1.876,0.027-3.6,0.596-5.188,1.56c-0.836,0.507-1.698,1.028-2.385,1.707c-0.871,0.86-1.708,1.811-2.325,2.86
							c-1.155,1.965-1.914,4.097-2.337,6.364c-0.471,2.529-0.466,5.067-0.465,7.615c0.003,10.123,0.002,20.246,0.002,30.369
							c0,0.207,0,0.414,0,0.61c-0.398,0.345-0.688,0.23-0.928-0.138c-0.022-0.088-0.059-0.166-0.059-0.244
							c0-9.667,0.001-19.333,0.014-29c0.001-0.4,0.123-0.799,0.168-1.201c0.027-0.245,0.086-0.52,0.009-0.738
							c-0.326-0.927-0.245-1.887-0.173-2.816c0.197-2.55,0.357-5.108,1.195-7.568c0.973-2.855,2.488-5.348,4.795-7.299
							c1.507-1.274,3.238-2.18,5.189-2.596c1.154-0.246,2.313-0.464,3.501-0.479C164.338,129.868,164.75,129.949,165.117,130.395z"
							/>
						<path style="fill:#000096;" d="M239.207,109.955c0.145,0.195,0.26,0.348,0.361,0.485c-0.1,0.126-0.147,0.239-0.197,0.24
							c-1.078,0.021-2.156,0.042-3.233,0.038c-1.313-0.005-2.598,0.154-3.88,0.445c-1.309,0.298-2.426,0.961-3.478,1.723
							c-1.849,1.34-3.274,3.107-4.727,4.847c-0.741,0.887-1.55,1.745-2.446,2.47c-1.492,1.209-3.036,2.365-4.638,3.424
							c-1.839,1.216-3.887,2.028-5.98,2.712c-0.152,0.05-0.327,0.035-0.492,0.035c-0.161,0-0.321-0.02-0.493-0.032
							c-0.249-0.518-0.032-0.787,0.425-0.951c0.838-0.301,1.671-0.618,2.514-0.903c2.159-0.731,4-2.022,5.785-3.375
							c1.341-1.017,2.608-2.145,3.817-3.317c0.85-0.825,1.514-1.838,2.321-2.712c1.987-2.151,4.057-4.192,7.042-4.941
							c0.872-0.219,1.747-0.429,2.637-0.415C236.064,109.751,237.582,109.871,239.207,109.955z"/>
						<path style="fill:#000096;" d="M249.679,124.401c-2.346,0.308-5.101-2.36-5.004-4.947c0.096-2.571,2.201-5.122,4.969-4.967
							c3.153,0.177,4.986,2.176,4.977,5.096C254.612,122.322,252.602,124.422,249.679,124.401z M253.465,119.532
							c0.199-1.94-1.991-3.964-3.75-3.873c-2.425,0.126-3.954,1.56-3.91,3.772c0.048,2.414,1.586,3.811,3.976,3.917
							C251.727,123.435,253.466,121.532,253.465,119.532z"/>
						<path style="fill:#000096;" d="M292.773,126.763c0.129-0.655,0.552-0.641,0.967-0.641c1.532,0,3.064,0,4.706,0
							c0.099,0.217,0.257,0.451,0.309,0.706c0.057,0.279,0.019,0.577,0.019,0.867c-0.01,7.206-0.015,14.412-0.039,21.618
							c-0.002,0.47-0.14,0.939-0.217,1.422c-0.267,0.018-0.427,0.028-0.689,0.046c-0.095-0.384-0.261-0.764-0.273-1.149
							c-0.036-1.158-0.121-2.331,0.01-3.476c0.356-3.131,0.116-6.266,0.173-9.397c0.056-3.105,0.024-6.212,0.027-9.317
							c0-0.075-0.043-0.15-0.082-0.275C296.094,126.96,294.424,127.415,292.773,126.763z"/>
						<path style="fill:#000096;" d="M149.606,277.731c-0.192-0.053-0.319-0.06-0.412-0.12c-0.209-0.133-0.402-0.292-0.511-0.374
							c0-1.163-0.076-2.164,0.013-3.151c0.394-4.377,0.135-8.761,0.191-13.141c0.057-4.395,0.023-8.792,0.03-13.188
							c0.001-0.568-0.083-1.159,0.461-1.656c0.144,0.093,0.306,0.197,0.524,0.337c0,0.282,0,0.566,0,0.85
							c-0.007,4.977,0.149,9.96-0.068,14.928c-0.216,4.965-0.067,9.924-0.176,14.884
							C149.655,277.297,149.627,277.493,149.606,277.731z"/>
						<path style="fill:#000096;" d="M148.664,376.551c0.154-0.234,0.264-0.403,0.369-0.563c0.226,0.127,0.357,0.162,0.424,0.248
							c0.095,0.121,0.175,0.274,0.202,0.423c0.036,0.201,0.016,0.412,0.017,0.618c0.003,1.488-0.02,2.976,0.013,4.464
							c0.033,1.431,0.168,2.862,0.175,4.293c0.006,1.219-0.106,2.438-0.163,3.604c-0.219,0.164-0.347,0.259-0.458,0.342
							c-0.109-0.036-0.217-0.038-0.253-0.09c-0.239-0.343-0.334-0.719-0.333-1.149C148.669,384.65,148.664,380.559,148.664,376.551z
							"/>
						<path style="fill:#000096;" d="M350.029,291.639c-0.273-0.132-0.48-0.232-0.716-0.347c0-2.688-0.013-5.366,0.014-8.043
							c0.004-0.427,0.19-0.852,0.289-1.265c0.181-0.019,0.301-0.031,0.502-0.052c0.272,0.325,0.422,0.71,0.42,1.174
							c-0.009,2.433-0.016,4.867-0.013,7.3C350.525,290.892,350.274,291.241,350.029,291.639z"/>
						<path style="fill:#000096;" d="M286.088,125.758c0-0.2,0-0.358,0-0.49c0.055-0.057,0.079-0.095,0.113-0.115
							c0.033-0.019,0.078-0.035,0.114-0.028c1.435,0.251,2.872,0.496,4.302,0.772c0.171,0.033,0.309,0.242,0.512,0.411
							c-0.136,0.196-0.246,0.355-0.37,0.535C289.062,127.001,287.534,126.558,286.088,125.758z"/>
						<path style="fill:#000096;" d="M269.751,156.752c0.137,0.152,0.269,0.298,0.442,0.489c-0.157,0.193-0.281,0.345-0.409,0.502
							c-1.51,0-2.995,0-4.516,0c-0.122-0.138-0.253-0.286-0.394-0.445c0.089-0.144,0.128-0.293,0.217-0.334
							c0.213-0.098,0.448-0.2,0.676-0.203C267.089,156.742,268.411,156.752,269.751,156.752z"/>
						<path style="fill:#000096;" d="M149.919,187.667c-0.194-0.144-0.321-0.239-0.479-0.356c0-0.935,0-1.872,0-2.834
							c0.137-0.036,0.249-0.08,0.363-0.091c0.074-0.007,0.153,0.036,0.23,0.056c0.038,0.069,0.097,0.134,0.11,0.207
							c0.083,0.478,0.169,0.957,0.227,1.438C150.437,186.628,150.393,187.151,149.919,187.667z"/>
					</g>
				</g>
			</g>
			<g>
				<path style="fill:#000096;" d="M182.025,262.669l-9.625-9.625c-0.391-0.391-0.391-1.023,0-1.414
					c0.391-0.391,1.023-0.391,1.414,0l8.125,8.125l25.17-28.332c0.367-0.413,0.999-0.451,1.412-0.084
					c0.413,0.367,0.45,0.999,0.084,1.412L182.025,262.669z"/>
				<g>
					<g>
						<path style="fill:#E8B331;" d="M95.585,404.935c-0.377,0.124-0.822,0.354-1.288,0.41c-3.729,0.444-7.433,0.173-11.108-0.517
							c-2.57-0.482-5.152-0.751-7.769-0.703c-1.615,0.03-3.231,0.029-4.846-0.005c-1.673-0.035-2.184-0.6-2.2-2.289
							c-0.021-2.128,0.513-4.091,1.702-5.867c0.481-0.719,0.959-1.441,1.439-2.163c1.606,0.192,3.199,0.528,4.792,0.533
							c1.548,0.004,3.096-0.332,4.775-0.534c0.823,0.959,1.747,2.069,2.707,3.148c2.602,2.924,5.913,4.739,9.542,6.043
							c0.544,0.196,1.111,0.331,1.654,0.529C95.571,403.732,95.841,404.138,95.585,404.935z"/>
						<path style="fill:#E8B331;" d="M146.853,406.936c-0.376,0.121-0.824,0.347-1.292,0.401c-3.731,0.432-7.438,0.174-11.115-0.522
							c-2.531-0.479-5.074-0.741-7.651-0.701c-1.658,0.026-3.316,0.031-4.974-0.005c-1.619-0.034-2.131-0.603-2.171-2.197
							c-0.073-2.882,0.999-5.319,2.833-7.504c3.546,1.719,7.189,1.687,10.914,0.682c0.263,0.291,0.529,0.55,0.755,0.84
							c2.302,2.964,5.386,4.875,8.726,6.414c1.009,0.465,2.103,0.745,3.164,1.093C146.709,405.655,147.169,405.978,146.853,406.936z
							"/>
					</g>
					<path style="fill:#000096;" d="M81.905,393.403c-0.649,0.898-1.446,1.17-2.257,1.334c-3.083,0.622-6.097,0.217-9.076-0.674
						c-0.711-0.213-1.04-0.705-1.335-1.342c-2.624-5.669-4.439-11.599-5.701-17.703c-1.134-5.483-1.724-11.027-2.07-16.621
						c-0.328-5.319-0.017-10.614,0.124-15.914c0.078-2.927,0.627-5.839,0.904-8.764c0.415-4.377,1.21-8.688,2.139-12.978
						c1.636-7.556,4.125-14.839,7.004-21.999c2.216-5.513,4.802-10.835,8.073-15.806c0.443-0.674,0.763-1.493,1.807-1.844
						c0.209,0.26,0.564,0.518,0.664,0.852c1.883,6.293,6.312,10.49,11.548,13.994c6.14,4.109,12.941,6.661,20.103,8.309
						c0.986,0.227,1.878,0.582,2.704,1.17c3.408,2.426,6.296,5.39,8.915,8.623c6.302,7.779,10.53,16.629,13.399,26.169
						c1.603,5.33,2.653,10.775,3.231,16.305c0.505,4.831,0.599,9.685,0.247,14.529c-0.626,8.592-2.614,16.842-6.479,24.589
						c-0.521,1.045-1.271,1.782-2.43,2.153c-2.805,0.898-5.62,0.945-8.454,0.23c-1.255-0.317-2.422-0.819-3.105-1.845
						c0.596-2.432,1.247-4.701,1.698-7.01c0.773-3.956,1.003-7.95,0.791-11.993c-0.501-9.572-3.171-18.498-7.783-26.859
						c-3.999-7.249-9.222-13.455-15.942-18.35c-0.294-0.214-0.607-0.403-1.064-0.705c-1.104,1.716-2.232,3.348-3.238,5.052
						c-4.899,8.3-8.315,17.219-10.923,26.466c-1.441,5.109-2.598,10.29-3.167,15.565c-0.404,3.742-0.497,7.521-0.633,11.286
						C81.55,390.895,81.796,392.177,81.905,393.403z"/>
					<path style="fill:#E8B331;" d="M148.96,295.216c0,4.495,0,8.883,0,13.339c-1.469,0.529-2.943,0.65-4.421,0.728
						c-6.343,0.335-11.85-1.955-16.959-5.451c-2.412-1.651-4.55-3.601-6.275-5.98c-0.142-0.196-0.316-0.368-0.561-0.65
						c-2.359,2.194-4.384,4.574-6.104,7.249c-3.419-0.589-6.679-1.617-9.891-2.782c-4.216-1.529-8.227-3.493-11.937-6.034
						c-3.873-2.652-7.33-5.728-9.553-9.947c-0.765-1.452-1.37-3.007-1.872-4.572c-0.311-0.97,0.147-1.954,0.59-2.853
						c1.751-3.553,3.932-6.826,6.526-9.814c4.553-5.246,9.916-9.397,16.407-12.004c3.188-1.28,6.509-2.038,9.929-2.024
						c5.24,0.021,9.954,1.624,13.778,5.351c2.97,2.895,5.839,5.895,8.83,8.767c2.3,2.209,4.707,4.309,7.091,6.429
						c3.673,3.265,7.898,3.679,12.455,2.37c4.854-1.395,8.949-4.07,12.634-7.441c1.538-1.407,2.025-1.458,3.746-0.249
						c2.142,1.505,3.858,3.379,4.961,5.779c0.335,0.728,0.378,1.399-0.143,2.093c-5.014,6.677-10.986,12.191-18.81,15.43
						c-3.043,1.259-6.204,2.076-9.523,2.156C149.616,295.111,149.375,295.164,148.96,295.216z"/>
				</g>
				<g>
					<g>
						<path style="fill:#CAB0EE;" d="M118.869,254.799c-0.805-1.49-1.108-3.036-1.321-4.59c-0.094-0.688-0.329-1.242-0.712-1.803
							c-1.13-1.656-1.78-3.449-1.363-5.499c0.398-1.956,2.037-2.898,3.92-2.221c0.537,0.193,1.041,0.476,1.674,0.77
							c0.06-0.354,0.118-0.655,0.162-0.957c0.406-2.805,2.774-3.913,5.092-2.3c0.832,0.579,1.535,1.38,2.188,2.17
							c0.551,0.667,1.17,1.158,1.977,1.429c1.115,0.376,1.829,0.107,2.355-0.956c0.255-0.515,0.433-1.075,0.587-1.631
							c0.159-0.571,0.436-0.976,1.067-1.073c0.857,0.147,1.192,0.728,1.361,1.536c0.812,3.88,0.993,7.804,0.695,11.736
							c-0.172,2.27-0.78,4.481-1.652,6.596c-0.234,0.566-0.547,1.124-0.932,1.598c-1.444,1.778-3.646,1.953-5.33,0.402
							C125.814,257.41,122.648,255.475,118.869,254.799z"/>
						<path style="fill:#CAB0EE;" d="M172.107,269.016c0.173-0.64,0.294-1.204,0.477-1.747c0.805-2.39,1.622-4.776,2.45-7.158
							c0.189-0.544,0.369-1.112,0.678-1.588c0.758-1.169,1.8-1.114,2.521,0.086c0.106,0.176,0.185,0.367,0.363,0.726
							c0.743-0.629,1.465-1.211,2.152-1.832c1.033-0.933,2.184-1.634,3.551-1.956c1.667-0.394,2.745,0.266,3.175,1.896
							c0.919,3.484,0.009,6.634-1.749,9.617c-1.178,1.998-2.383,3.985-4.025,5.658c-1.068,1.089-2.137,2.177-3.314,3.375
							C176.948,273.003,174.882,270.701,172.107,269.016z"/>
					</g>
					<path style="fill:#000096;" d="M136.073,240.515c-0.396-0.874-0.054-2.085-1.45-2.307c-0.676,0.067-1.042,0.538-1.242,1.248
						c-0.167,0.595-0.365,1.196-0.655,1.738c-0.438,0.818-0.986,1.01-1.873,0.766c-0.864-0.238-1.527-0.726-2.115-1.433
						c-0.707-0.851-1.483-1.706-2.392-2.315c-2.216-1.482-4.528-0.436-5.079,2.192c-0.065,0.312-0.119,0.626-0.199,1.044
						c-0.532-0.234-0.965-0.449-1.416-0.618c-1.97-0.742-3.697,0.178-4.178,2.224c-0.459,1.952,0.357,3.709,1.409,5.311
						c0.539,0.821,0.847,1.644,0.992,2.618c0.194,1.299,0.613,2.565,0.956,3.927c-0.848-0.077-2.206-0.122-3.055-0.247
						c-0.395-0.058-0.825-0.191-1.142-0.423c-1.997-1.456-3.701-3.203-4.953-5.346c-0.35-0.599-0.547-1.288-0.85-2.023
						c-2.5-0.766-4.55-2.269-5.788-4.662c-1.268-2.453-1.288-4.935,0.385-7.38c-0.267-0.239-0.529-0.481-0.8-0.713
						c-1.98-1.695-2.596-3.784-1.776-6.254c0.233-0.701,0.514-1.426,0.943-2.017c2.896-3.991,6.58-6.623,11.744-6.598
						c0.332,0.002,0.664-0.001,0.995-0.017c1.317-0.066,2.334-0.642,2.826-1.887c0.409-1.034,0.792-2.097,1.013-3.183
						c0.833-4.101,3.08-7.22,6.571-9.415c3.999-2.514,9.779-1.747,13.087,1.632c1.264,1.291,1.949,2.864,2.139,4.656
						c0.034,0.323,0.066,0.646,0.111,1.097c0.703-0.185,1.325-0.376,1.959-0.511c5.501-1.171,10.106,1.454,12.167,6.952
						c1.411,3.765,1.073,7.528-0.303,11.189c-2.289,6.09-6.819,9.635-13.1,10.993C139.377,241.108,137.712,240.993,136.073,240.515z
						"/>
					<g>
						<path style="fill:#F75175;" d="M133.127,248.6c-0.008,1.801-1.083,2.87-2.875,2.859c-1.643-0.01-2.933-1.24-2.907-2.771
							c0.025-1.507,1.561-2.922,3.171-2.921C132.118,245.768,133.135,246.871,133.127,248.6z"/>
						<path style="fill:#000096;" d="M133.159,244.421c0.123-0.449,0.576-0.74,1.04-0.702c0.317,0.026,0.569,0.186,0.713,0.574
							c0.165,0.446,0.141,0.971-0.371,1.169c-0.288,0.111-0.767,0.081-1.002-0.096C133.183,245.1,133.062,244.775,133.159,244.421z"
							/>
						<path style="fill:#F75175;" d="M140,250.322c-0.465-1.562-2.899-6.775-3.529-7.841c-0.043,0.019-0.086,0.038-0.13,0.057
							c0.386,2.943,0.435,5.906,0.21,8.874c-0.031,0.404-0.079,0.805-0.137,1.205c0.447,0.024,0.826,0.057,1.201,0.05
							C139.793,252.624,140.495,251.985,140,250.322z"/>
					</g>
				</g>
				<g>
					<path style="fill:#A09FFF;" d="M115.679,304.899c-1.274,0.222-2.694,0.24-4.116,0.209c0.618,0.53,1.428,1.191,1.948,1.714
						c1.791,1.799,3.504,3.678,5.347,5.422c1.561,1.478,2.985,3.129,4.87,4.24c1.712,1.009,3.179,1.847,5.202,2.223
						c0.094,0.191,0.296,0.41,0.437,0.697c-1.163,0.087-1.936-0.239-2.882-0.608c-2.384-0.932-4.475-2.357-6.307-4.114
						c-2.102-2.016-4.077-4.165-6.149-6.214c-1.235-1.221-2.55-2.362-3.687-3.407c-4.165-0.205-7.952-1.115-11.618-2.511
						c-3.008-1.145-5.878-2.647-8.528-4.475c-3.849-2.656-7.156-5.814-9.438-9.918c-0.4-0.719-0.781-1.452-1.113-2.205
						c-0.331-0.751-0.39-1.03-0.695-1.839c0.128-0.272,0.33-0.385,0.519-0.789c0.004,0.011,0.007,0.021,0.011,0.032
						c0.576,1.698,1.288,3.35,2.212,4.887c0.77,1.28,1.57,2.361,2.541,3.578c2.54,2.96,5.575,5.288,8.919,7.252
						c2.889,1.697,5.976,3.01,9.203,3.914c1.464,0.41,2.934,0.748,4.438,0.987c1.965,0.312,3.93,0.531,5.919,0.46
						c0.531-0.019,1.179-0.022,1.71-0.061C114.97,304.333,114.985,304.514,115.679,304.899z"/>
					<path style="fill:#000096;" d="M158.077,293.393c0.524-0.071,0.54,0.643,0.046,0.823c-0.49,0.192-1.043,0.365-1.584,0.491
						c-3.062,0.71-6.189,0.734-9.28,0.469c-3.065-0.262-6.039-1.091-8.982-2.051c-2.348-0.766-4.431-2.002-6.598-3.103
						c-0.366-0.186-0.737-0.365-1.142-0.564c-3.189,2.32-6.562,5.382-9.293,8.261c-0.17-0.199-0.275-0.323-0.467-0.549
						c0.839-0.968,2.2-2.312,3.119-3.196c0.897-0.863,1.823-1.698,2.764-2.513c0.96-0.831,1.954-1.622,3.045-2.523
						c-1.114-0.635-2.093-1.228-3.102-1.763c-2.481-1.316-4.937-2.694-7.612-3.596c-0.971-0.327-1.978-0.544-2.963-0.832
						c-0.334-0.098-0.96-0.223-1.161-0.474c-0.591-0.813,1.211-0.386,1.679-0.273c2.081,0.503,4.122,1.127,6.051,2.092
						c2.997,1.499,5.934,3.104,8.835,4.783c3.691,2.135,7.573,3.842,11.759,4.754c1.323,0.288,2.698,0.333,4.026,0.604
						c1.321,0.27,2.641,0.188,3.964,0.206c1.911,0.026,3.769-0.32,5.605-0.82C157.167,293.515,157.566,293.48,158.077,293.393z"/>
					<path style="fill:#A09FFF;" d="M76.696,299.637c1.246,1.451,2.317,2.773,3.468,4.02c1.412,1.529,5.44,4.425,5.716,4.68
						c-0.967,2.312-2.294,4.389-4.042,6.048c-1.374,1.304-4.285,1.92-6.249,0.357c-1.534-1.221-2.305-2.661-2.613-4.566
						c-0.325-2.01,0.156-3.83,0.799-5.656c0.551-1.564,1.261-3.056,2.296-4.368C76.233,299.948,76.479,299.813,76.696,299.637z
						 M76.61,300.807c-0.217,0.3-0.497,0.609-0.688,0.967c-0.409,0.765-0.823,1.535-1.145,2.339
						c-0.845,2.113-1.499,4.241-0.978,6.589c0.412,1.858,1.525,3.124,3.124,3.912c1.621,0.799,3.147,0.253,4.464-0.867
						c1.087-0.924,1.867-2.103,2.571-3.329c0.322-0.56,0.611-1.139,0.943-1.762C81.544,306.567,79.054,303.743,76.61,300.807z"/>
					<path style="fill:#A09FFF;" d="M68.904,312.702c0.137,0.278,0.319,0.543,0.403,0.837c0.571,1.984,1.655,3.667,2.923,5.272
						c1.536,1.943,3.285,3.651,5.438,4.862c1.686,0.948,3.454,1.769,5.238,2.524c4.063,1.722,8.35,2.72,12.621,3.763
						c1.351,0.33,2.704,0.663,4.039,1.304c-0.185,0.375-0.413,0.536-0.782,0.479c-0.122-0.019-0.246-0.042-0.36-0.086
						c-2.308-0.894-4.75-1.293-7.128-1.926c-4.421-1.177-8.793-2.509-12.843-4.693c-4.098-2.209-7.188-5.413-9.186-9.634
						c-0.297-0.628-0.502-1.302-0.703-1.969c-0.062-0.206,0.031-0.458,0.054-0.689C68.713,312.731,68.808,312.716,68.904,312.702z"
						/>
					<path style="fill:#000096;" d="M118.105,242.293c0.401-0.232,0.661-0.042,0.854,0.249c0.407,0.616,0.816,1.233,1.176,1.877
						c0.578,1.035,1.118,2.092,1.713,3.213c0.153,0.32-0.425,0.711-0.761,0.19c-1.02-1.727-2.029-3.46-3.028-5.199
						C118.014,242.544,118.088,242.397,118.105,242.293z"/>
					<path style="fill:#000096;" d="M116.803,247.965l1.402,1.026c0.686,0.502,1.501,0.799,2.349,0.857l0.262,0.018
						c0.605-0.039,0.699,0.689-0.289,0.689h-0.009c-1.447,0-2.88-0.647-3.649-1.873c-0.096-0.154-0.185-0.316-0.265-0.489
						C116.506,247.896,116.613,247.755,116.803,247.965z"/>
					<path style="fill:#000096;" d="M159.46,293.616c-0.508,0.226-0.921-0.33-0.41-0.582c0.886-0.465,2.386-1.485,2.825-1.017
						C162.342,292.397,160.334,293.196,159.46,293.616z"/>
					<path style="fill:#000096;" d="M98.338,265.63c0.125-0.895,0.531-1.488,1.333-1.902c0.408,0.873-0.206,1.37-0.441,1.909
						C98.924,265.808,98.693,265.796,98.338,265.63z"/>
					<path style="fill:#000096;" d="M94.849,267.548c0.135-0.849,0.523-1.448,1.333-1.834c0.384,0.748-0.07,1.228-0.384,1.721
						C95.601,267.743,95.308,267.864,94.849,267.548z"/>
					<path style="fill:#000096;" d="M95.373,272.947c-0.294-0.138-0.463-0.246-0.502-0.612c0.127-0.491,0.366-1.031,0.886-1.32
						c0.35-0.027,0.436,0.17,0.563,0.397C96.114,271.946,95.965,272.543,95.373,272.947z"/>
					<path style="fill:#000096;" d="M113.799,297.836c-0.301-0.087-0.439-0.217-0.51-0.522c0.372-0.482,0.273-1.473,1.365-1.414
						C114.679,296.814,114.57,297.056,113.799,297.836z"/>
				</g>
			</g>
		</g>
	</g>
</g>
<g id="DESIGNED_BY_FREEPIK">
	<g>
		<g id="XMLID_319_">
			<g id="XMLID_338_">
				<path id="XMLID_346_" style="fill:#1D262D;" d="M260.104,465.465c-0.432,0.443-0.803,0.931-1.108,1.453l-0.465-0.241
					c-0.067-0.298-0.349-0.503-0.659-0.466c-0.331,0.039-0.568,0.339-0.529,0.67c0.039,0.331,0.339,0.568,0.67,0.529
					c0.066-0.008,0.127-0.026,0.184-0.052l0.451,0.234c-0.251,0.554-0.433,1.139-0.539,1.744l0.747,0.132
					c0.23-1.306,0.85-2.507,1.792-3.473L260.104,465.465z"/>
				<path id="XMLID_345_" style="fill:#1D262D;" d="M265.592,463.163c-0.171,0-0.341,0.006-0.51,0.017l-0.074-0.626
					c0.188-0.149,0.296-0.389,0.266-0.645c-0.046-0.393-0.402-0.674-0.795-0.628c-0.393,0.046-0.674,0.402-0.628,0.795
					c0.03,0.254,0.189,0.461,0.404,0.564l0.074,0.624c-0.714,0.116-1.403,0.332-2.06,0.646l0.327,0.684
					c0.934-0.447,1.942-0.673,2.995-0.673c0.496,0,0.993,0.053,1.475,0.158l0.161-0.741
					C266.692,463.222,266.142,463.163,265.592,463.163z"/>
				<path id="XMLID_344_" style="fill:#1D262D;" d="M272.194,465.711c0.331-0.04,0.566-0.341,0.526-0.672
					c-0.04-0.331-0.341-0.566-0.672-0.526c-0.309,0.038-0.535,0.304-0.53,0.609l-0.416,0.363c-0.418-0.43-0.889-0.813-1.408-1.139
					l-0.404,0.641c1.134,0.715,2.021,1.726,2.563,2.925l0.69-0.313c-0.251-0.554-0.567-1.072-0.942-1.545l0.402-0.351
					C272.065,465.716,272.129,465.719,272.194,465.711z"/>
				<path id="XMLID_343_" style="fill:#1D262D;" d="M265.044,473.372c-0.386,0.023-0.775,0.035-1.157,0.035
					c-0.88,0-1.733-0.061-2.478-0.179c-0.39-0.062-0.846-0.155-1.27-0.292c1.046,1.861,3.069,3.125,5.388,3.125
					c2.855,0,5.262-1.916,5.95-4.504c-0.682,0.449-1.505,0.825-2.459,1.123C267.839,473.047,266.463,473.286,265.044,473.372z"/>
				<path id="XMLID_339_" style="fill:#1D262D;" d="M265.592,464.68c-3.352,0-6.08,2.666-6.08,5.943
					c0,0.426,0.046,0.849,0.137,1.261c0.673,0.483,2.706,0.89,5.348,0.731c2.879-0.173,5.297-0.957,6.672-2.159
					c-0.006-0.195-0.021-0.39-0.045-0.582C271.244,466.913,268.65,464.68,265.592,464.68z M263.432,471.194
					c-1.02,0-1.85-0.83-1.85-1.85c0-1.02,0.83-1.85,1.85-1.85c1.02,0,1.85,0.83,1.85,1.85
					C265.282,470.365,264.452,471.194,263.432,471.194z M268.17,470.286c-0.75,0-1.36-0.61-1.36-1.36s0.61-1.361,1.36-1.361
					c0.75,0,1.361,0.61,1.361,1.361S268.92,470.286,268.17,470.286z"/>
			</g>
			<path id="XMLID_336_" style="fill:#1D262D;" d="M281.595,466.547c-0.295-0.116-0.805-0.309-1.382-0.237
				c-0.551,0.069-0.844,0.341-0.844,1.007v0.866h2.228v1.717h-2.228v5.455h-1.932v-5.455h-1.34v-1.717h1.34v-0.888
				c0-1.68,0.896-2.783,2.568-2.783c0.643,0,1.157,0.122,1.59,0.308L281.595,466.547z"/>
			<path id="XMLID_334_" style="fill:#1D262D;" d="M286.298,469.879c-0.177-0.03-0.358-0.046-0.526-0.046
				c-0.896,0-1.51,0.548-1.51,1.614v3.908h-1.932v-7.172h1.873v0.785c0.451-0.673,1.14-0.977,2.021-0.977
				c0.414,0,0.848,0.128,1.094,0.337L286.298,469.879z"/>
			<path id="XMLID_331_" style="fill:#1D262D;" d="M293.965,471.757c0,0.222-0.015,0.489-0.037,0.651h-5.085
				c0.207,1.036,0.933,1.488,1.843,1.488c0.622,0,1.295-0.252,1.813-0.688l1.133,1.243c-0.814,0.748-1.85,1.088-3.057,1.088
				c-2.198,0-3.723-1.495-3.723-3.753c0-2.258,1.48-3.797,3.627-3.797C292.544,467.99,293.958,469.522,293.965,471.757z
				 M288.851,471.091h3.175c-0.177-0.918-0.733-1.436-1.562-1.436C289.554,469.655,289.021,470.203,288.851,471.091z"/>
			<path id="XMLID_328_" style="fill:#1D262D;" d="M301.618,471.757c0,0.222-0.015,0.489-0.037,0.651h-5.085
				c0.207,1.036,0.932,1.488,1.843,1.488c0.622,0,1.295-0.252,1.814-0.688l1.132,1.243c-0.814,0.748-1.85,1.088-3.057,1.088
				c-2.198,0-3.723-1.495-3.723-3.753c0-2.258,1.48-3.797,3.627-3.797C300.197,467.99,301.611,469.522,301.618,471.757z
				 M296.504,471.091h3.175c-0.178-0.918-0.733-1.436-1.562-1.436C297.207,469.655,296.674,470.203,296.504,471.091z"/>
			<path id="XMLID_325_" style="fill:#1D262D;" d="M309.964,471.764c0,2.154-1.495,3.775-3.471,3.775
				c-0.962,0-1.643-0.378-2.109-0.933v3.708h-1.924v-10.133h1.887v0.792c0.466-0.585,1.155-0.984,2.139-0.984
				C308.469,467.99,309.964,469.61,309.964,471.764z M304.287,471.764c0,1.132,0.747,1.976,1.843,1.976
				c1.14,0,1.85-0.881,1.85-1.976c0-1.095-0.71-1.976-1.85-1.976C305.035,469.788,304.287,470.632,304.287,471.764z"/>
			<path id="XMLID_322_" style="fill:#1D262D;" d="M313.068,465.836c0,0.696-0.54,1.229-1.236,1.229
				c-0.696,0-1.229-0.533-1.229-1.229c0-0.696,0.533-1.243,1.229-1.243C312.527,464.592,313.068,465.14,313.068,465.836z
				 M312.809,475.354h-1.932v-7.172h1.932V475.354z"/>
			<path id="XMLID_320_" style="fill:#1D262D;" d="M316.032,470.736l2.701-2.554h2.368l-3.479,3.375l3.501,3.797h-2.376
				l-2.716-2.901v2.901H314.1v-10.658h1.932V470.736z"/>
		</g>
		<g>
			<path style="fill:#1D262D;" d="M184.412,475.289v-1.055c-0.527,0.718-1.391,1.23-2.388,1.23c-1.846,0-3.149-1.406-3.149-3.706
				c0-2.256,1.289-3.721,3.149-3.721c0.952,0,1.816,0.469,2.388,1.245v-3.765h1.099v9.77H184.412z M184.412,473.37v-3.208
				c-0.395-0.615-1.245-1.143-2.124-1.143c-1.421,0-2.27,1.172-2.27,2.739c0,1.567,0.85,2.724,2.27,2.724
				C183.168,474.483,184.017,473.986,184.412,473.37z"/>
			<path style="fill:#1D262D;" d="M186.932,471.744c0-2.051,1.465-3.706,3.486-3.706c2.139,0,3.398,1.67,3.398,3.794v0.279h-5.727
				c0.088,1.333,1.025,2.446,2.549,2.446c0.805,0,1.626-0.322,2.182-0.894l0.527,0.718c-0.703,0.703-1.655,1.084-2.812,1.084
				C188.44,475.465,186.932,473.956,186.932,471.744z M190.403,468.947c-1.509,0-2.256,1.274-2.314,2.358h4.643
				C192.718,470.25,192.015,468.947,190.403,468.947z"/>
			<path style="fill:#1D262D;" d="M194.607,474.351l0.571-0.791c0.469,0.542,1.362,1.011,2.329,1.011c1.084,0,1.67-0.513,1.67-1.216
				c0-1.714-4.38-0.659-4.38-3.281c0-1.098,0.952-2.036,2.636-2.036c1.201,0,2.051,0.454,2.622,1.026l-0.513,0.762
				c-0.424-0.513-1.201-0.894-2.109-0.894c-0.967,0-1.567,0.483-1.567,1.113c0,1.552,4.38,0.527,4.38,3.281
				c0,1.187-0.952,2.138-2.783,2.138C196.306,475.465,195.325,475.113,194.607,474.351z"/>
			<path style="fill:#1D262D;" d="M201.477,466.471c0-0.41,0.337-0.747,0.732-0.747c0.41,0,0.747,0.337,0.747,0.747
				c0,0.41-0.337,0.732-0.747,0.732C201.814,467.203,201.477,466.881,201.477,466.471z M201.667,475.289v-7.075h1.099v7.075H201.667
				z"/>
			<path style="fill:#1D262D;" d="M204.582,477.105l0.556-0.82c0.586,0.703,1.289,0.967,2.3,0.967c1.172,0,2.27-0.571,2.27-2.124
				v-1.011c-0.513,0.718-1.377,1.26-2.373,1.26c-1.845,0-3.149-1.377-3.149-3.662c0-2.27,1.289-3.677,3.149-3.677
				c0.952,0,1.802,0.469,2.373,1.245v-1.069h1.098v6.87c0,2.344-1.641,3.076-3.369,3.076
				C206.237,478.16,205.417,477.926,204.582,477.105z M209.709,473.253v-3.091c-0.381-0.615-1.23-1.143-2.109-1.143
				c-1.421,0-2.27,1.128-2.27,2.695c0,1.553,0.849,2.695,2.27,2.695C208.478,474.41,209.328,473.868,209.709,473.253z"/>
			<path style="fill:#1D262D;" d="M217.413,475.289v-4.629c0-1.245-0.63-1.641-1.582-1.641c-0.865,0-1.685,0.527-2.095,1.099v5.17
				h-1.099v-7.075h1.099v1.025c0.498-0.586,1.465-1.201,2.519-1.201c1.48,0,2.256,0.747,2.256,2.285v4.966H217.413z"/>
			<path style="fill:#1D262D;" d="M219.932,471.744c0-2.051,1.465-3.706,3.486-3.706c2.139,0,3.398,1.67,3.398,3.794v0.279h-5.727
				c0.088,1.333,1.025,2.446,2.549,2.446c0.806,0,1.626-0.322,2.183-0.894l0.527,0.718c-0.703,0.703-1.655,1.084-2.812,1.084
				C221.441,475.465,219.932,473.956,219.932,471.744z M223.404,468.947c-1.509,0-2.256,1.274-2.314,2.358h4.643
				C225.718,470.25,225.015,468.947,223.404,468.947z"/>
			<path style="fill:#1D262D;" d="M233.35,475.289v-1.055c-0.527,0.718-1.392,1.23-2.388,1.23c-1.846,0-3.149-1.406-3.149-3.706
				c0-2.256,1.289-3.721,3.149-3.721c0.952,0,1.817,0.469,2.388,1.245v-3.765h1.098v9.77H233.35z M233.35,473.37v-3.208
				c-0.396-0.615-1.245-1.143-2.124-1.143c-1.421,0-2.27,1.172-2.27,2.739c0,1.567,0.849,2.724,2.27,2.724
				C232.105,474.483,232.954,473.986,233.35,473.37z"/>
			<path style="fill:#1D262D;" d="M239.692,475.289v-9.77h1.098v3.765c0.572-0.776,1.421-1.245,2.388-1.245
				c1.845,0,3.149,1.465,3.149,3.721c0,2.299-1.304,3.706-3.149,3.706c-0.996,0-1.86-0.513-2.388-1.23v1.055H239.692z
				 M242.9,474.483c1.436,0,2.285-1.157,2.285-2.724c0-1.568-0.85-2.739-2.285-2.739c-0.864,0-1.728,0.527-2.109,1.143v3.208
				C241.171,473.986,242.036,474.483,242.9,474.483z"/>
			<path style="fill:#1D262D;" d="M247.528,477.061c0.161,0.073,0.425,0.117,0.601,0.117c0.483,0,0.805-0.161,1.055-0.747
				l0.469-1.069l-2.959-7.148h1.187l2.358,5.8l2.344-5.8h1.201l-3.545,8.51c-0.425,1.025-1.143,1.421-2.08,1.435
				c-0.234,0-0.601-0.044-0.805-0.103L247.528,477.061z"/>
		</g>
	</g>
</g>
</svg>
