<?xml version="1.0" encoding="utf-8"?>
<!-- Generator: Adobe Illustrator 27.5.0, SVG Export Plug-In . SVG Version: 6.00 Build 0)  -->
<svg version="1.1" id="Layer_1" xmlns="http://www.w3.org/2000/svg" xmlns:xlink="http://www.w3.org/1999/xlink" x="0px" y="0px"
	 viewBox="0 0 2750 2000" style="enable-background:new 0 0 2750 2000;" xml:space="preserve">
<rect style="fill:#FFFFFF;" width="2750" height="2000"/>
<g>
	<path style="fill:#FDEACF;" d="M2616.552,1510.05c-53.515,199.835-231.8,330.699-429.183,330.699H534.84
		c-190.191,0-353.241-137.042-384.61-324.629c-18.013-107.707-19.001-221.537-10.874-330.467
		c21.731-291.487,185.76-653.447,509.964-868.59c76.163-50.69,163.014-93.676,253.729-123.998
		c71.968-24.237,148.907-41.514,217.244-50.314c412.206-54.961,397.962,265.254,859.965,341.328
		C2458.835,562.881,2745.011,1030.51,2616.552,1510.05z"/>
	<g>
		<g>
			<rect x="1216.392" y="1124.368" style="fill:#5D96DB;" width="332.484" height="696.572"/>
		</g>
		<g>
			<path style="fill:#5D96DB;" d="M2383.946,1523.014V423.324c0-45.339-36.754-82.093-82.093-82.093H451.706
				c-45.339,0-82.093,36.754-82.093,82.093v1099.689H2383.946z"/>
		</g>
		<g>
			<path style="fill:#1971BA;" d="M2383.943,1522.022v8.431c0,31.81-21.021,57.594-46.957,57.594H416.571
				c-25.935,0-46.957-25.785-46.957-57.594v-8.431H2383.943z"/>
		</g>
		<g>
			<g>
				<path style="fill:#FFFFFF;" d="M2336.794,1522.021V425.872c0-23.86-20.039-43.203-44.76-43.203H461.524
					c-24.72,0-44.759,19.342-44.759,43.203v1096.149H2336.794z"/>
			</g>
		</g>
		<rect x="486.511" y="542.096" style="opacity:0.5;fill:#CEDFFC;" width="1347.089" height="828.598"/>
		<path style="opacity:0.5;fill:#CEDFFC;" d="M981.132,526.572H640.696c-13.056,0-23.639-10.584-23.639-23.639l0,0
			c0-13.056,10.584-23.639,23.639-23.639h340.436c13.056,0,23.639,10.584,23.639,23.639v0
			C1004.771,515.988,994.188,526.572,981.132,526.572z"/>
		<g>
			<path style="fill:#1971BA;" d="M1832.376,1840.816c5.644-32.921-16.468-59.609-49.389-59.609H982.85
				c-32.921,0-64.185,26.688-69.829,59.609v0L1832.376,1840.816z"/>
		</g>
		<g style="opacity:0.8;">
			<g>
				<path style="fill:#CEDFFC;" d="M1201.06,948.494c-5.322-5.7-11.459-10.392-18.131-13.984l1.538-18.705l-12.388-3.351
					l-12.388-3.351l-8.101,16.929c-7.573-0.261-15.238,0.697-22.708,2.937l-12.141-14.315l-11.129,6.39l-11.129,6.39l6.243,17.702
					c-5.7,5.322-10.391,11.459-13.984,18.131l-18.705-1.538l-3.351,12.387l-3.351,12.388l16.929,8.102
					c-0.261,7.573,0.697,15.238,2.937,22.708l-14.315,12.141l6.39,11.129l6.39,11.129l17.702-6.243
					c5.322,5.7,11.459,10.391,18.131,13.984l-1.537,18.705l12.387,3.351l12.387,3.351l8.102-16.929
					c7.573,0.261,15.238-0.697,22.708-2.937l12.141,14.316l11.129-6.39l11.129-6.39l-6.243-17.702
					c5.7-5.322,10.391-11.459,13.984-18.131l18.705,1.537l3.351-12.388l3.351-12.388l-16.929-8.102
					c0.261-7.573-0.697-15.238-2.937-22.708l14.315-12.141l-6.39-11.129l-6.39-11.129L1201.06,948.494z M1173.186,1038.733
					c-23.058,13.24-52.484,5.28-65.723-17.779c-13.24-23.058-5.28-52.484,17.779-65.723c23.058-13.24,52.484-5.28,65.723,17.778
					C1204.205,996.068,1196.245,1025.493,1173.186,1038.733z"/>
			</g>
		</g>
		<g>
			<path style="fill:#21111D;" d="M2336.989,1590.452H416.571c-27.22,0-49.364-26.914-49.364-59.995V423.325
				c0-46.593,37.905-84.5,84.498-84.5v4.813c-43.938,0-79.686,35.748-79.686,79.687v1107.132c0,30.428,19.987,55.182,44.551,55.182
				h1920.417V1590.452z"/>
		</g>
		<g>
			
				<rect x="1284.716" y="1620.52" transform="matrix(0.4962 -0.8682 0.8682 0.4962 -750.2006 1953.0912)" style="fill:#21111D;" width="45.974" height="4.812"/>
		</g>
		<g>
			
				<rect x="1290.055" y="1645.828" transform="matrix(0.506 -0.8625 0.8625 0.506 -774.297 1944.5493)" style="fill:#21111D;" width="40.763" height="4.811"/>
		</g>
		<g>
			<g>
				<path style="opacity:0.5;fill:#CEDFFC;" d="M2336.794,457.425v-31.553c0-23.86-20.039-43.203-44.76-43.203H461.524
					c-24.72,0-44.759,19.342-44.759,43.203v31.553H2336.794z"/>
			</g>
		</g>
		
			<ellipse transform="matrix(0.7071 -0.7071 0.7071 0.7071 362.0739 1726.2074)" style="fill:#CEDFFC;" cx="2264.754" cy="426.042" rx="17.263" ry="17.263"/>
		
			<ellipse transform="matrix(0.2298 -0.9732 0.9732 0.2298 1271.6167 2458.8411)" style="fill:#CEDFFC;" cx="2189.249" cy="426.042" rx="17.263" ry="17.263"/>
		
			<ellipse transform="matrix(0.1602 -0.9871 0.9871 0.1602 1354.6189 2444.2476)" style="fill:#CEDFFC;" cx="2113.744" cy="426.042" rx="17.263" ry="17.263"/>
		<g>
			<g>
				<rect x="486.511" y="1276.275" style="fill:#3D3D3E;" width="1347.089" height="94.42"/>
			</g>
		</g>
		<g>
			<polygon style="fill:#FFFFFF;" points="578.483,1323.485 555.761,1346.206 555.761,1300.763 			"/>
		</g>
		<g>
			<polygon style="fill:#FFFFFF;" points="676.474,1323.485 653.752,1346.206 653.752,1300.763 			"/>
		</g>
		<g>
			<rect x="685.824" y="1300.763" style="fill:#FFFFFF;" width="6.696" height="45.443"/>
		</g>
		<g>
			<polygon style="fill:#FFFFFF;" points="772.241,1300.763 761.66,1311.343 761.66,1311.343 749.519,1311.343 749.519,1335.626 
				761.66,1335.626 761.66,1335.626 772.241,1346.207 			"/>
		</g>
		<g style="opacity:0.5;">
			<rect x="798.35" y="1316.7" style="fill:#FFFFFF;" width="1019.343" height="13.569"/>
		</g>
		<g>
			<rect x="823.305" y="1316.7" style="fill:#ED2B47;" width="644.887" height="13.569"/>
		</g>
		<g>
			<g>
				<g>
					<g>
						<g>
							<g>
								<path style="fill:#1971BA;" d="M1701.641,348.146v185.263c0,17.1-13.864,30.975-30.975,30.975h-447.911
									c-17.111,0-30.975-13.875-30.975-30.975V347.943c0-15.925,12.006-29.031,27.461-30.772h451.425
									C1687.777,317.171,1701.641,331.034,1701.641,348.146z"/>
							</g>
						</g>
					</g>
				</g>
				<g>
					<g>
						<g>
							<g>
								<g>
									<path style="fill:#1971BA;" d="M1324.884,550.958c-0.635,1.583-76.004,76.012-76.076,73.496
										c-0.073-2.515,19.647-88.344,19.647-88.344L1324.884,550.958z"/>
								</g>
							</g>
						</g>
					</g>
				</g>
			</g>
			<g>
				<path style="fill:#FFFFFF;" d="M1543.114,437.466c0,24.338,14.078,45.385,34.529,55.462c8.22,4.047,17.482,6.316,27.261,6.316
					c6.064,0,11.934-0.871,17.471-2.51c25.61-7.532,44.307-31.216,44.307-59.268c0-34.116-27.662-61.778-61.778-61.778
					C1570.776,375.688,1543.114,403.35,1543.114,437.466z"/>
				<path style="fill:#8CD2F9;" d="M1547.333,437.471c0,22.334,12.721,41.699,31.317,51.237c0.278,0.149,0.566,0.299,0.854,0.438
					c7.658,3.771,16.289,5.885,25.4,5.885c5.458,0,10.745-0.758,15.744-2.19c0.182-0.043,0.352-0.096,0.534-0.15
					c23.861-7.017,41.282-29.085,41.282-55.221c0-31.787-25.773-57.56-57.56-57.56
					C1573.106,379.911,1547.333,405.685,1547.333,437.471z"/>
				<g>
					<g>
						<g>
							<g>
								<g>
									<g>
										<g>
											<g>
												<g>
													<g>
														<path style="fill:#FE9F73;" d="M1578.649,488.709c0.278,0.149,0.566,0.299,0.854,0.438
															c7.658,3.771,16.289,5.885,25.4,5.885c5.458,0,10.745-0.758,15.744-2.19l-0.449-2.991l-1.944-13.042
															c11.589-1.965,10.692-15.242,10.692-15.242l-1.068-40.609l-0.021-0.748l-47.905-8.919l-0.139,18.692l-0.021,3.61
															l-0.021,2.04l-0.011,2.275l-0.117,15.851l-0.021,2.927l0.715,11.696
															C1580.337,468.382,1579.023,479.993,1578.649,488.709z"/>
													</g>
												</g>
											</g>
										</g>
									</g>
								</g>
							</g>
						</g>
					</g>
					<g>
						<g>
							<g>
								<g>
									<g>
										<g>
											<g>
												<g>
													<g>
														<path style="fill:#F07162;" d="M1590.988,466.224c0,0,1.364,22.233,29.212,23.629l-1.945-13.041
															C1618.254,476.811,1600.325,480.906,1590.988,466.224z"/>
													</g>
												</g>
											</g>
										</g>
									</g>
								</g>
							</g>
						</g>
					</g>
					<g>
						<g>
							<g>
								<g>
									<g>
										<g>
											<g>
												<path d="M1577.082,437.428l12.021,2.175l2.22,2.182c0,0-1.561-20.017-3.916-23.898
													C1585.051,414.005,1577.082,437.428,1577.082,437.428z"/>
											</g>
										</g>
									</g>
								</g>
							</g>
						</g>
					</g>
					<g>
						<g>
							<g>
								<g>
									<g>
										<g>
											<g>
												<g>
													<g>
														<path style="fill:#FE9F73;" d="M1593.846,444.468c0.144,5.507-4.203,10.089-9.71,10.233
															c-5.507,0.144-10.089-4.203-10.233-9.71c-0.145-5.507,4.203-10.089,9.71-10.233
															C1589.12,434.613,1593.701,438.961,1593.846,444.468z"/>
													</g>
												</g>
											</g>
										</g>
									</g>
								</g>
							</g>
						</g>
					</g>
					<g>
						<g>
							<g>
								<g>
									<g>
										<g>
											<g>
												<path d="M1577.082,437.428c0,0-3.876-19.328,1.879-26.721c5.755-7.393,39.542-20.953,43.772-17.443
													c4.231,3.51,0.21,8.013,0.21,8.013s13.584-4.753,17.004,7.314c3.42,12.067-25.91,18.009-43.636,12.784
													C1596.311,421.374,1584.776,425.069,1577.082,437.428z"/>
											</g>
										</g>
									</g>
								</g>
							</g>
						</g>
					</g>
				</g>
			</g>
			<g>
				<polygon style="fill:#FFFFFF;" points="1514.337,354.697 1507.517,368.516 1492.267,370.732 1503.302,381.488 1500.697,396.676 
					1514.337,389.505 1527.977,396.676 1525.372,381.488 1536.407,370.732 1521.157,368.516 				"/>
				<polygon style="fill:#FFFFFF;" points="1447.955,354.697 1441.135,368.516 1425.885,370.732 1436.92,381.488 1434.315,396.676 
					1447.955,389.505 1461.595,396.676 1458.99,381.488 1470.025,370.732 1454.775,368.516 				"/>
				<polygon style="fill:#FFFFFF;" points="1381.573,354.697 1374.753,368.516 1359.503,370.732 1370.538,381.488 1367.933,396.676 
					1381.573,389.505 1395.212,396.676 1392.607,381.488 1403.642,370.732 1388.392,368.516 				"/>
				<polygon style="fill:#FFFFFF;" points="1315.19,354.697 1308.37,368.516 1293.12,370.732 1304.155,381.488 1301.551,396.676 
					1315.19,389.505 1328.83,396.676 1326.225,381.488 1337.26,370.732 1322.01,368.516 				"/>
				<polygon style="fill:#FFFFFF;" points="1248.808,354.697 1241.988,368.516 1226.738,370.732 1237.773,381.488 1235.168,396.676 
					1248.808,389.505 1262.448,396.676 1259.843,381.488 1270.878,370.732 1255.628,368.516 				"/>
			</g>
			
				<rect x="1274.912" y="417.453" transform="matrix(-1 -1.224647e-16 1.224647e-16 -1 2797.5806 840.8727)" style="fill:#FFFFFF;" width="247.756" height="5.967"/>
			
				<rect x="1230.87" y="444.196" transform="matrix(-1 -1.224647e-16 1.224647e-16 -1 2753.5381 894.3598)" style="fill:#FFFFFF;" width="291.798" height="5.967"/>
			
				<rect x="1230.87" y="470.94" transform="matrix(-1 -1.224647e-16 1.224647e-16 -1 2753.5381 947.8467)" style="fill:#FFFFFF;" width="291.798" height="5.967"/>
		</g>
		<g>
			<path style="fill:#CEDFFC;" d="M797.843,1048.299c-0.243-12.306-2.507-24.287-6.557-35.54l21.524-20.352l-11.02-16.995
				l-11.02-16.995l-27.363,11.346c-8.621-8.29-18.635-15.245-29.771-20.489l0.829-29.615l-19.809-4.225l-19.809-4.225
				l-11.327,27.376c-12.306,0.243-24.287,2.507-35.54,6.557l-20.352-21.524l-16.995,11.019l-16.995,11.02l11.346,27.364
				c-8.29,8.621-15.245,18.635-20.488,29.771l-29.615-0.829l-4.225,19.809l-4.226,19.809l27.376,11.327
				c0.243,12.306,2.507,24.287,6.557,35.54l-21.524,20.352l11.02,16.995l11.019,16.995l27.364-11.347
				c8.621,8.29,18.635,15.245,29.771,20.489l-0.829,29.615l19.809,4.225l19.81,4.225l11.327-27.376
				c12.306-0.243,24.287-2.507,35.54-6.557l20.352,21.525l16.995-11.02l16.995-11.019l-11.346-27.364
				c8.29-8.621,15.245-18.635,20.488-29.771l29.615,0.829l4.226-19.809l4.226-19.809L797.843,1048.299z M706.472,1123.733
				c-40.389,11.403-82.374-12.094-93.778-52.482c-11.404-40.389,12.094-82.374,52.482-93.778
				c40.389-11.403,82.375,12.094,93.778,52.482C770.358,1070.344,746.86,1112.33,706.472,1123.733z"/>
		</g>
		<g style="opacity:0.8;">
			<g>
				<path style="fill:#CEDFFC;" d="M616.735,744.747c-3.773-4.041-8.124-7.367-12.854-9.914l1.09-13.261l-8.783-2.376l-8.783-2.376
					l-5.744,12.002c-5.369-0.185-10.804,0.494-16.099,2.082l-8.607-10.149l-7.89,4.53l-7.89,4.53l4.426,12.55
					c-4.041,3.773-7.367,8.124-9.914,12.854l-13.261-1.09l-2.376,8.782l-2.376,8.783l12.003,5.744
					c-0.185,5.369,0.494,10.803,2.082,16.099l-10.149,8.608l4.53,7.89l4.53,7.89l12.55-4.426c3.773,4.041,8.124,7.367,12.854,9.914
					l-1.09,13.261l8.783,2.376l8.783,2.376l5.744-12.003c5.369,0.185,10.804-0.494,16.099-2.082l8.607,10.149l7.89-4.53l7.89-4.53
					l-4.426-12.55c4.041-3.773,7.367-8.124,9.914-12.854l13.261,1.09l2.376-8.783l2.376-8.783l-12.003-5.744
					c0.185-5.369-0.494-10.804-2.082-16.099l10.149-8.607l-4.53-7.89l-4.53-7.89L616.735,744.747z M596.973,808.725
					c-16.348,9.387-37.21,3.743-46.597-12.605c-9.387-16.348-3.743-37.21,12.605-46.597c16.348-9.387,37.21-3.743,46.597,12.605
					C618.964,778.476,613.321,799.338,596.973,808.725z"/>
			</g>
		</g>
		<g style="opacity:0.8;">
			<g>
				<path style="fill:#CEDFFC;" d="M1283.688,1114.424c-2.916-3.123-6.278-5.693-9.933-7.661l0.843-10.247l-6.786-1.836
					l-6.786-1.836l-4.438,9.274c-4.149-0.143-8.348,0.382-12.44,1.609l-6.651-7.843l-6.097,3.501l-6.097,3.501l3.42,9.698
					c-3.123,2.915-5.693,6.278-7.661,9.933l-10.247-0.842l-1.836,6.786l-1.836,6.786l9.274,4.438
					c-0.143,4.149,0.382,8.348,1.609,12.44l-7.842,6.651l3.5,6.097l3.501,6.097l9.698-3.42c2.916,3.123,6.278,5.693,9.932,7.661
					l-0.842,10.247l6.786,1.836l6.786,1.836l4.438-9.274c4.149,0.143,8.348-0.382,12.44-1.609l6.651,7.843l6.097-3.501l6.097-3.501
					l-3.42-9.698c3.123-2.916,5.693-6.278,7.661-9.933l10.247,0.842l1.836-6.786l1.836-6.786l-9.274-4.438
					c0.143-4.149-0.382-8.348-1.609-12.44l7.842-6.651l-3.501-6.097l-3.5-6.097L1283.688,1114.424z M1268.418,1163.86
					c-12.632,7.253-28.752,2.892-36.006-9.74c-7.253-12.632-2.892-28.752,9.74-36.005c12.632-7.253,28.752-2.892,36.005,9.74
					C1285.411,1140.486,1281.051,1156.607,1268.418,1163.86z"/>
			</g>
		</g>
		<g>
			<g>
				<g>
					<path style="fill:#FFFFFF;" d="M1772.647,657.177c-0.219,5.182-2.022,9.884-4.871,13.652h-108.543
						c-0.403-2.17,0.332-4.595,2.531-6.016c4.758-3.075,11.22-1.28,11.22-1.28s-5.175-32.252,15.391-35.094
						c20.566-2.835,25.875,19.428,25.875,19.428c0.601-14.578,35.427-40.355,52.663-10.718
						C1771.389,644.84,1772.88,651.514,1772.647,657.177z"/>
				</g>
			</g>
		</g>
		<g>
			<g>
				<g>
					<path style="fill:#FFFFFF;" d="M1336.553,963.989c0.166,3.934,1.535,7.502,3.698,10.362h82.388
						c0.306-1.647-0.252-3.488-1.921-4.567c-3.612-2.334-8.516-0.971-8.516-0.971s3.928-24.481-11.682-26.638
						c-15.611-2.152-19.641,14.746-19.641,14.746c-0.456-11.065-26.89-30.631-39.973-8.135
						C1337.508,954.625,1336.376,959.691,1336.553,963.989z"/>
				</g>
			</g>
		</g>
		<g>
			<g>
				<g>
					<path style="fill:#1971BA;" d="M1345.378,720.742V615.957c0-6.91,5.602-12.512,12.512-12.512h216.338
						c6.91,0,12.512,5.602,12.512,12.512v104.786c0,6.91-5.602,12.512-12.512,12.512h-173.151l-33.157,22.924l8.395-22.924h-18.425
						C1350.98,733.255,1345.378,727.653,1345.378,720.742z"/>
				</g>
			</g>
			<g>
				<g>
					<g>
						<g>
							<path style="fill:#FFFFFF;" d="M1362.816,685.194c-1.393,0-2.522-1.129-2.522-2.522c0-1.393,1.129-2.522,2.522-2.522h201.258
								c1.393,0,2.522,1.129,2.522,2.522c0,1.393-1.129,2.522-2.522,2.522H1362.816z"/>
						</g>
					</g>
				</g>
				<g>
					<g>
						<g>
							<path style="fill:#FFFFFF;" d="M1493.583,627.905h-130.767c-1.393,0-2.522-1.129-2.522-2.522
								c0-1.393,1.129-2.522,2.522-2.522h130.767c1.393,0,2.522,1.129,2.522,2.522
								C1496.105,626.776,1494.977,627.905,1493.583,627.905z"/>
						</g>
					</g>
				</g>
				<g>
					<g>
						<g>
							<path style="fill:#FFFFFF;" d="M1362.816,713.839c-1.393,0-2.522-1.129-2.522-2.522c0-1.393,1.129-2.522,2.522-2.522h56.541
								c1.393,0,2.522,1.129,2.522,2.522c0,1.393-1.129,2.522-2.522,2.522H1362.816z"/>
						</g>
					</g>
				</g>
				<g>
					<g>
						<g>
							<path style="fill:#FFFFFF;" d="M1437.042,713.839c-1.393,0-2.522-1.129-2.522-2.522c0-1.393,1.129-2.522,2.522-2.522h127.032
								c1.393,0,2.522,1.129,2.522,2.522c0,1.393-1.129,2.522-2.522,2.522H1437.042z"/>
						</g>
					</g>
				</g>
				<g>
					<g>
						<g>
							<path style="fill:#FFFFFF;" d="M1513.386,627.905c-1.393,0-2.522-1.129-2.522-2.522c0-1.393,1.129-2.522,2.522-2.522h52.183
								c1.393,0,2.522,1.129,2.522,2.522c0,1.393-1.129,2.522-2.522,2.522H1513.386z"/>
						</g>
					</g>
				</g>
				<g>
					<g>
						<g>
							<path style="fill:#FFFFFF;" d="M1362.816,656.549c-1.393,0-2.522-1.129-2.522-2.522c0-1.393,1.129-2.522,2.522-2.522h82.197
								c1.393,0,2.522,1.129,2.522,2.522c0,1.393-1.129,2.522-2.522,2.522H1362.816z"/>
						</g>
					</g>
				</g>
				<g>
					<g>
						<g>
							<path style="fill:#FFFFFF;" d="M1463.445,656.549c-1.393,0-2.522-1.129-2.522-2.522c0-1.393,1.129-2.522,2.522-2.522h102.124
								c1.393,0,2.522,1.129,2.522,2.522c0,1.393-1.129,2.522-2.522,2.522H1463.445z"/>
						</g>
					</g>
				</g>
			</g>
		</g>
		<g>
			<g>
				<g>
					<path style="fill:#1971BA;" d="M1461.786,994.644c-0.175,0.568,0.031,1.207,0.55,1.556c0.088,0.059,2.182,1.467,5.975,3.676
						c0.661,0.385,1.509,0.161,1.895-0.5c0.383-0.656,0.162-1.508-0.5-1.894c-3.705-2.158-5.8-3.566-5.821-3.579
						c-0.634-0.428-1.495-0.259-1.923,0.375C1461.884,994.394,1461.825,994.517,1461.786,994.644z"/>
				</g>
				<g>
					<path style="fill:#1971BA;" d="M1480.214,1004.729c0.338-0.687,1.168-0.97,1.855-0.631c4.193,2.063,8.494,4.007,12.784,5.779
						c0.707,0.291,1.043,1.1,0.752,1.809c-0.292,0.707-1.102,1.044-1.809,0.752c-4.347-1.795-8.703-3.765-12.95-5.854
						c-0.619-0.304-0.91-1.01-0.713-1.649C1480.154,1004.864,1480.181,1004.796,1480.214,1004.729z M1506.239,1015.656
						c0.242-0.726,1.027-1.118,1.752-0.877c1.352,0.451,2.714,0.888,4.049,1.3c3.139,0.968,6.303,1.851,9.406,2.624
						c0.742,0.185,1.194,0.937,1.009,1.679c-0.192,0.758-0.937,1.195-1.679,1.01c-3.151-0.785-6.365-1.681-9.552-2.664
						c-1.355-0.418-2.737-0.861-4.108-1.319c-0.716-0.239-1.107-1.004-0.886-1.722
						C1506.232,1015.675,1506.235,1015.666,1506.239,1015.656z M1535.161,1021.5c4.694,0.739,9.368,1.24,13.891,1.49
						c0.764,0.042,1.349,0.696,1.307,1.459c-0.043,0.763-0.696,1.349-1.46,1.307c-4.617-0.255-9.384-0.766-14.17-1.519
						c-0.756-0.119-1.272-0.828-1.153-1.584c0.01-0.067,0.025-0.132,0.045-0.195
						C1533.822,1021.811,1534.472,1021.392,1535.161,1021.5z M1585.07,906.301c2.437-4.58,5.87-8.137,10.203-10.571
						c0.667-0.375,1.512-0.138,1.887,0.529c0.375,0.668,0.138,1.512-0.529,1.886c-3.864,2.172-6.93,5.354-9.115,9.459
						c-0.359,0.675-1.198,0.932-1.874,0.572c-0.596-0.317-0.866-1.008-0.674-1.63
						C1584.994,906.462,1585.028,906.381,1585.07,906.301z M1582.621,919.078c0.764-0.034,1.412,0.558,1.446,1.322
						c0.175,3.951,2.163,7.889,5.749,11.389c0.547,0.534,0.559,1.411,0.024,1.959c-0.534,0.547-1.411,0.559-1.959,0.024
						c-4.099-4.001-6.375-8.582-6.582-13.249c-0.007-0.164,0.014-0.322,0.06-0.47
						C1581.526,919.51,1582.021,919.104,1582.621,919.078z M1563.001,1022.969c4.705-0.285,9.356-0.867,13.823-1.729
						c0.751-0.145,1.478,0.346,1.623,1.097c0.146,0.752-0.346,1.479-1.098,1.623c-4.585,0.885-9.355,1.482-14.18,1.775
						c-0.764,0.046-1.421-0.535-1.467-1.299c-0.01-0.172,0.011-0.337,0.059-0.492
						C1561.926,1023.408,1562.409,1023.005,1563.001,1022.969z M1609.454,892.065c4.498-0.107,9.202,0.586,13.979,2.059l0.368,0.115
						c0.727,0.229,1.133,1.002,0.908,1.73c-0.001,0.002-0.001,0.005-0.002,0.007c-0.229,0.73-1.007,1.136-1.737,0.906l-0.354-0.11
						c-4.492-1.385-8.898-2.037-13.097-1.937c-0.765,0.018-1.4-0.587-1.418-1.352c-0.004-0.154,0.018-0.303,0.061-0.442
						C1608.333,892.487,1608.843,892.079,1609.454,892.065z M1599.379,939.847c0.307-0.701,1.123-1.021,1.824-0.715
						c1.891,0.827,3.918,1.575,6.024,2.225c2.286,0.705,4.698,1.304,7.17,1.78c0.751,0.145,1.243,0.871,1.099,1.622
						c-0.15,0.744-0.871,1.243-1.623,1.099c-2.57-0.495-5.081-1.118-7.462-1.853c-2.205-0.68-4.33-1.465-6.317-2.333
						c-0.652-0.285-0.974-1.012-0.77-1.676C1599.339,939.946,1599.357,939.896,1599.379,939.847z M1590.265,1017.652
						c4.377-1.511,8.675-3.357,12.773-5.486c0.679-0.353,1.516-0.088,1.868,0.59c0.353,0.679,0.088,1.516-0.591,1.868
						c-4.219,2.192-8.643,4.092-13.147,5.647c-0.723,0.25-1.512-0.134-1.761-0.858c-0.1-0.288-0.098-0.588-0.015-0.859
						C1589.519,1018.147,1589.831,1017.802,1590.265,1017.652z M1634.955,900.825c0.413-0.644,1.27-0.831,1.914-0.418
						c4.121,2.645,7.839,5.775,11.05,9.303c0.515,0.567,0.474,1.442-0.092,1.957c-0.566,0.515-1.442,0.474-1.957-0.092
						c-3.048-3.349-6.58-6.322-10.497-8.836c-0.535-0.344-0.755-0.994-0.576-1.574
						C1634.833,901.048,1634.885,900.934,1634.955,900.825z M1628.193,944.557c4.54,0.091,9.211-0.167,13.884-0.766
						c0.759-0.098,1.453,0.439,1.551,1.198c0.097,0.758-0.439,1.453-1.198,1.55c-4.808,0.617-9.617,0.882-14.293,0.789
						c-0.765-0.016-1.373-0.648-1.357-1.413c0.002-0.132,0.024-0.26,0.061-0.381
						C1627.019,944.957,1627.561,944.544,1628.193,944.557z M1614.95,1004.933c3.821-2.655,7.506-5.56,10.951-8.635
						c0.571-0.51,1.447-0.46,1.956,0.111c0.509,0.571,0.46,1.447-0.111,1.956c-3.529,3.15-7.302,6.125-11.216,8.843
						c-0.628,0.436-1.492,0.281-1.928-0.348c-0.253-0.364-0.307-0.806-0.186-1.199
						C1614.505,1005.376,1614.686,1005.117,1614.95,1004.933z M1653.92,921.204c0.708-0.291,1.517,0.046,1.809,0.753
						c1.812,4.397,2.875,9.162,3.161,14.164c0.043,0.761-0.54,1.419-1.304,1.462c-0.764,0.044-1.418-0.54-1.462-1.304
						c-0.267-4.692-1.262-9.156-2.956-13.266c-0.128-0.31-0.135-0.639-0.043-0.936
						C1653.242,921.695,1653.523,921.368,1653.92,921.204z M1635.699,986.383c3.099-3.567,5.922-7.304,8.391-11.105
						c0.417-0.642,1.275-0.824,1.916-0.407c0.641,0.417,0.824,1.273,0.407,1.917c-2.539,3.909-5.44,7.749-8.623,11.413
						c-0.502,0.577-1.377,0.639-1.954,0.137c-0.427-0.371-0.572-0.947-0.415-1.455
						C1635.476,986.703,1635.568,986.533,1635.699,986.383z M1655.735,941.081c4.428-1.19,8.87-2.692,13.203-4.466
						c0.708-0.289,1.517,0.049,1.807,0.758c0.289,0.708-0.049,1.517-0.757,1.807c-4.44,1.817-8.993,3.357-13.533,4.576
						c-0.739,0.199-1.499-0.239-1.697-0.978c-0.07-0.262-0.061-0.526,0.014-0.767
						C1654.906,941.571,1655.259,941.209,1655.735,941.081z M1650.709,963.078c1.923-4.391,3.374-8.834,4.287-13.134
						c0.16-0.766,0.895-1.227,1.643-1.068c0.748,0.159,1.226,0.894,1.067,1.643c-0.952,4.483-2.46,9.109-4.459,13.67
						c-0.307,0.701-1.124,1.02-1.825,0.713c-0.651-0.286-0.973-1.012-0.768-1.675
						C1650.67,963.176,1650.688,963.126,1650.709,963.078z M1681.471,930.547c3.913-2.253,7.769-4.897,11.462-7.857
						c0.597-0.479,1.469-0.382,1.947,0.215c0.479,0.597,0.382,1.468-0.214,1.948c-3.803,3.048-7.777,5.771-11.812,8.096
						c-0.663,0.382-1.51,0.154-1.892-0.509c-0.2-0.348-0.233-0.745-0.123-1.1C1680.938,931.017,1681.156,930.73,1681.471,930.547z
						 M1703.196,913.265c3.115-3.248,6.171-6.82,9.083-10.615c0.466-0.607,1.335-0.721,1.942-0.255
						c0.608,0.466,0.721,1.337,0.256,1.943c-2.974,3.875-6.096,7.524-9.281,10.846c-0.53,0.552-1.407,0.571-1.959,0.041
						c-0.392-0.375-0.515-0.924-0.365-1.41C1702.933,913.615,1703.041,913.426,1703.196,913.265z M1720.265,891.156
						c2.421-3.84,4.773-7.928,6.992-12.149c0.356-0.677,1.194-0.938,1.871-0.582c0.677,0.356,0.94,1.193,0.582,1.87
						c-2.252,4.285-4.641,8.436-7.101,12.338c-0.408,0.647-1.264,0.841-1.911,0.433c-0.541-0.341-0.766-0.996-0.586-1.579
						C1720.147,891.373,1720.198,891.261,1720.265,891.156z M1733.346,866.364c1.866-4.235,3.633-8.617,5.249-13.025
						c0.264-0.719,1.059-1.087,1.778-0.824c0.719,0.263,1.087,1.067,0.824,1.777c-1.637,4.464-3.425,8.901-5.315,13.189
						c-0.308,0.7-1.126,1.018-1.826,0.709c-0.65-0.286-0.97-1.011-0.766-1.674C1733.305,866.466,1733.324,866.415,1733.346,866.364z
						"/>
				</g>
				<g>
					<path style="fill:#1971BA;" d="M1744.827,833.223c-0.01,0.034-0.019,0.068-0.027,0.102c-0.006,0.024-0.571,2.495-1.775,6.607
						c-0.215,0.734,0.206,1.504,0.941,1.719c0.728,0.213,1.49-0.199,1.713-0.921c0.002-0.006,0.004-0.013,0.006-0.02
						c1.23-4.202,1.794-6.667,1.817-6.77c0.17-0.746-0.297-1.488-1.043-1.658C1745.747,832.12,1745.039,832.537,1744.827,833.223z"
						/>
				</g>
			</g>
			<g>
				<g>
					<path style="fill:#5D96DB;" d="M1755.545,817.126l-2.685-11.589c0,0,19.308-33.932,19.404-34.532
						c0.096-0.6,3.657-22.637,3.657-22.637l-15.858,19.477l-19.213,36.682L1755.545,817.126z"/>
				</g>
				<g>
					<polygon style="fill:#AAC9F8;" points="1719.151,800.312 1775.922,748.367 1740.851,804.526 					"/>
				</g>
				<g>
					<polygon style="fill:#AAC9F8;" points="1752.861,805.536 1775.881,810.143 1775.922,748.367 					"/>
				</g>
			</g>
		</g>
		<g>
			<path style="fill:#5D96DB;" d="M1392.269,1232.427c-0.415,0.496-0.952,0.744-1.612,0.744h-6.825
				c-0.663,0-1.199-0.248-1.612-0.744c-0.415-0.496-0.62-1.074-0.62-1.737v-78.04l-16.005,6.948
				c-0.58,0.249-1.117,0.373-1.613,0.373c-0.744,0-1.116-0.454-1.116-1.365v-6.328c0-0.412,0.103-0.723,0.31-0.93
				c0.205-0.205,0.516-0.434,0.93-0.682l18.735-8.933c0.992-0.496,1.861-0.744,2.606-0.744h5.086c0.661,0,1.219,0.229,1.675,0.682
				c0.454,0.456,0.682,1.014,0.682,1.675v87.345C1392.889,1231.352,1392.682,1231.93,1392.269,1232.427z"/>
			<path style="fill:#5D96DB;" d="M1487.553,1213.072c-1.407,4.881-3.433,8.871-6.08,11.973c-2.647,3.101-5.831,5.377-9.553,6.824
				c-3.722,1.446-7.94,2.171-12.654,2.171c-4.715,0-8.955-0.725-12.717-2.171c-3.766-1.447-6.969-3.723-9.615-6.824
				c-2.648-3.102-4.674-7.092-6.08-11.973c-1.408-4.879-2.109-10.751-2.109-17.618v-16.749c0-6.864,0.702-12.737,2.109-17.618
				c1.406-4.879,3.431-8.871,6.08-11.973c2.646-3.102,5.85-5.376,9.615-6.824c3.762-1.446,8.002-2.172,12.717-2.172
				c4.714,0,8.932,0.726,12.654,2.172c3.723,1.448,6.906,3.722,9.553,6.824c2.647,3.102,4.673,7.094,6.08,11.973
				c1.406,4.881,2.109,10.754,2.109,17.618v16.749C1489.663,1202.32,1488.959,1208.192,1487.553,1213.072z M1478.372,1178.704
				c0-5.21-0.453-9.656-1.361-13.337c-0.907-3.679-2.185-6.678-3.833-8.995c-1.65-2.314-3.648-4.01-5.998-5.086
				c-2.349-1.074-4.969-1.613-7.853-1.613c-2.887,0-5.504,0.54-7.853,1.613c-2.35,1.076-4.351,2.772-5.998,5.086
				c-1.65,2.317-2.927,5.316-3.834,8.995c-0.908,3.682-1.359,8.127-1.359,13.337v16.749c0,5.211,0.451,9.658,1.359,13.338
				c0.907,3.681,2.185,6.68,3.834,8.995c1.647,2.316,3.648,4.014,5.998,5.087c2.349,1.076,4.966,1.613,7.853,1.613
				c2.884,0,5.504-0.536,7.853-1.613c2.35-1.074,4.349-2.771,5.998-5.087c1.648-2.314,2.926-5.314,3.833-8.995
				c0.907-3.68,1.361-8.127,1.361-13.338V1178.704z"/>
			<path style="fill:#5D96DB;" d="M1538.05,1142.724c0,0.332-0.043,0.58-0.124,0.745l-28.04,87.22
				c-0.167,0.663-0.415,1.241-0.744,1.737c-0.332,0.496-0.828,0.744-1.489,0.744h-6.328c-0.579,0-1.013-0.186-1.302-0.558
				c-0.291-0.372-0.434-0.764-0.434-1.179c0-0.329,0.04-0.577,0.124-0.744l28.164-87.22c0.164-0.661,0.391-1.241,0.682-1.737
				c0.288-0.496,0.764-0.744,1.427-0.744h6.328c0.578,0,1.012,0.186,1.303,0.558
				C1537.905,1141.917,1538.05,1142.311,1538.05,1142.724z"/>
			<path style="fill:#5D96DB;" d="M1586.436,1232.427c-0.415,0.496-0.952,0.744-1.613,0.744h-6.825
				c-0.663,0-1.199-0.248-1.612-0.744c-0.415-0.496-0.62-1.074-0.62-1.737v-78.04l-16.005,6.948
				c-0.58,0.249-1.117,0.373-1.613,0.373c-0.744,0-1.116-0.454-1.116-1.365v-6.328c0-0.412,0.103-0.723,0.31-0.93
				c0.206-0.205,0.516-0.434,0.93-0.682l18.735-8.933c0.992-0.496,1.861-0.744,2.606-0.744h5.087c0.661,0,1.219,0.229,1.675,0.682
				c0.453,0.456,0.682,1.014,0.682,1.675v87.345C1587.056,1231.352,1586.849,1231.93,1586.436,1232.427z"/>
			<path style="fill:#5D96DB;" d="M1681.722,1213.072c-1.407,4.881-3.433,8.871-6.08,11.973c-2.647,3.101-5.831,5.377-9.553,6.824
				c-3.722,1.446-7.94,2.171-12.655,2.171c-4.715,0-8.955-0.725-12.717-2.171c-3.765-1.447-6.969-3.723-9.615-6.824
				c-2.648-3.102-4.674-7.092-6.08-11.973c-1.408-4.879-2.109-10.751-2.109-17.618v-16.749c0-6.864,0.702-12.737,2.109-17.618
				c1.406-4.879,3.431-8.871,6.08-11.973c2.646-3.102,5.85-5.376,9.615-6.824c3.762-1.446,8.002-2.172,12.717-2.172
				c4.714,0,8.932,0.726,12.655,2.172c3.723,1.448,6.906,3.722,9.553,6.824c2.647,3.102,4.672,7.094,6.08,11.973
				c1.406,4.881,2.109,10.754,2.109,17.618v16.749C1683.831,1202.32,1683.127,1208.192,1681.722,1213.072z M1672.54,1178.704
				c0-5.21-0.453-9.656-1.36-13.337c-0.907-3.679-2.185-6.678-3.833-8.995c-1.65-2.314-3.648-4.01-5.998-5.086
				c-2.349-1.074-4.969-1.613-7.853-1.613c-2.887,0-5.504,0.54-7.853,1.613c-2.35,1.076-4.351,2.772-5.998,5.086
				c-1.65,2.317-2.927,5.316-3.834,8.995c-0.908,3.682-1.359,8.127-1.359,13.337v16.749c0,5.211,0.451,9.658,1.359,13.338
				c0.907,3.681,2.185,6.68,3.834,8.995c1.647,2.316,3.648,4.014,5.998,5.087c2.349,1.076,4.966,1.613,7.853,1.613
				c2.884,0,5.504-0.536,7.853-1.613c2.35-1.074,4.348-2.771,5.998-5.087c1.648-2.314,2.926-5.314,3.833-8.995
				c0.907-3.68,1.36-8.127,1.36-13.338V1178.704z"/>
		</g>
		<rect x="1909.017" y="544.179" style="fill:#FFD4E0;" width="184.175" height="140.677"/>
		<rect x="1909.017" y="743.222" style="fill:#7FC6A6;" width="184.175" height="140.677"/>
		<rect x="1909.017" y="942.266" style="fill:#7AAAEE;" width="184.175" height="140.677"/>
		<rect x="1909.017" y="1141.31" style="fill:#4CB7D8;" width="184.175" height="140.677"/>
		<rect x="1909.017" y="1340.353" style="fill:#FECC86;" width="184.175" height="140.677"/>
		<path style="fill:#ED2B47;" d="M591.415,526.572h-96.904c-4.418,0-8-3.582-8-8v-31.279c0-4.418,3.582-8,8-8h96.904
			c4.418,0,8,3.582,8,8v31.279C599.415,522.99,595.834,526.572,591.415,526.572z"/>
		<path style="fill:#ED2B47;" d="M1825.529,1468.833h-193.062c-4.418,0-8-3.582-8-8v-52.247c0-4.418,3.582-8,8-8h193.062
			c4.418,0,8,3.582,8,8v52.247C1833.529,1465.251,1829.948,1468.833,1825.529,1468.833z"/>
		<path style="fill:#959596;" d="M1596.119,1468.833h-316.453c-4.418,0-8-3.582-8-8v-52.247c0-4.418,3.582-8,8-8h316.453
			c4.418,0,8,3.582,8,8v52.247C1604.119,1465.251,1600.537,1468.833,1596.119,1468.833z"/>
		<rect x="2128.185" y="545.625" style="fill:#AAC9F8;" width="171.146" height="9.879"/>
		<rect x="2128.185" y="569.969" style="fill:#AAC9F8;" width="171.146" height="9.879"/>
		<rect x="2128.185" y="660.293" style="fill:#AAC9F8;" width="171.146" height="9.879"/>
		<rect x="2128.185" y="743.945" style="fill:#AAC9F8;" width="171.146" height="9.879"/>
		<rect x="2128.185" y="768.29" style="fill:#AAC9F8;" width="171.146" height="9.879"/>
		<rect x="2128.185" y="858.614" style="fill:#AAC9F8;" width="171.146" height="9.879"/>
		<rect x="2128.185" y="942.266" style="fill:#AAC9F8;" width="171.146" height="9.879"/>
		<rect x="2128.185" y="966.611" style="fill:#AAC9F8;" width="171.146" height="9.879"/>
		<rect x="2128.185" y="1056.934" style="fill:#AAC9F8;" width="171.146" height="9.879"/>
		<rect x="2128.185" y="1140.587" style="fill:#AAC9F8;" width="171.146" height="9.879"/>
		<rect x="2128.185" y="1164.932" style="fill:#AAC9F8;" width="171.146" height="9.879"/>
		<rect x="2128.185" y="1255.255" style="fill:#AAC9F8;" width="171.146" height="9.879"/>
		<rect x="2128.185" y="1340.353" style="fill:#AAC9F8;" width="171.146" height="9.879"/>
		<rect x="2128.185" y="1364.698" style="fill:#AAC9F8;" width="171.146" height="9.879"/>
		<rect x="2128.185" y="1455.022" style="fill:#AAC9F8;" width="171.146" height="9.879"/>
		<rect x="2128.185" y="1431.187" style="fill:#AAC9F8;" width="171.146" height="9.879"/>
		<rect x="2128.185" y="1229.099" style="fill:#AAC9F8;" width="171.146" height="9.879"/>
		<rect x="2128.185" y="1027.012" style="fill:#AAC9F8;" width="171.146" height="9.879"/>
		<rect x="2128.185" y="824.924" style="fill:#AAC9F8;" width="171.146" height="9.879"/>
		<rect x="2128.185" y="622.836" style="fill:#AAC9F8;" width="171.146" height="9.879"/>
		<g>
			<path style="fill:#FFBA9F;" d="M1424.991,826.194c-0.619-5.018,0.063-11.095,2.445-13.007l33.634-43.483
				c3.654-2.934,8.994-2.349,11.928,1.305c2.2,2.74,2.422,6.43,0.853,9.34c-3.157,5.859-5.494,12.123-7.691,18.405l-5.283,15.102
				c3.87,0.441,23.047,7.587,36.161,8.136v33.744l1.878-0.291c-0.765,7.152-1.526,14.651-1.919,21.379
				c-0.452,7.733,1.7,14.445-4.613,18.432c-3.652,2.307-22.803,2.284-29.609,1.771l-49.285-0.463
				C1414.753,883.066,1415.769,875.409,1424.991,826.194z"/>
			<g>
				<g>
					<g>
						<g>
							<path style="fill:#FFBA9F;" d="M999.823,713.969c0,0,54.671,118.48,79.138,141.749
								c24.467,23.269,310.458,41.591,310.458,41.591l7.56-88.134l-230.121-52.651L1106.52,642.41L999.823,713.969z"/>
						</g>
					</g>
				</g>
			</g>
			<g>
				<g>
					<g>
						<g>
							<path style="fill:#F07162;" d="M1123.641,791.928c0.578-0.057,1.149-0.263,1.654-0.627l43.72-31.537
								c1.524-1.099,1.869-3.226,0.769-4.75c-1.099-1.525-3.228-1.868-4.75-0.769l-43.72,31.537
								c-1.524,1.099-1.868,3.226-0.769,4.75C1121.279,791.551,1122.474,792.043,1123.641,791.928z"/>
						</g>
					</g>
				</g>
			</g>
			<g>
				<g>
					<path style="fill:#FFBA9F;" d="M1510.922,850.187c-1.25,5.601-5.994,9.078-7.267,8.798l-42.576-9.383
						c-4.784-1.054-8.166-5.585-7.423-10.428c0.814-5.306,5.916-8.742,11.074-7.605l43.661,9.622
						C1508.391,841.193,1512.171,844.586,1510.922,850.187z"/>
				</g>
			</g>
			<g>
				<g>
					<path style="fill:#FFBA9F;" d="M1506.881,867.876c-1.142,5.623-5.818,9.192-7.098,8.936l-42.748-8.565
						c-4.804-0.962-8.272-5.428-7.622-10.283c0.712-5.321,5.747-8.854,10.926-7.816l43.838,8.783
						C1504.178,858.931,1508.023,862.252,1506.881,867.876z"/>
				</g>
			</g>
			<g>
				<g>
					<path style="fill:#FFBA9F;" d="M1501.577,883.964c-1.003,5.251-5.319,8.625-6.513,8.401l-39.912-7.511
						c-4.485-0.844-7.764-4.965-7.212-9.495c0.605-4.964,5.256-8.31,10.092-7.399l40.929,7.702
						C1498.962,875.663,1502.58,878.714,1501.577,883.964z"/>
				</g>
			</g>
			<g>
				<g>
					<g>
						<path style="fill:#F07162;" d="M1503.656,860.556c0.797,0,1.514-0.552,1.689-1.363c0.203-0.934-0.39-1.855-1.324-2.058
							l-42.577-9.224c-4.001-0.882-6.675-4.604-6.08-8.474c0.319-2.073,1.441-3.865,3.163-5.045c1.721-1.179,3.789-1.585,5.83-1.134
							l38.926,8.579c0.931,0.194,1.857-0.387,2.061-1.318c0.206-0.933-0.384-1.855-1.318-2.061l-38.926-8.579
							c-2.936-0.647-6.047-0.042-8.53,1.659c-2.517,1.725-4.161,4.344-4.626,7.374c-0.87,5.666,2.979,11.105,8.761,12.378
							l42.582,9.226C1503.412,860.545,1503.535,860.556,1503.656,860.556z"/>
					</g>
				</g>
			</g>
			<g>
				<g>
					<path style="fill:#FFBA9F;" d="M1510.933,831.679c-1.193,5.343-5.718,8.661-6.934,8.394l-40.62-8.952
						c-4.565-1.006-7.791-5.329-7.082-9.949c0.777-5.063,5.644-8.34,10.565-7.255l41.656,9.18
						C1508.519,823.098,1512.126,826.336,1510.933,831.679z"/>
				</g>
			</g>
			<g>
				<g>
					<g>
						<path style="fill:#F07162;" d="M1504.002,841.572c0.761,0,1.444-0.527,1.612-1.301c0.193-0.891-0.372-1.77-1.264-1.963
							l-40.621-8.801c-3.817-0.841-6.368-4.392-5.801-8.085c0.305-1.978,1.375-3.688,3.017-4.813
							c1.642-1.125,3.615-1.512,5.562-1.082l37.138,8.185c0.888,0.185,1.771-0.369,1.966-1.257c0.197-0.89-0.366-1.77-1.257-1.967
							l-37.138-8.185c-2.802-0.617-5.769-0.04-8.138,1.583c-2.402,1.646-3.97,4.144-4.413,7.036
							c-0.83,5.406,2.842,10.595,8.359,11.81l40.626,8.802C1503.768,841.561,1503.886,841.572,1504.002,841.572z"/>
					</g>
				</g>
			</g>
			<g>
				<g>
					<g>
						<path style="fill:#F07162;" d="M1498.598,877.324c0.818,0,1.544-0.581,1.7-1.414c0.174-0.939-0.446-1.841-1.385-2.017
							l-41.775-7.771c-4.044-0.809-6.526-4.072-6.009-7.929c0.277-2.08,1.365-3.891,3.063-5.102
							c1.698-1.213,3.754-1.657,5.808-1.247l43.838,8.783c0.934,0.193,1.85-0.419,2.036-1.357c0.188-0.936-0.419-1.848-1.356-2.036
							l-43.838-8.784c-2.95-0.595-6.047,0.073-8.5,1.823c-2.483,1.774-4.075,4.423-4.48,7.459
							c-0.759,5.66,2.936,10.615,8.783,11.786l41.798,7.776C1498.387,877.314,1498.494,877.324,1498.598,877.324z"/>
					</g>
				</g>
			</g>
			<g>
				<g>
					<g>
						<path style="fill:#F07162;" d="M1495.066,894.095c0.816,0,1.542-0.579,1.698-1.411c0.177-0.938-0.441-1.843-1.38-2.019
							l-39.911-7.511c-3.695-0.694-6.248-4.026-5.815-7.586c0.233-1.907,1.21-3.578,2.752-4.707
							c1.541-1.128,3.425-1.558,5.305-1.203l40.928,7.702c0.928,0.177,1.841-0.441,2.019-1.38c0.177-0.938-0.441-1.843-1.38-2.019
							l-40.928-7.702c-2.786-0.525-5.697,0.135-7.987,1.809c-2.321,1.7-3.793,4.213-4.141,7.08
							c-0.656,5.364,3.127,10.373,8.609,11.404l39.911,7.511C1494.853,894.085,1494.959,894.095,1495.066,894.095z"/>
					</g>
				</g>
			</g>
			<g>
				<g>
					<path style="fill:#FFBA9F;" d="M1444.572,802.445c0,0-22.25,9.843-28.401,9.458c-6.151-0.384-31.488-5.541-31.488-5.541
						l-12.369,89.78c0,0,18.872,2.238,51.547,0.519C1456.537,894.943,1444.572,802.445,1444.572,802.445z"/>
				</g>
			</g>
			<path style="fill:#7AAAEE;" d="M937.393,518.962c0,0,153.143-59.768,188.265-5.701c35.121,54.067,93.141,201.576,92.265,205.386
				c-9.545,41.498-59.791,86.079-90.576,102.49c-28.742,15.321-37.742,4.714-56.608-18.415
				c-32.274-39.569-46.375-213.545-46.83-212.173C1023.493,591.802,937.393,518.962,937.393,518.962z"/>
			<g>
				<g>
					<g>
						<g>
							<g>
								<path style="fill:#D3183C;" d="M905.026,1049.474c1.392,41.034,4.511,126.266,9.646,231.766h200.007l4.565-281.541
									c0.036-2.097-0.109-4.195-0.425-6.265l-0.66-4.267c-3.607-23.505-28.007-37.662-50.21-29.137l-48.167,18.505l-90.873,34.905
									C914.076,1019.143,904.484,1033.59,905.026,1049.474z"/>
							</g>
						</g>
					</g>
				</g>
			</g>
			<g>
				<g>
					<g>
						<g>
							<g>
								<path style="fill:#ED2B47;" d="M758.745,999.49c0,0-1.022,120.597-14.157,281.749h198.1l11.572-66.193l16.426-94.01
									l49.098-142.502l21.326-61.908L758.745,999.49z"/>
							</g>
						</g>
					</g>
				</g>
			</g>
			<path style="fill:#7AAAEE;" d="M756.223,521.23c-11.305,16.028-24.729,61.508-41.648,110.375
				c-22.423,64.764-47.476,133.997-47.476,133.997s-3.848,19.536,87.845,28.109l-6.133,312.59c0,0,176.198,60.118,383.288-0.674
				c0,0,9.23-555.166-19.289-598.387C1084.291,464.017,803.99,453.509,756.223,521.23z"/>
			<g>
				<g>
					<g>
						<g>
							<g>
								<g>
									<g>
										<g>
											<g>
												<path style="fill:#FFBA9F;" d="M988.795,346.133l1.983,75.59c0,0,1.65,24.274-19.533,27.869l4.82,32.317
													c1.792,12.012-5.112,23.739-16.59,27.708c-5.613,1.94-12.334,3.426-19.996,3.627
													c-24.3,0.637-37.941-17.242-40.205-26.302c-2.264-9.059,2.669-52.757,2.669-52.757l-1.301-21.374l0.591-82.967
													L988.795,346.133z"/>
											</g>
										</g>
									</g>
								</g>
							</g>
						</g>
					</g>
				</g>
			</g>
			<g>
				<g>
					<g>
						<g>
							<g>
								<g>
									<g>
										<g>
											<g>
												<path style="fill:#F07162;" d="M921.409,430.241c0,0,2.493,40.635,53.391,43.187l-3.555-23.836
													C971.245,449.592,938.474,457.075,921.409,430.241z"/>
											</g>
										</g>
									</g>
								</g>
							</g>
						</g>
					</g>
				</g>
			</g>
			<g>
				<g>
					<g>
						<g>
							<g>
								<g>
									<g>
										<g>
											<g>
												<path d="M931.166,387.318c-0.252,0.007-0.508-0.081-0.709-0.264c-0.413-0.376-0.443-1.016-0.067-1.43
													c0.135-0.149,13.688-14.759,26.683-4.84c0.444,0.339,0.53,0.974,0.191,1.419c-0.339,0.446-0.975,0.531-1.42,0.19
													c-11.515-8.788-23.454,4.044-23.956,4.594C931.694,387.199,931.432,387.311,931.166,387.318z"/>
											</g>
										</g>
									</g>
								</g>
							</g>
						</g>
					</g>
				</g>
			</g>
			<g>
				<g>
					<g>
						<g>
							<g>
								<g>
									<g>
										<path d="M895.992,377.61l21.971,3.976l4.057,3.988c0,0-2.853-36.585-7.157-43.679
											C910.559,334.8,895.992,377.61,895.992,377.61z"/>
									</g>
								</g>
							</g>
						</g>
					</g>
				</g>
			</g>
			<g>
				<g>
					<g>
						<g>
							<g>
								<g>
									<g>
										<g>
											<g>
												<path d="M972.745,380.148c-0.283,0.007-0.568-0.104-0.775-0.33c-0.377-0.413-0.348-1.053,0.064-1.431
													c0.399-0.365,9.841-8.878,16.084-3.802c0.434,0.353,0.5,0.99,0.147,1.424c-0.353,0.436-0.99,0.501-1.425,0.147
													c-4.891-3.976-13.355,3.649-13.44,3.727C973.214,380.055,972.98,380.142,972.745,380.148z"/>
											</g>
										</g>
									</g>
								</g>
							</g>
						</g>
					</g>
				</g>
			</g>
			<g>
				<g>
					<g>
						<g>
							<g>
								<g>
									<g>
										<g>
											<g>
												<path d="M951.748,390.873c0.044,1.678-1.28,3.073-2.958,3.117c-1.678,0.044-3.073-1.28-3.117-2.958
													c-0.044-1.678,1.28-3.073,2.958-3.117C950.309,387.871,951.704,389.195,951.748,390.873z"/>
											</g>
										</g>
									</g>
								</g>
							</g>
						</g>
					</g>
				</g>
			</g>
			<g>
				<g>
					<g>
						<g>
							<g>
								<g>
									<g>
										<g>
											<g>
												<path d="M983.956,386.989c0.044,1.678-1.28,3.073-2.958,3.117c-1.678,0.044-3.073-1.28-3.117-2.958
													c-0.044-1.678,1.28-3.073,2.958-3.117C982.517,383.987,983.912,385.311,983.956,386.989z"/>
											</g>
										</g>
									</g>
								</g>
							</g>
						</g>
					</g>
				</g>
			</g>
			<g>
				<g>
					<g>
						<g>
							<g>
								<g>
									<g>
										<g>
											<g>
												<path style="fill:#FFBA9F;" d="M926.633,390.477c0.264,10.066-7.682,18.439-17.747,18.703
													c-10.066,0.264-18.439-7.682-18.703-17.747c-0.264-10.065,7.681-18.439,17.747-18.703
													C917.995,372.466,926.369,380.411,926.633,390.477z"/>
											</g>
										</g>
									</g>
								</g>
							</g>
						</g>
					</g>
				</g>
			</g>
			<g>
				<g>
					<g>
						<g>
							<g>
								<g>
									<g>
										<g>
											<g>
												<path style="fill:#F07162;" d="M905.484,401.155c-3.786,0.099-6.389-2.68-7.297-5.502
													c-1.073-3.338-0.03-6.635,2.657-8.403c3.97-2.611,7.672-1.1,9.578,0.084c-0.841-2.048-2.114-3.521-3.797-4.391
													c-3.643-1.882-8.059-0.326-8.103-0.31c-0.263,0.096-0.553-0.041-0.648-0.305c-0.095-0.262,0.041-0.552,0.303-0.648
													c0.197-0.072,4.865-1.723,8.906,0.359c2.333,1.201,3.956,3.395,4.824,6.518l0.487,1.751l-1.323-1.248
													c-0.187-0.177-4.631-4.277-9.671-0.965c-2.79,1.834-2.955,5.05-2.249,7.246c0.733,2.28,2.821,4.891,6.302,4.8
													c0.035-0.001,0.068-0.005,0.105-0.004c0.276-0.007,0.508,0.208,0.519,0.486c0.011,0.279-0.206,0.515-0.485,0.526
													C905.556,401.152,905.519,401.154,905.484,401.155z"/>
											</g>
										</g>
									</g>
								</g>
							</g>
						</g>
					</g>
				</g>
			</g>
			<g>
				<g>
					<g>
						<g>
							<g>
								<g>
									<g>
										<g>
											<g>
												<path style="fill:#F07162;" d="M963.001,411.081c-0.212,0.006-0.414-0.124-0.49-0.335
													c-0.095-0.264,0.042-0.553,0.305-0.648l10.061-3.622l-3.833-23.8c-0.044-0.276,0.143-0.536,0.419-0.58
													c0.279-0.052,0.536,0.143,0.581,0.419l3.966,24.629l-10.851,3.906C963.107,411.07,963.053,411.08,963.001,411.081z"/>
											</g>
										</g>
									</g>
								</g>
							</g>
						</g>
					</g>
				</g>
			</g>
			<g>
				<g>
					<g>
						<g>
							<g>
								<g>
									<g>
										<g>
											<g>
												<path style="fill:#FBFDFC;" d="M955.399,421.148c0.31-0.069,20.034-1.049,20.034-1.049s-2.263,8.227-9.593,8.611
													C958.509,429.094,955.399,421.148,955.399,421.148z"/>
											</g>
										</g>
									</g>
								</g>
							</g>
						</g>
					</g>
				</g>
			</g>
			<g>
				<g>
					<g>
						<g>
							<g>
								<g>
									<g>
										<path d="M895.992,377.61c0,0-7.084-35.326,3.434-48.838c10.518-13.513,72.271-38.297,80.003-31.881
											c7.732,6.416,0.384,14.645,0.384,14.645s24.827-8.688,31.079,13.367c6.251,22.055-47.357,32.916-79.754,23.365
											C931.139,348.267,910.055,355.022,895.992,377.61z"/>
									</g>
								</g>
							</g>
						</g>
					</g>
				</g>
			</g>
			<g>
				<g>
					<g>
						<path style="fill:#FFBA9F;" d="M1044.12,906.972c-3.585,0.679-159.109,20.793-261.522-13.354
							c-35.648-11.886-68.848-39.586-85.196-61.942c-24.809-33.926-8.598-98.98,14.43-145.531l54.649,58.731l0,0
							c6.113,6.57,13.146,12.21,20.893,16.741c28.485,16.662,94.925,54.047,161.823,59.472L1044.12,906.972z"/>
					</g>
				</g>
			</g>
			<path style="fill:#7AAAEE;" d="M667.099,765.602c0,0,1.702,2.78,10.326,8.53c10.136,6.758,30.427,16.825,77.519,19.579
				c0,0,50.049,0.874,109.228-28.109c59.179-28.982-71.215-138.471-71.215-138.471l-62.188,23.228l-28.085,23.07L667.099,765.602z"
				/>
			<path d="M1174.671,786.868c-0.468,0-0.931-0.206-1.246-0.598c-0.55-0.688-0.438-1.692,0.249-2.242
				c35.348-28.268,42.018-61.837,42.623-65.315c-12.102-48.517-82.262-200.224-102.352-215.177
				c-20.524-15.276-126.739-29.194-127.81-29.334c-0.874-0.112-1.489-0.912-1.377-1.786c0.113-0.873,0.917-1.481,1.786-1.377
				c4.405,0.572,108.117,14.169,129.305,29.94c21.903,16.302,92.814,173.437,103.622,217.287l0.075,0.3l-0.045,0.307
				c-0.053,0.369-5.723,37.166-43.836,67.646C1175.372,786.754,1175.02,786.868,1174.671,786.868z"/>
			<path d="M935.785,1134.652c-55.312,0-120.559-6.368-187.44-26.828c-0.842-0.257-1.316-1.149-1.058-1.991
				c0.257-0.842,1.149-1.314,1.991-1.057c102.324,31.299,200.845,29.45,265.475,22.382c64.344-7.035,108.711-20.472,115.839-22.723
				c10.839-143.674-7.807-533.368-7.998-537.298c-0.042-0.878,0.636-1.626,1.516-1.669c0.867-0.076,1.627,0.635,1.67,1.516
				c0.191,3.941,18.94,395.773,7.909,538.765l-0.082,1.056l-1.005,0.335c-0.463,0.154-47.15,15.497-117.503,23.189
				C992.396,1132.81,965.525,1134.652,935.785,1134.652z M1132.099,1105.626h0.016H1132.099z"/>
			<path d="M748.427,793.329c-30.133,0-62.005-5.99-82.46-26.605l-0.705-0.711l0.335-0.944l82.688-233.379
				c0.379-1.283,10.484-33.387,62.748-44.381c51.411-10.815,72.064-13.314,72.267-13.339c0.866-0.1,1.668,0.522,1.771,1.397
				c0.104,0.873-0.522,1.666-1.396,1.77c-0.202,0.023-20.752,2.514-71.985,13.292c-50.423,10.608-60.281,41.932-60.374,42.248
				l-82.376,232.504c44.363,43.336,145.867,17.135,157.582,13.918c1.537-35.726,26.653-194.81,26.908-196.431
				c0.138-0.869,0.967-1.472,1.824-1.325c0.87,0.137,1.464,0.953,1.326,1.823c-0.259,1.638-25.917,164.155-26.914,197.201
				l-0.035,1.155l-1.109,0.325C825.854,782.634,788.692,793.329,748.427,793.329z"/>
			<path d="M848.172,628.724c-0.354,0-0.71-0.117-1.006-0.358c-0.683-0.556-0.786-1.56-0.23-2.244l15.999-19.651
				c0.557-0.682,1.56-0.786,2.243-0.229c0.683,0.556,0.786,1.56,0.23,2.244l-15.999,19.651
				C849.094,628.523,848.635,628.724,848.172,628.724z"/>
			<path d="M825.881,1070.504c-0.379,0-0.76-0.134-1.064-0.408l-40.774-36.613c-0.656-0.589-0.71-1.596-0.121-2.251
				c0.589-0.654,1.597-0.71,2.252-0.121l40.774,36.614c0.656,0.588,0.71,1.596,0.121,2.251
				C826.753,1070.325,826.318,1070.504,825.881,1070.504z"/>
			<path d="M815.129,1090.378c-0.406,0-0.811-0.154-1.123-0.462l-30.022-29.762c-0.625-0.62-0.63-1.629-0.009-2.255
				c0.619-0.626,1.627-0.631,2.255-0.009l30.022,29.762c0.625,0.62,0.63,1.629,0.009,2.255
				C815.949,1090.221,815.539,1090.378,815.129,1090.378z"/>
			<path d="M941.079,1281.239h3.227l11.246-64.349c0.154-0.868-0.425-1.691-1.293-1.844c-0.868-0.136-1.69,0.425-1.844,1.302
				L941.079,1281.239z"/>
			<g>
				<g>
					<g>
						<g>
							<g>
								<path style="fill:#3D3D3E;" d="M1032.441,904.789h57.791c5.853,0,10.598-5.455,10.598-12.184v-63.949v-69.602
									c0-6.729-4.745-12.185-10.598-12.185h-57.791c-5.853,0-10.598,5.455-10.598,12.185v133.552
									C1021.844,899.334,1026.588,904.789,1032.441,904.789z"/>
							</g>
						</g>
					</g>
				</g>
				<g>
					<g>
						<g>
							<g>
								<path style="fill:#21111D;" d="M1032.44,906.886c1.157,0,2.096-0.939,2.096-2.096c0-1.157-0.939-2.096-2.096-2.096
									c-4.688,0-8.501-4.526-8.501-10.088V759.053c0-5.562,3.813-10.087,8.501-10.087h57.792c1.157,0,2.096-0.939,2.096-2.096
									c0-1.157-0.939-2.096-2.096-2.096h-57.792c-7,0-12.694,6.406-12.694,14.28v133.552
									C1019.746,900.479,1025.44,906.886,1032.44,906.886z"/>
							</g>
						</g>
					</g>
				</g>
			</g>
			<g>
				<g>
					<g>
						<g>
							<g>
								<path style="fill:#FFBA9F;" d="M1105.552,835.161c6.859-10.681-3.594-20.205-3.594-20.205
									c0.418-14.056-4.396-19.159-4.396-19.159s-34.397,18.629-53.619,30.748c-12.137,0.716-17.505-4.153-17.505-4.153
									l-0.199,0.555c-2.384-10.146-5.359-22.836-5.663-24.273c-0.513-2.431-5.227-5.507-9.679,3.475
									c-4.453,8.982-10.172,26.171-10.172,26.171l-72.322-9.944l29.833,95.207c0,0,75.93-5.141,87.447-6.726
									c11.517-1.585,49.044-19.228,58.742-31.433c9.697-12.206,5.325-20.38,5.325-20.38
									C1116.258,842.7,1105.552,835.161,1105.552,835.161z"/>
							</g>
						</g>
					</g>
				</g>
				<g>
					<g>
						<g>
							<g>
								<g>
									<path style="fill:#F07162;" d="M1079.761,833.359c-0.577,0.122-1.191-0.132-1.501-0.672
										c-0.384-0.669-0.153-1.523,0.517-1.907c9.385-5.386,22.123-16.749,22.249-16.864c0.575-0.513,1.458-0.464,1.974,0.109
										c0.515,0.576,0.466,1.46-0.109,1.974c-0.53,0.473-13.082,11.671-22.724,17.204
										C1080.036,833.278,1079.9,833.329,1079.761,833.359z"/>
								</g>
							</g>
						</g>
					</g>
				</g>
				<g>
					<g>
						<g>
							<g>
								<g>
									<path style="fill:#F07162;" d="M1083.416,850.68c-0.646,0.136-1.318-0.202-1.579-0.834
										c-0.294-0.713,0.045-1.53,0.758-1.826c12.168-5.031,21.921-13.807,22.018-13.894c0.575-0.521,1.458-0.474,1.974,0.095
										c0.519,0.573,0.476,1.456-0.095,1.974c-0.411,0.373-10.196,9.184-22.83,14.409
										C1083.582,850.637,1083.499,850.662,1083.416,850.68z"/>
								</g>
							</g>
						</g>
					</g>
				</g>
				<g>
					<g>
						<g>
							<g>
								<g>
									<path style="fill:#F07162;" d="M1090.624,869.789c-0.63,0.133-1.289-0.185-1.563-0.797c-0.315-0.704,0-1.53,0.705-1.846
										c10.379-4.646,18.918-13.012,19.003-13.097c0.548-0.544,1.434-0.536,1.977,0.013c0.541,0.548,0.536,1.434-0.014,1.977
										c-0.361,0.357-8.987,8.806-19.825,13.658C1090.815,869.74,1090.72,869.769,1090.624,869.789z"/>
								</g>
							</g>
						</g>
					</g>
				</g>
			</g>
		</g>
		<rect x="486.511" y="1390.29" style="opacity:0.8;fill:#AAC9F8;" width="574.825" height="20.591"/>
		<rect x="713.85" y="1441.802" style="opacity:0.8;fill:#AAC9F8;" width="347.486" height="17.455"/>
		<rect x="713.85" y="1486.964" style="opacity:0.8;fill:#AAC9F8;" width="347.486" height="17.455"/>
		<path style="fill:#AAC9F8;" d="M670.57,1522.022H486.395c0-50.863,41.225-92.088,92.088-92.088
			C629.337,1429.935,670.57,1471.16,670.57,1522.022z"/>
		<path style="opacity:0.5;fill:#FFFFFF;" d="M1802.552,1441.802h-150.304c-5.066,0-9.173-4.107-9.173-9.174l0,0
			c0-5.066,4.107-9.173,9.173-9.173h150.304c5.066,0,9.173,4.107,9.173,9.173l0,0
			C1811.725,1437.695,1807.618,1441.802,1802.552,1441.802z"/>
		<g>
			<g>
				<g>
					<g>
						<g>
							<g>
								<path style="fill:#FFFFFF;" d="M1729.301,1087.349h-133.044c0.014-0.44,0.116-0.894,0.32-1.33
									c9.818-20.78,29.286-9.53,29.286-9.53c11.263-18.796,26.881-3.971,26.881-3.971s0.417-38.965,34.776-35.953
									c29.962,2.627,27.757,42.291,27.757,42.291c6.398,0.445,10.202,2.381,12.431,4.758
									C1728.759,1084.736,1729.255,1086.047,1729.301,1087.349z"/>
							</g>
						</g>
					</g>
				</g>
			</g>
		</g>
		<g>
			<g>
				<polygon style="fill:#FFFFFF;" points="2017.14,614.517 1994.418,637.239 1994.418,591.795 				"/>
			</g>
			<g>
				<path style="fill:#FFFFFF;" d="M2001.104,661.943c-26.151,0-47.426-21.275-47.426-47.426s21.275-47.426,47.426-47.426
					c26.151,0,47.426,21.275,47.426,47.426S2027.255,661.943,2001.104,661.943z M2001.104,570.267
					c-24.399,0-44.25,19.851-44.25,44.25c0,24.4,19.851,44.25,44.25,44.25c24.4,0,44.251-19.851,44.251-44.25
					C2045.355,590.118,2025.504,570.267,2001.104,570.267z"/>
			</g>
		</g>
		<g>
			<g>
				<polygon style="fill:#FFFFFF;" points="2017.14,817.125 1994.418,839.847 1994.418,794.404 				"/>
			</g>
			<g>
				<path style="fill:#FFFFFF;" d="M2001.104,864.551c-26.151,0-47.426-21.275-47.426-47.426s21.275-47.426,47.426-47.426
					c26.151,0,47.426,21.275,47.426,47.426S2027.255,864.551,2001.104,864.551z M2001.104,772.875
					c-24.399,0-44.25,19.851-44.25,44.25c0,24.4,19.851,44.25,44.25,44.25c24.4,0,44.251-19.851,44.251-44.25
					C2045.355,792.726,2025.504,772.875,2001.104,772.875z"/>
			</g>
		</g>
		<g>
			<g>
				<polygon style="fill:#FFFFFF;" points="2017.14,1014.036 1994.418,1036.758 1994.418,991.315 				"/>
			</g>
			<g>
				<path style="fill:#FFFFFF;" d="M2001.104,1061.462c-26.151,0-47.426-21.275-47.426-47.426c0-26.151,21.275-47.426,47.426-47.426
					c26.151,0,47.426,21.275,47.426,47.426C2048.531,1040.187,2027.255,1061.462,2001.104,1061.462z M2001.104,969.786
					c-24.399,0-44.25,19.851-44.25,44.25s19.851,44.25,44.25,44.25c24.4,0,44.251-19.851,44.251-44.25
					S2025.504,969.786,2001.104,969.786z"/>
			</g>
		</g>
		<g>
			<g>
				<polygon style="fill:#FFFFFF;" points="2017.14,1215.213 1994.418,1237.935 1994.418,1192.491 				"/>
			</g>
			<g>
				<path style="fill:#FFFFFF;" d="M2001.104,1262.639c-26.151,0-47.426-21.275-47.426-47.426c0-26.151,21.275-47.426,47.426-47.426
					c26.151,0,47.426,21.275,47.426,47.426C2048.531,1241.364,2027.255,1262.639,2001.104,1262.639z M2001.104,1170.963
					c-24.399,0-44.25,19.851-44.25,44.25c0,24.399,19.851,44.25,44.25,44.25c24.4,0,44.251-19.851,44.251-44.25
					C2045.355,1190.814,2025.504,1170.963,2001.104,1170.963z"/>
			</g>
		</g>
		<g>
			<g>
				<polygon style="fill:#FFFFFF;" points="2017.14,1410.692 1994.418,1433.414 1994.418,1387.97 				"/>
			</g>
			<g>
				<path style="fill:#FFFFFF;" d="M2001.104,1458.118c-26.151,0-47.426-21.275-47.426-47.426c0-26.15,21.275-47.426,47.426-47.426
					c26.151,0,47.426,21.275,47.426,47.426C2048.531,1436.843,2027.255,1458.118,2001.104,1458.118z M2001.104,1366.442
					c-24.399,0-44.25,19.851-44.25,44.25s19.851,44.25,44.25,44.25c24.4,0,44.251-19.851,44.251-44.25
					S2025.504,1366.442,2001.104,1366.442z"/>
			</g>
		</g>
	</g>
</g>
</svg>
